<?xml version="1.0" encoding="UTF-8"?><svg width="512" height="512" version="1.1" viewBox="0 0 512 512" xmlns="http://www.w3.org/2000/svg" xmlns:xlink="http://www.w3.org/1999/xlink"><!--Generated by IJSVG (https://github.com/iconjar/IJSVG)--><g transform="scale(8)"><path fill="#000" d="M58.542,27.045c-0.357,-1.911 -2.759,-3.042 -7.32,-3.46c-3.282,-7.503 -10.732,-12.588 -19.199,-12.588c-1.292,0 -2.597,0.121 -3.877,0.36c-5.514,1.029 -10.297,4.144 -13.468,8.771c-2.255,3.291 -3.482,7.069 -3.644,10.959c-4.044,2.009 -5.927,3.983 -5.575,5.868c0.383,2.05 3.289,3.078 7.314,3.446c3.278,7.51 10.732,12.602 19.204,12.603c0,0 0,0 0,0c1.292,0 2.596,-0.122 3.876,-0.36c9.778,-1.826 16.695,-10.196 17.109,-19.734c3.372,-1.672 5.985,-3.695 5.58,-5.865Zm-23.983,8.424c0.453,-0.661 1.137,-1.106 1.924,-1.253c0.184,-0.035 0.371,-0.052 0.556,-0.052c1.44,0 2.679,1.03 2.943,2.449c0.304,1.626 -0.771,3.196 -2.397,3.499c-1.628,0.306 -3.201,-0.796 -3.499,-2.397c-0.148,-0.788 0.019,-1.586 0.473,-2.246Zm-27.135,1.119c-0.086,-0.466 0.626,-1.639 3.632,-3.264c0.055,0.843 0.143,1.687 0.3,2.529c0.158,0.845 0.382,1.661 0.634,2.463c-2.863,-0.363 -4.436,-1.036 -4.566,-1.728Zm45.519,-5.906c-0.053,-0.841 -0.142,-1.687 -0.3,-2.536c-0.158,-0.846 -0.383,-1.664 -0.636,-2.467c3.392,0.431 4.48,1.267 4.567,1.733c0.128,0.678 -1.031,1.872 -3.631,3.27Z"></path></g></svg>