<svg xmlns="http://www.w3.org/2000/svg" xmlns:xlink="http://www.w3.org/1999/xlink" viewBox="0 0 400 400"><defs><style>.cls-1,.cls-3{mask:url(#mask);}.cls-1{filter:url(#luminosity-noclip-4);}.cls-2,.cls-4,.cls-6{mix-blend-mode:multiply;}.cls-2{fill:url(#radial-gradient);}.cls-3{filter:url(#luminosity-noclip-5);}.cls-4{fill:url(#radial-gradient-2);}.cls-5{mask:url(#mask-3);filter:url(#luminosity-noclip-6);}.cls-6{fill:url(#linear-gradient);}.cls-7{fill:#fff;}.cls-8{fill:url(#radial-gradient-3);}.cls-9{fill:#43873c;}.cls-10{fill:#98b552;}.cls-11{mask:url(#mask-4);}.cls-12{fill:url(#radial-gradient-4);}.cls-13{mask:url(#mask-5);}.cls-14{fill:url(#radial-gradient-5);}.cls-15{mask:url(#mask-6);}.cls-16{fill:url(#linear-gradient-2);}.cls-17{filter:url(#luminosity-noclip-3);}.cls-18{filter:url(#luminosity-noclip);}</style><filter id="luminosity-noclip" x="38.38" y="-9022" width="326.37" height="32766" filterUnits="userSpaceOnUse" color-interpolation-filters="sRGB"><feFlood flood-color="#fff" result="bg"/><feBlend in="SourceGraphic" in2="bg"/></filter><mask id="mask" x="38.38" y="-9022" width="326.37" height="32766" maskUnits="userSpaceOnUse"><g class="cls-18"/></mask><radialGradient id="radial-gradient" cx="171.38" cy="165.64" r="268.18" gradientUnits="userSpaceOnUse"><stop offset="0"/><stop offset="0.08" stop-color="#131313"/><stop offset="0.26" stop-color="#454545"/><stop offset="0.5" stop-color="#949494"/><stop offset="0.56" stop-color="#ababab"/><stop offset="0.68" stop-color="#a5a5a5"/><stop offset="0.84" stop-color="#939393"/><stop offset="1" stop-color="#7a7a7a"/></radialGradient><radialGradient id="radial-gradient-2" cx="132.76" cy="135.35" r="248.34" gradientUnits="userSpaceOnUse"><stop offset="0.32"/><stop offset="0.57" stop-color="#020202"/><stop offset="0.67" stop-color="#090909"/><stop offset="0.73" stop-color="#141414"/><stop offset="0.78" stop-color="#252525"/><stop offset="0.83" stop-color="#3b3b3b"/><stop offset="0.87" stop-color="#575757"/><stop offset="0.9" stop-color="#777"/><stop offset="0.94" stop-color="#9d9d9d"/><stop offset="0.97" stop-color="#c8c8c8"/><stop offset="0.99" stop-color="#f6f6f6"/><stop offset="1" stop-color="#fff"/></radialGradient><filter id="luminosity-noclip-3" x="51.78" y="-9022" width="250.94" height="32766" filterUnits="userSpaceOnUse" color-interpolation-filters="sRGB"><feFlood flood-color="#fff" result="bg"/><feBlend in="SourceGraphic" in2="bg"/></filter><mask id="mask-3" x="51.78" y="-9022" width="250.94" height="32766" maskUnits="userSpaceOnUse"><g class="cls-17"/></mask><linearGradient id="linear-gradient" x1="65.24" y1="212.98" x2="65.24" y2="-110.67" gradientTransform="translate(112.63 146.22) rotate(10.02)" gradientUnits="userSpaceOnUse"><stop offset="0.32"/><stop offset="1" stop-color="#595959"/></linearGradient><radialGradient id="radial-gradient-3" cx="201.56" cy="193.18" r="163.18" gradientUnits="userSpaceOnUse"><stop offset="0" stop-color="#2f8cea"/><stop offset="0.17" stop-color="#2d88e4"/><stop offset="0.39" stop-color="#287cd4"/><stop offset="0.64" stop-color="#1f69b8"/><stop offset="0.91" stop-color="#144e92"/><stop offset="1" stop-color="#0f4484"/></radialGradient><filter id="luminosity-noclip-4" x="38.38" y="30" width="326.37" height="326.36" filterUnits="userSpaceOnUse" color-interpolation-filters="sRGB"><feFlood flood-color="#fff" result="bg"/><feBlend in="SourceGraphic" in2="bg"/></filter><mask id="mask-4" x="38.38" y="30" width="326.37" height="326.36" maskUnits="userSpaceOnUse"><g class="cls-1"><circle class="cls-2" cx="201.56" cy="193.18" r="163.19"/></g></mask><radialGradient id="radial-gradient-4" cx="171.38" cy="165.64" r="268.18" gradientUnits="userSpaceOnUse"><stop offset="0" stop-color="#32c5ed"/><stop offset="0.07" stop-color="#2eb5da"/><stop offset="0.22" stop-color="#228aa8"/><stop offset="0.42" stop-color="#0f4659"/><stop offset="0.56" stop-color="#01111c"/><stop offset="0.6" stop-color="#07161f"/><stop offset="0.66" stop-color="#192526"/><stop offset="0.72" stop-color="#363c32"/><stop offset="0.79" stop-color="#5f5d43"/><stop offset="0.87" stop-color="#938859"/><stop offset="0.95" stop-color="#d2bb73"/><stop offset="1" stop-color="#ffe086"/></radialGradient><filter id="luminosity-noclip-5" x="38.38" y="30.01" width="326.37" height="326.36" filterUnits="userSpaceOnUse" color-interpolation-filters="sRGB"><feFlood flood-color="#fff" result="bg"/><feBlend in="SourceGraphic" in2="bg"/></filter><mask id="mask-5" x="38.38" y="30.01" width="326.37" height="326.36" maskUnits="userSpaceOnUse"><g class="cls-3"><ellipse class="cls-4" cx="201.56" cy="193.19" rx="163.19" ry="163.18"/></g></mask><radialGradient id="radial-gradient-5" cx="132.76" cy="135.35" r="248.34" gradientUnits="userSpaceOnUse"><stop offset="0.32" stop-color="#32c5ed"/><stop offset="0.9" stop-color="#32c5ed"/><stop offset="1" stop-color="#32c5ed"/></radialGradient><filter id="luminosity-noclip-6" x="51.78" y="44.95" width="250.94" height="265.74" filterUnits="userSpaceOnUse" color-interpolation-filters="sRGB"><feFlood flood-color="#fff" result="bg"/><feBlend in="SourceGraphic" in2="bg"/></filter><mask id="mask-6" x="51.78" y="44.95" width="250.94" height="265.74" maskUnits="userSpaceOnUse"><g class="cls-5"><path class="cls-6" d="M299.74,149.48a195,195,0,0,0,1-61.94,145.91,145.91,0,1,0-186.3,223.15C204.58,307.54,283.41,241.89,299.74,149.48Z"/></g></mask><linearGradient id="linear-gradient-2" x1="65.24" y1="212.98" x2="65.24" y2="-110.67" gradientTransform="translate(112.63 146.22) rotate(10.02)" gradientUnits="userSpaceOnUse"><stop offset="0.32" stop-color="#fff"/><stop offset="1" stop-color="#fff"/></linearGradient></defs><title>planet</title><g id="earth"><circle class="cls-7" cx="55.8" cy="162.44" r="4.52"/><path class="cls-8" d="M364.75,193.18A163.19,163.19,0,1,1,201.56,30,163.18,163.18,0,0,1,364.75,193.18Z"/><path class="cls-9" d="M189.2,122c-1.81.12-8.31-1.68-11.17-1.94s-6.8,3.9-6.8,3.9c2,2.08,7.58-.26,10.44.64s5.71-.39,9.61,2,2.85,2.6,3.63,2.6,6-.78,5.46-1.56-2.85-1-4.42-2.6S191,121.88,189.2,122Z"/><path class="cls-9" d="M205.3,129.16c0,3.11-4.15,1-2.6,4.15,1.1,2.2,5.2,1,7.79,1.3s4.67-.52,7-1.3-1.56-4.15-4.93-4.15S205.3,126,205.3,129.16Z"/><path class="cls-9" d="M311.64,72.72c0,2.07.53,4.2,2.47,5.53,4.16,2.86,5.71,4.68,7,6.75s2.86,6.49,4.42,7.53,3.63,2.86,4.42,3.38a15.21,15.21,0,0,1,3.89,6.23c.52,2.34-1,3.9,1.56,8.57s3.11,7,3.37,11.17.78,7.27,2.34,10.39a15.65,15.65,0,0,1,2.08,9.61c-.26,4.67-.52,5.71,2.6,12.72s3.63,7.53,5.45,13.51,2.85,13.76,7.53,15.06a6.87,6.87,0,0,0,5.62-.61A162.75,162.75,0,0,0,311.64,72.72Z"/><path class="cls-9" d="M313.34,209.4c-5.2-2.6-4.42-7.07-8-7.17s-1,4.78-8,0-5.71-5.81-9.09-7.11-6.23,1-7.79-3.63,0-4.94-3.12-9.09.26-3.63-4.93-6.75-2.34-5.14-8-4.13-11.43,0-12.21-1.84-3-5.45-6.72-6.49-5.74-3.63-12.23-3.12-8.57,1-11.17-.78,3-5.19-3.71-4.67-6.94-.11-10.84-.05-7,.57-7,1.61v1c-2.12,2.86-.56,4.67-3.16,6-1.71.86-2.86-.09-3.45.27-2.48-2.34-8.67-5.35-9.79-4.44,0,0-3.9.79-4.94-1.29s-6.75-1.1-7-5.35-2.34-7.63-4.15-10.23-4.68,0-7.27-1.3-3.12-3.9-2.08-7,5.2-6,2.6-8.83-8.6,1.3-9.37,3.9-2.74,5.71-6.55,4.42-5.23,2.08-7.78-2.6-4.31-15.69-2.9-16.8,4.91-9.94,9.39-11.24,7.31.52,10.18-.26,6.5-2.86,11.44-3.12,8.31,2.34,10.38,2.34.26,8.33,2.34,9.49,2.34,8.2,4.41,3.9A15.68,15.68,0,0,0,184,104c-.78-3.12,0-11.17,3.11-11.95s8-.52,8-2.34,6.52-11.94,6.78-13-2.6-2.6,5.2-3.9,10.65-7.79,17.4-8.31,6.75-1.56,4.67-2.34-10.12-1.3-7-4.15,8.06-4.42,9.35-1.56.52,5.45,4.42,5.45,9.87.52,9.35-1.29S233.87,52.55,230,50.73s-5.19-2.86-6.49-5.71-3.11-6-7.79-4.67-8.05,1-10.13-.3-7.27-2-8.83,1.6-1.3,9.61-2.34,9.61-8.57,1.3-8.83-.78-6-2.6-6.75-6-6.24-5.58-.26-6.69,13.74-1.06,14.79-2,1.06-3,1.31-4.3a3.93,3.93,0,0,1,.79-1.4,162.3,162.3,0,0,0-82.81,26.23c.62,4.37,1.08,9.84-.29,10.75a48.53,48.53,0,0,0-9.83,10.39c-2.13,3.38-5.73,12.73-5.36,14.8s2.66,10.65,3.21,13.5-.26,10.91,1.57,11.69.58-10.13.58-10.13-1.79-7.27.76-6.75,1.73,8,2.54,9.87,4.25,8,6.29,12.72,6.46,14.54,8,15.58,7.71,4.67,10,4.93,5.24-1.3,7.51-1.82,6-.52,7,.78,1.33,5.2,6,5.71,3.86-.78,7,0,3.9,2.6,5.46,5.45,5.45,8.57,7.27,9.61,3.9,1.3,7,3.89a27.3,27.3,0,0,0,6.49,4.16c2.07.84,2.29-4.84,5.92-4.07s2.62,2,3.67,2a1.24,1.24,0,0,0,.82-.43c.34.79.41,1.31-.82,2.53-2.32,2.31-3.88-3.4-4.4,3.35s3.12,4-1,8.63-2.34-.58-4.16,4.61l-1.81,5.19s-1.82,2.34,0,6.75-7.79,4.41-3.9,8.31,3.88,4.42,7.79,11.69a74.44,74.44,0,0,1,6.24,14.28c1.81,5.19,6.83,9.35,10.29,11.43s7.62,1.82,10.74,7,1.82,14.8,1.3,19.21-6.24,11.69-5.72,14.55,2.86,3.37,1.3,7.79-3.89,5.71-4.15,8.31.26,6.75-1.56,10.65-3.12,7.79-2.59,10.13-.26,3.89,1.56,7.79.25,6.75,3.64,9.09,9.61,4.93,10.9,4.15,2.08-4.67,0-6.23-5.19-5.71-3.37-6.75,7.79-2.86,6.75-4.67-6.23-2.08-4.15-3.89,6.49-2.34,8.31-4.42,0-3.9,1.3-5.71,5.46-1,6.75-1.82,8.91-5.45,10.17-6.75-.3-1.82,2.3-4.93,1.3-2.85,4.93-3.89,6.49.78,8.05-2.86-1.81-5.45,5.2-6.75,9.87-2.6,10.39-7.27-3.12-7,2.34-9.35,7.53-1.56,9.09-4.67.78-3.38,2.6-6.49,1.82-4.68,4.42-9.61a91.27,91.27,0,0,1,7-10.91c1.3-1.82,4.42-2.86,6.75-5.19s4.42-.78,7.53-6.49,4.67-8,4.16-10.39S318.53,212,313.34,209.4Z"/><path class="cls-10" d="M194.62,53.07c2.12.78,2.9.78,4.45,0s5.79-3.47,3.28-4.46-4.39-1.26-4.23-2.55-2-2.49-2-2.49c-.69,3.94-3.81,3-2.76,5.35S192.5,52.29,194.62,53.07Z"/><path class="cls-10" d="M121.16,71.76c-.52-1,3.38-10.13-1-6.49S106.68,77.74,105.88,79s-2,1.3-2.6,3.9.45,1-2,4.93S98,95.25,98.42,97.65c.89,5-.41,3.72,0,7.36s2.56,2.86,1.87,6.75-3.2,7.51-.91,8.3,3.81,3.36,4.6,0a22,22,0,0,0-.37-9.79c-.66-3.13-1.3-3.24-1.38-5.71s.11-4.76,1.64-3.38.72,2.86,1.35,6.5,1.09,4.06,2.1,7.35,4.2,6.88,4.63,5c.14-.61-.72-4.15-1.48-8.3s-2.56-4.15-1-8.83,3.67-7.79,2.48-8.83-5.52-2.08-3.75-4.42,4.38-3.12,5-6,4.55-3.64,5.84-6.75S121.68,72.8,121.16,71.76Z"/><path class="cls-10" d="M129.56,97.23c-.77-.78-6.23,0-6.23,0-2.6,3.9-8.31,3.64-5.71,7.27s3.48,1.82,3.69,5.71,5,7.79,5.35,3.9.31-6.75,2.39-6.23.33,3.23,3.23,2.34,4.36-.67,4.24-1.82,0-.52-2.58-3.38S130.34,98,129.56,97.23Z"/><path class="cls-10" d="M225,249.57c-3.12-1.21-6-3.29-7.28-5.88s.78-5.45-5.45-4.41-.81,5.45-7.54-2.08-2.84-7-7.25-10.13-3.67-2.08-4.17-5.71-5.7-6.75-5.7-8.57,5.71-.52,2.59-6.49-2.85-4.16-3.12-6-1.3-6-1.3-6c-4.46,4-8.83,5.4-5.19,7.89l3.63,2.5s-2.77-.06-2.86,3.63-2.13-.45,1.14,5.62,3.53,6.3,5.1,9.57,4.64,2.83,5.69,9,2.39,8.15,4.48,9.88.6,1.67,4.53,3.37,5.07-1.28,10.24,6.24,6.85,7.27,5.62,11.16-5.42,13.52-6.38,15.35-4.72-.1-2.39,4.74,3.9,4.32,3.12,7.69-.78,2.08-3.12,7.79-3.11,6-2.59,8.83,1.56,2.6-.52,7.27-3.9,7.79-2.6,11.95-2.08,3,.52,8.24,5.42,11.13,6.5,9.55,8.69,3.95,7.85-1.21-8.63-5.68-7.07-9.31,2.86.26,4.16-5.46-6.24-7-2.86-9.34,6.73-2.08,5.83-4.42,1.7-9.87,1.7-9.87,1-3.9,0-6.75-.9-7.27.46-7.79,4,2.34,5,.78,3.11.26,1.3-4.42-3.9-9.09-2.08-10.65a7.8,7.8,0,0,0,2.8-6.16c.06-2.67,2.65-12.28,2.4-13.84S228.15,250.78,225,249.57Z"/><path class="cls-10" d="M286.71,253.13c-1.17,2.74-.72,1.33-1.5,6.43s-1.81,1.39-7,.35-3.63.26-6,3.63a12.89,12.89,0,0,0,5.2,2.93c3.12.85,3.12.71,8,0s2.34-4,3.11-6.82,2.75-3.89,3.27-6.22-.67-3.13-1.45-4.42S287.89,250.39,286.71,253.13Z"/><path class="cls-10" d="M285,195.56s.75-.78-1.06-3.12-3-5.77-5.54-6,.13,3.17,1.61,6.31A5.17,5.17,0,0,0,285,195.56Z"/><path class="cls-10" d="M211.61,157.21c1.64-.26,1.22-1,2.26-2.65s1.82-1.77-1.3-3.06-1.56,0-4.14,3.06h-1.06S210,157.46,211.61,157.21Z"/><path class="cls-10" d="M351,146.56c-3.11-4.93-2.85-4.93-2.85-8.83s-4.16-7.27-2.34-8.57,3.89-.46,2.85-3.87-3.84-1.77-2.12-7.1a163.12,163.12,0,0,0-14.9-23.57c.69,1.8.49,3.77.92,4.58.79,1.47-1.52,3.38,0,5.8s.48.52,2.86,5.71,2.07,1.15,1.56,7.33-2.34,7.88.36,9.72,3,3.62,3,6.92-1.56,3.55,0,6.41-.73,1,2.75,5.17,3.74,4.22,5.56,4.72S354.11,151.49,351,146.56Z"/><path class="cls-7" d="M94.41,120.06c-2.34.51-6,7.71-6,7.71v-7.71a67,67,0,0,1-3.38,11.17c-1.36,3.52,2.07,8.31,2.59,12.47,0,0,1,3.9.26,3.9s-6.24-.26-6.24-.26c1.3,2.08.26,1,3.17,2.6s2.55.52,6.44,1.06,12.93-13.26,12.93-13.26c1,1.82,2.13.26,2.13,5.45s-1,3.9-2.13,6.75-.73,2.86-5.92,5.71-4.16,7.53-4.16,7.53c2.6-.26,3.38-1,7-4.17s6.75-3.88,7.79-4.9a9.76,9.76,0,0,0,2.59-5.47c.26-2.34,4.16-8.83,6.35-8.05s2.41,5.53,7.67,6.27c-3.32-1.62-3.19-5.16-3.32-6.77-.2-2.58-3.59-3.24-4.35-5.38s-1.37-6.39-2.23-8.26a81.13,81.13,0,0,0-3.87-7.72c-1.83-3.13-7.8,1.34-9.85,1.34S96.75,119.55,94.41,120.06Z"/><path class="cls-7" d="M139.89,182c-3.58-3.11-7.3-4.5-9.37-7.62s-5.07-8.57-6.56-6.49-2.27,4.67-3.31,4.67-3.66-8.05-2.74-9.35,3.26-12,3.26-12c-2.08,3.4-2.86,2.6-4.94,7.81s-.78,5.21-2.34,7.8-3.83,1-3.61,4.67-3.38,2.34,0,6.49,5.05,3.56,4.73,6.2.59.27,0,4.57,5,2.71,7.26,0,2.07-2.32,5.43-2.71c10.61-1.24,4-2.93,4.1-3.94S133.95,180.2,139.89,182Z"/><path class="cls-7" d="M142.59,158.46a11.35,11.35,0,0,1,5.32,2.6c2.08,2,3.38,0,8.31,2.12s2.59,0,5.71,0,2.34,1.3,5.45,2.08,3.91-1.3,1.56-2.08-1-2-5.45-2.86-2.6-1.82-4.16-2.8-2.08-1.1-3.89-.3S144.08,156.7,142.59,158.46Z"/><path class="cls-7" d="M136.64,164c4.25.24,9.19,5.68,10.34,5.95s-.11,1.3,0,3.11,4,1,7.16,1.82,2.6-.26,4.51-1.3,2.51-.78,6.92-.52,1.56,4.42,1,5.46.25,5.19-2.86,6.52,0,3.86,0,6.38v2.93c0,.26.26,2.86,6.55,0s6.69-2.6,8-2.93,1.56,4,1,6.31,1.35,4.52,0,4.52-.68,2.55,0,8.47,2.13,1.82,4.46,1.56-.78-2.34.52-7.53,4.67.26,6.75,6.23,1.56,3.38,2.32,5.46,2.61,2.34,3.94,3.11,1.27,1.56,3.13,2.86,2-2.08,0-3.64-.82-1.82-1.86-2.86-1-3.63,3.81-4.41,4,2.59,7.93,4.67,2,1.3,2.81,2.86,3.64.26,7,0,5.71-3.9,2.85-3.12-3.89,0-8.17-2.08-.66-1.56-1.7-4.42.52-7.17.52-7.17,7-9.45,7.53-12-2.6-2.86-6.35-2.6-5.85,2.6-7,5.72-4.52,2.33-7.34,2.33H198c-1,0-3.64,0-4.69-2.33s-1.8-2.61-2.06-4.57,1-4.27,3.12-6.61,4.08-7.11,4.08-8.67-1-3.11-1.82-4.67-1-1.79-5.19-3.92-1.56.28-3.39,0-2.77,6.07-4.85,8.67-1.3-.26-3.95-2.26-3.59-.86-9-1.9c0,0-7.08.52-11.66.52s-.87.78-2.95,1.38a5,5,0,0,1-5.2-1.9c-.78-1.3-.78-2.86-1.81-4S137.45,162.53,136.64,164Z"/><path class="cls-7" d="M158.65,181.61c-1.39.78.69,1.95-3.73,1.88s-6.26-.71-7.94,0-1.93,1.52-1.93,1.52l-2.47,5.58c5.27-4.59,8.44.6,11.81-1.86s4.15-2,5.45-4.57c0,0,4.22-3,1.82-5.42S160,180.84,158.65,181.61Z"/><path class="cls-7" d="M328.66,254.33c-.78-1.3-4.67-2.86-7.53-5.2s-2.85-2.85-6.49-4.15-3.64-.78-6.49-2.34c-2.6-1.42-1.55-2.62-4.41-6.38-.29-.37,0-2.3-1.93-4.48,0,0-.15,9.56-2.23,12.68s-3.12,1.56-5.19,4.67-3.67,2.64-5.49,7.31-1.26,3.34-4.91,7-5.78,9.83-5.33,10.09c2.76-5,6.38-4.9,10-6.72s2.33-3.63,7-3.9,3.38-1.3,3.89-3.64,1.3-1.81,3.19-3.37,1.48-1.56,3-3.28,5.19,1.46,5.83,1.72,9,2.59,11.3,3.9a27.18,27.18,0,0,1,5.72,4.42c1.3,1.29,1.81,6,2.34,9.61,2-2.26,2.34-3.63,2.34-6.49a16.17,16.17,0,0,0-1.82-7C330.74,257.19,329.44,255.63,328.66,254.33Z"/><path class="cls-7" d="M289.18,222.68c-2.08.23-4.62-.55-4,1s.94,3.64,2,4.42,1.79,2.08,3.09,0-.52.52,1.3-2.08S289.18,222.68,289.18,222.68Z"/><path class="cls-7" d="M298.94,309.38c-3.49-2.08-.92-2.34-.92-3.89s2.08-4.15,0-4.68-3.38-.78-4.7-1.81,0-2.77,0-2.77-2.08-7.46-2.85-7.46c0,5.27-.4,6.2-1.93,7.11-.46.27-7.14.78-7.53-1.56s-1.42-1.56,0-6-5.06.78-7.28-1.3-.37-2.34,0-6-4.24-.78-6.32-.52-2.34,1-7.53,0-4.91,1.36-12.19.84c0,0,11.15,2.79,12.71,4.09s.78,3.38.26,4.42-4.23,4.87-4.93,6.3,3.89,4.61,7.53,1.24a3.69,3.69,0,0,1,4.6-.58,5.87,5.87,0,0,0-2.26,1.35c-1.65,1.63-1,2.08-1,4.93s.52,2.08,1.82,4.49.26,2.79-1.3,2.79-3.89-.78-4.67-1.82a15.89,15.89,0,0,0-3.63-3.11c-1.82-1.3-4.94-.26-6,0s-9.85-1.5-9.85-1.5,4.32,3.14,4.92,8a18.62,18.62,0,0,1,.23,2.62c-1.59-.17-2.34-2.33-2.53-3.4-.22-1.3-2.63-1-4.45-2.6s-4.93,0-4.93,0,2.85,3.12,4.93,5.84l.46.6c-2.8,3.17-5.4,3.5-3.06,5.16s2.6-1.2,8.31,1.91l1.16.65c-.91-.39-4.54,0-5.31.32-1.26.53-.33,3.4-5.07-.45-4.11-3.34-6-4.28-9-4,0,0,4,2.73,3.87,4.8L194.1,318a5.17,5.17,0,0,0-4.06-.61l-5.19-.78c-1.63-.62-3.66-1.39-5.57-2.13-3.69-1.43-5.14-1.94-6.44-2s-9.35-3.58-10.39-4.53-6.24-1.65-8-2.42-8.86-5.1-8.86-5.1c0,3.61,5.22,6.61,5.22,6.61s3.63,1.61,9.86,4.2c3.28,1.37,3.68,1.94,3.82,2.31l-19.84-4.35c.75.36,3.11,1.52,4.08,3.28,2.29,4.17,3.38,1.87,9.09,3.17s4.93,3.12,10.65,2.71,5.71,2,9.61,5.22,3.64,1.94,9.35,3.49,6.75,1,11.43,4.67,2.34,2.08,10.39,3.35,7.19,1.89,10.13,2.11,7.27,1.56,10.89,1.82,6.51-.52,12-2.6,7-1,7.82-1.33a61.42,61.42,0,0,1,10.58-4.13c5.19-1.3,12.29-.71,12.29-.71L263,328.29a41.63,41.63,0,0,1,7.77-1,34.42,34.42,0,0,0,6-.77,8.1,8.1,0,0,0,1-.27c1,1,4.42.78,5.2,1.3s1.56,1.81,4.15,0,4.88-2.08,6.21-3.38,3.29-3.56-1.33-4-5.94-2.54-8-2.39-5.74-1.71-7.8,0-2.6,3.63-8.43,2.67c-2.32-.38-5.2-.88-7.83-1.35,2-.6.75-.53,2.52-1.32a4.2,4.2,0,0,0,2.11-2.07c.53.11.9.45,1.53,1.16,1.82,2,6.49,0,8.57,0s4.19-2.84,7-2.06,2.31,2.08,5.42,1.56a67.5,67.5,0,0,0,7-1.7,9.32,9.32,0,0,1-5.57-2.64c-1.16-1-3.5-.6-7.53-.08-2.62.34-3.05-.41-3.2-1.48a3.15,3.15,0,0,0,1.78-.59c.78-1,1.81-4.93,4.4-5.19s4.17,2.6,8,4.16,8.89,7.53,11,4.93S302.43,311.46,298.94,309.38Z"/><path class="cls-7" d="M144,295s-5.71.26-6,2.86-1.3,4.33,0,6.32c.46.71-3.52.85-.64,2.85s11.42,1.5,11.42,1.5c-2-1-6.37-2.46-6.37-5.26C142.43,299.39,140.88,297.32,144,295Z"/><path class="cls-7" d="M193.34,344.58c3.39-.14,7.29-.91,9.11-2.22s1.82-1.2,0-3.33-2.08-3.48-4.16-4-2.08-2.57-10.13-3.87-2.7.83-8.88-2.7-7.48-3.76-8.26-4.95-1.3-2.12-6.23-3.08-4.94-.13-8.83-1.59c-3.72-1.39-4.37.45-9.17-2.79a2.92,2.92,0,0,0,.6-1.65c0-2-2.35-.44-6.54-1-3.92-.51,1.1-2.37-5.82-3.62-1.89-.34-6.34-5.85-6.34-5.85s5.21,8.24,6.5,10.06,2.59,1.61,3.89,4.83,3.64,6.08,6,6.34,7.53.25,9.08,1.81,1.82,1,3.9,3.89,6.49,4.13,6.49,4.13a22.48,22.48,0,0,1-6.23-1.27c-2.34-1-5.25-4.84-8.73-4.5s-4-.6-7.37,0-6.08.34-7.59-2.26-.72-1.25-4.88-8.16a63.86,63.86,0,0,0-11.17-13.4c-2.34-2.34-1.81-4.15-6-6.75s-1,1.3-4.16-2.6-7.53-3.9-7.79-7.27-1.82-4.42-5.46-8.31-10.65-6.75-11.43-7.79-2.08-2.34-6.49-4.68-12.21-3.9-14-5.45-4.16-2.6-7.53-5.19a39.6,39.6,0,0,0-5.54-3.24,161.52,161.52,0,0,0,7,15c1.8.39,3.44.6,4.56,1.36,2.08,1.42,8.57,1.94,9.61,4.54s.26,3.64,3.11,7.27,2.34,4.91,6.76,7.65,4.93,6.89,9.61,8.71,7.79,3.12,10.13,4.16,6.75,1.29,7.92,3.12,1.17,4.83,3.51,6.44,6.23,1.31,7.27,5.36,4.54,6.38,4.34,7.94-1,.09,2.15,3.55,4.67,3.14,6.49,5.77,2.58,2.62,6.48,5.22a26.94,26.94,0,0,0,9.62,4.29c2.85.64,9.35,2,13,1s5.46-4.56,8.31-5.34,4-.17,9.3-1.25a70,70,0,0,1,8.05-1.09c3.06-.25,5.58-.27,6,0,0,0-2.34,2.6-10.77,3.11s-10.51.26-12.07,2.08-.78-.11-3.38,2.8c-2.27,2.55-3.55,4.85-5.92,5.39q5.56,1.41,11.26,2.44c3.91-1.62,7.64-3.4,12.32-5.18C190.24,346.52,190,344.73,193.34,344.58Z"/><path class="cls-7" d="M108.83,320.47c-1.43-2.78-.13-1.58-4-8s-.78-6.7-5.45-7.74-4.41-1.81-8-3.11-4.93-.16-8.57-5.4-2.08-5.51-6.23-8.1C73,285.92,69,285.2,65.94,284A164.06,164.06,0,0,0,112.67,330c-.12-.24-.23-.5-.33-.75C110.25,324.19,110.25,323.26,108.83,320.47Z"/><path class="cls-7" d="M257,336.92c-1.3,1.56-3.38,1.3-8.31,2.12s-6.23.73-10.38,3.59-6.76,1-9.87,3-4.16-.66-11.35-1-4.49,1.68-7.35,2.2a113.16,113.16,0,0,1-15.06,2.08c-7.53.52-2.86,1.3-7.27,3.9-1.59.93-3,1.79-4.32,2.57a165.26,165.26,0,0,0,45.35-1.16c.8-.57,1.84-1.39,3.38-2.71,5.71-4.94,1.81-2.08,9.35-4.68s2.08-.52,7.53-2.2,4.94-3.52,7-5.55,1.81-.57,5.19-1.86,1.3-2.86,4.34-2.11S272.3,332,272.3,332s-5.45,0-8.57,1.56Z"/><path class="cls-7" d="M177.26,231.22c1.3,2.59,2.08,2.59,5.32,2.34s6.63-.78,8.81-1.15-1.41-3.8-5.57-3.18-4.93-2.42-6.54-4.76-4.36-4.93-5.66-7.27-1.82-2.86-8.31-4.28-4.93-.91-8.05-.13-4.67-2.08-7.53-3.64-3.23,5.36-11.46,2.66c0,0,5.23,5.65,6.79,7.47s7,2.6,9.61,2,5.45.64,8,0,7.27,3.23,9.61,4.72A11.7,11.7,0,0,1,177.26,231.22Z"/><path class="cls-7" d="M185.82,268.61c-.53,2.34,3.38,3.12,10.91,3.38s6.49.52,8,1,1.06,9,1.83,13.72c1.15-5.35,3.12-5.15,5.24-8.23s2-4.45,2-4.46,6.25-9,6.26-10.33c0-5.87-4.11-7.12-5.35-8.7s-.13-4.6-1.56-8.23-7.73-.34-8.46-1.81-4.4-2.34-8.3-6.55-2-1.09-10.65-1.76-1.55,1.56-6.54,3.64a11.56,11.56,0,0,0-1.25,3.37c0,1,3.64,2.34,7.79,3.38s4.94,3.38,6.22,5.12-1.29,5.27-2.06,7.4S186.35,266.28,185.82,268.61Z"/><path class="cls-7" d="M60.13,144.22c1.82-.78,3.9-.26,6.24,0s3.7,4.11,7.27,5.45c0,0-4.24-5.39-7-8.75-2.54-3.07-6.75-.34-8.31,0s-5.2,4.85-5.46,6.67a23.11,23.11,0,0,0,0,8.56c.78,3.63,5.19,2.08,6-5S57,148.37,57,148.37,58.32,145,60.13,144.22Z"/><path class="cls-7" d="M115.71,59c-1,4.42-3,6.14.72,6.19s4.85.15,5.83-1.2,7.35-8.45,8.45-9.06,9.59,2,9.11,4.07-.8,5.81,1,5,.34-7.06,6.81-5.76,2.83,4,5.16,5.76,3.82,2.19,5.81,1.2,5.45-1.25,4.24-4.37.61-2.39-2.51-5-8.59-4.39-8.59-4.39-2.5-2.86-1.24-3.89,7.41-2.86,8.1-1.56,7.17,3.43,7.17,3.43-8.56-4.07-1.8-3.88,14.19,5.12,14.75,5.12,1.36.78,3,.26,4.2-1.62,5.31-1.3c3.54,1,2.55-1.08,6.37-2.38a41.07,41.07,0,0,1-9.75-1.72,11.22,11.22,0,0,0,3.12,0,5.91,5.91,0,0,0,2.86-2l2.55-2.45s-2.56,2.09-5.16,1.31-6.22.52-9.34,0-17,.27-19.13-.26-6.41-1.29-9.22,0-3.73-.31-5.48,1.4.26,2.23-3.08,1.71l-3.34-.52s12.55-5.88,13.85-6.89a162.42,162.42,0,0,0-37.13,17.44,1.57,1.57,0,0,1,.35.59C115.71,59,116.75,54.63,115.71,59Z"/><path class="cls-7" d="M53.64,140.77c14.54-5.12,19.48-4.6,20-4.6s3.12.42,4.42-1.48c.46-.67-1.29-1.73-3.73-2.83,2.53-1,5.91-2.52,7.37-4.09,2.34-2.51,2.85-.7,3.12-3.16s4.42-6.83,0-5.94-4.42,1.64-5.71,3.08-1.82,3.07-4.16,4.33-2.59,3.17-4.93,1.7-2.08-.89-3.38-2.48a12.69,12.69,0,0,1-2.34-5.23,13.92,13.92,0,0,1,0-4,8.51,8.51,0,0,1,3.63-4.79,13.94,13.94,0,0,1,3.64-1.56c.78-.26,4.16-.07,4.67,2.08S76,116.13,78.83,115s3.77,1.25,4.94,0c3.59-3.82,6.53-2.34,6.53-2.34s-2.37-2.92-4.71-3.09a11.11,11.11,0,0,1-3.89-1,12.91,12.91,0,0,1,0-3.36c.26-1.56,3.38-6.06,3.38-6.06s2.86-1.13,3.12,0,1,3.2,0,4-1.56,0-1.56,2.08,2.86,3.08,3.63,3.36,5.47-6.45,6.87-6.48,2.22-1.43,2.48-3.44,2.45-2.79,0-4.61-4.42,3.11-5.46,2.34-.78-1.78-1-3.36-.26-2.88-2.86-3.14a47.49,47.49,0,0,0-5.66-.29,13,13,0,0,0,1.77-2.57c2.6-4.67,1.56-6,1.56-8.83,0-.88-.12-1.51-.15-2A164,164,0,0,0,72.4,93.45q-2.16,2.79-4.2,5.68a162.35,162.35,0,0,0-12.28,20.39q-2.67,5.27-5,10.76a162.37,162.37,0,0,0-7,20.31c2.83-1.24,6.11-4.66,6.73-4.85C49.78,145.77,40.07,145.55,53.64,140.77Z"/><path class="cls-7" d="M156.48,37.81l4.67.5s6.47-3.68,8.81-2.25,8.85,1.77,11.84,2.25a26.6,26.6,0,0,0,7.92,0c1.81-.3,8.3,3.85,1.81-.3s-4.42-3.61-7.8-6.22l-.91-.72a162.44,162.44,0,0,0-30.15,6.38A18.4,18.4,0,0,1,156.48,37.81Z"/><path class="cls-7" d="M91.56,72.8a52.76,52.76,0,0,1,8.58-3.49c2.85-.93,3-2.06,3.59-4.09a20.11,20.11,0,0,1,1.51-3.77A164.56,164.56,0,0,0,91.22,73Z"/><path class="cls-7" d="M76.76,169.44c0,1.33-.78,4.13-.52,5.17s4.16,1.82,7,1.56,3.38-1.82,5.86-2.6.38-2.86,0-5.45-1.18-3.38-.4-7.05.52-3.6-1.56-3-4.16-.59-8-3.52-2.86-2.26-5.46-2.16-2.08,4.32-2.08,4.32l0,2.32a34.53,34.53,0,0,1,5.24,5.21C80.13,168.13,76.76,168.11,76.76,169.44Z"/><path class="cls-7" d="M44.55,191.41c1.56-2.68,2.34-2,2.9-2.66s5.67-1.94,6.71-3.72-1.3-.55-3.63-2.89.78-1.82,1.92-3.37,1.45-1,2.75-2.55,5.45-6.8,6.23-9.14-4.15,4.23-4.15,4.23-4.16,1.48-4.83,2.26a54.05,54.05,0,0,1-5.77,5.2c-1.51,1-4.2,3.9-5.33,4.54s.09-1.68,0-4.54c-.06-1.87-1.33-.52-2.43,1.07q-.54,6.6-.54,13.35a163.7,163.7,0,0,0,2.93,30.95c.52-.45,1.26-.8,2.2-1.45,1.82-1.27,3.9-1.59,3.94-2.63s-2.9-4.41-4.2-5.71-.77-2.34-1.9-5.54-1-2.25,0-3.81a5.19,5.19,0,0,0,0-4.42c-.35-.78,1.13-2.07,1.13-4.15S43,194.08,44.55,191.41Z"/><path class="cls-7" d="M204.77,83.45c-3.36,1-2.77-.56-4.36,1.8s-2.28,7-2.28,7c6.4-1.82,12-6.54,13-7s.45-1.79,1.75-4.39.27-3.64,2-5.46-2.08-.26-3.71,2.34S208.12,82.4,204.77,83.45Z"/><path class="cls-7" d="M220.63,64.42c-1.56,1-2.78,2.76-5.84,2.67s-4.5,7.52-4.5,7.52a51.42,51.42,0,0,1,4.5-2.85,14.93,14.93,0,0,0,4.8-4.67c1.3-1.82,3.38,0,5.82-1.86s1.49-1,0-.81S222.18,63.45,220.63,64.42Z"/><path class="cls-7" d="M212.66,175.52c-1.49.16-3.23-1-4.78,0s-2.78,2.76-5.84,2.67-4.5,7.52-4.5,7.52a51.42,51.42,0,0,1,4.5-2.85,14.91,14.91,0,0,0,4.8-4.67c1.3-1.82,3.37,0,5.82-1.86S214.14,175.36,212.66,175.52Z"/><path class="cls-7" d="M184.53,113.91a96.93,96.93,0,0,0,8.6-5.28c2.57-1.8,5.69-1.1,3.87-4.57s-2.08-5-1.82-6.58a35.19,35.19,0,0,0,.26-4.39c-1.07,4.07-4.94,5-4.94,6.13s-1.81,4.24-1.81,4.24a5.62,5.62,0,0,0-4.28,2.82c-1.44,2.64-3,4.14-1.84,5.24S179.07,117.1,184.53,113.91Z"/><path class="cls-7" d="M173.88,106.31c-4.67,1.3-4.67.75-7.53,2.32s-7.61,1-7.7,3.13-.61,2.57-1.13,4.27-2.32,5.71-2.32,5.71,5.18,2.72,6.48-1.68-2.32-5.71,2.87-7.26a48.46,48.46,0,0,0,6.69-2.34c1.35-.52.83-.81,2.65-1.83S173.88,106.31,173.88,106.31Z"/><path class="cls-7" d="M171.23,120.06c.83-1.29.83-1.91,2.13-4a4.34,4.34,0,0,0,0-4.27c-3.63,2.15-3.89,1.36-6.23,3.28s-1.52,2.49-2.19,3.63-4.26,4,0,3.08S170.4,121.35,171.23,120.06Z"/><path class="cls-7" d="M170.31,129.16c-2.4,1.82-2.94,4.32-3.83,5.53s-2.22,1.48,0,3.3a3.59,3.59,0,0,0,4.76-.52c3.43-3.64,3.48-5.46,3.46-6.24S170.31,129.16,170.31,129.16Z"/><path class="cls-7" d="M171.24,145.88c3.39,4.65,5.26,7.06,6.27,3.68s2.31-2.85,1.79-4.93-4.61-3.56-4.61-3.56S167.84,141.23,171.24,145.88Z"/><path class="cls-7" d="M335.41,134.69c3.11,1.48,6.36,1.48,6.42,3.3s-1.26,5.12,0,6.7,4.23,5.4,5.26,0,1-8.76-.12-10.92-.4-7.66-1.44-8.48.52-3.31-2.86-2.72c-8.34,1.45-9.69-5.44-9.69-5.44-1.37,5,1.11,7.69,1.11,10.64S332.3,133.22,335.41,134.69Z"/><path class="cls-7" d="M194.52,32.42c8.19,1.43,9.49.35,11,1.67s4.67,3,3.12,3.72-4.86-.32-6.33,1.24-3.73,4.36,0,4.51,18.73-2.65,18.14-2.71-5.44-5.19-1.88-4.8,11.36,1,12.14,1.75a40,40,0,0,0,7.6,3.57c1.74.52-.33.74-4.23,2.19s-7.18,3.66-7.23,5.54-5.64,1.88-8.69,1.1-7.14-1.6-7.14-1.6-.6.31-5.78,2.09-8.25,4.14-12.18,5.2-11.71,1.58-11.32,5-3.51,4.2-3,8.46,7.53,11,9.61,8.68,2.6-5.15,3.12-8.68-1-4.47,2.85-5.29,13.12-8.36,16.69-5.76l3.57,2.6s-10.48,2,.13,3.17,12.76-7.26,13.89-8.13,9.68.29,9.68,1.32-1.28,3,.62,4.72-1.22,1.64-3.56,3.91-5.19.45-2.59,4.61.93,10.39,5.53,10.39,9.79,3.89,9.54-2.08-2.58-9.31,0-9.46,1,.88,6,2.71c2.41.89,3.89,1.59,4.86,2-1.32,4.3,1.85,8.31,10.46,12.5,10.12,4.94,8.28-5.71,8.28-5.71s5.22,7,6.52,12.22,2.86,3.87,2.08,6.13-.34,7.67-.34,7.67c3-.52,0-8,2.9-10.83s-.23-1.42-1.52-5.58-4.67-9.35-7.27-13.91c-2.08-3.66-2-8-6.09-10.79,8.56-5.12,6.16-.42,7.58,3.56.22,1.77,6.5.35,10.65,4.5s.26-3.63,1.61-5.29-1.87-2.75-3.53-4.9-9.69-1.73-11.25-3.54S277.47,57,277.47,57s-1.1-.68-8.57-1c-.26-.48-.44-.84-.56-1.08l.33-1.26c1.21-4.6,1.58-7,1.52-8.56A162.64,162.64,0,0,0,201.56,30q-6.12,0-12.14.45C189.7,31.19,190.73,31.76,194.52,32.42Z"/><path class="cls-7" d="M150.55,71a12.43,12.43,0,0,0-7.4,0c-1.21,1-4.16,3.17-2,4.83S145.89,77,145.86,79s-.32,4.06,1.78,3.07,2.18-.21,2.91-2.81,1.31-2.36.89-4.68S154.23,72.28,150.55,71Z"/><path class="cls-7" d="M344.76,164.22c-1.3,1.55,9.11,7.6.93,7.47-2.37,0-6.13,1.87-6.13,1.87s6.72.36,8.29,2.65,0,5.6,3.13,3.58,4.16-3.63,4.16-6.23,1.3-2.34-1.3-3.9-3.38-2.08-4.93-2.34S344.76,164.22,344.76,164.22Z"/><path class="cls-7" d="M348.92,195.9c-.18,1.29,1.3,3.9,1.3,3.9a18.32,18.32,0,0,1,3.38,2.44c.78.94,2.6,3,3.12,0s1-7.63,1-7.89-3-7-3-7C353.33,193.31,349.61,190.87,348.92,195.9Z"/><path class="cls-7" d="M347.74,219.86c-3.64-1.07-2.08-2.63-5.72-2.89-2-.15-7.21-4.29-8.69-5.17,1.07,1.86,4,4,5.05,4.91,3.89,3.63,3.87,4,4.79,6.42s1.18,4.75,2.22,6.3,1,3.94,3.38,3.92,3.64-.58,3.64-2.51,2.08-6.49,0-7.71S351.37,220.93,347.74,219.86Z"/><path class="cls-7" d="M333.59,225.95c-3.39-1.63-2.85-3.27-2.85-3.27l-3.64-2.89a65.1,65.1,0,0,0-14-6.64s6.68,6.38,7.2,8.08,1,2.2,1.3,3.44a4.87,4.87,0,0,0,2.64,2.91,34.83,34.83,0,0,0,6.7,3.11c3.38,1,3.38,2.08,5.45,3s2.85-.37,3.11-1.15a4.77,4.77,0,0,0,0-3.29C339,228.27,337,227.58,333.59,225.95Z"/><path class="cls-7" d="M232.88,136.89c.82.47,1,1.35,2.81,2.65s2.08.26,2.67,0,.71-1,0-2.08-2.93-1-6.56-2.78c-.51-.25-.94-.44-1.29-.59a8.24,8.24,0,0,0-6.26-.19S232.05,136.43,232.88,136.89Z"/><path class="cls-7" d="M156.48,258c.26-2.6-1.82-2.34-1.82-2.34l-3.89.52c-3.9.52-7.91,1.84-14.13-1.94l4.25,4s3.63,1,6,1.45,1.82,2.18,6.49,3.48.52.26,1.81-1.78S156.22,260.56,156.48,258Z"/><path class="cls-7" d="M166.2,268.71c-.7-.78-2.83-3.66-8.76-2.78,3.3-.1,6,4.31,1.08,4.05l-5.58-.85s-1.66,0-4.24-.26a9.68,9.68,0,0,1-3.65-.78c-7.6-2.27-11.24-.39-11.24-.39s7.32,1,8.67,2.86c3.09,4.29,4.91,1.16,9.06,1.68s.52,1.3,1.82,2.6.52,3.38,1,4.67,3.48,3.45,7.9.07.15-4.23.67-5.79A30.15,30.15,0,0,1,166.2,268.71Z"/><path class="cls-7" d="M166.47,268.87c.64-1.2.35-1-.27-.16C166.34,268.87,166.43,269,166.47,268.87Z"/><path class="cls-7" d="M213.2,183.5c3.47.47,11-3.18,11-3.18a37.89,37.89,0,0,1-10.1.1,6.22,6.22,0,0,0-6.4,3.08C210.06,182.34,209.73,183,213.2,183.5Z"/><path class="cls-7" d="M242,221.06a3.83,3.83,0,0,1,.41.23C242.44,221.14,242.28,221.07,242,221.06Z"/><path class="cls-7" d="M227.69,227.32c2-.82,4.9-3.68,5.92-4.35a30.31,30.31,0,0,1,8.36-1.91c-2-1.08-5.65-1.09-7.75-1.09s-6.74,2.65-9,4.49-8.37,1.49-8.37,1.49S225.65,228.13,227.69,227.32Z"/><path class="cls-7" d="M255.85,222.68a13.2,13.2,0,0,1-6.94,2,59.28,59.28,0,0,0-10,1.29,25.49,25.49,0,0,0,8.47,2.39C252.59,229,255.85,222.68,255.85,222.68Z"/><path class="cls-7" d="M296.4,94.63C301,97.51,305,106.31,305,106.31v.57s2.68-9.76,0-12.25-9.43-3.55-11-8.38C294,86.25,291.84,91.75,296.4,94.63Z"/><g class="cls-11"><circle class="cls-12" cx="201.56" cy="193.18" r="163.19"/></g><g class="cls-13"><ellipse class="cls-14" cx="201.56" cy="193.19" rx="163.19" ry="163.18"/></g><g class="cls-15"><path class="cls-16" d="M299.74,149.48a195,195,0,0,0,1-61.94,145.91,145.91,0,1,0-186.3,223.15C204.58,307.54,283.41,241.89,299.74,149.48Z"/></g></g></svg>