<svg xmlns="http://www.w3.org/2000/svg" xmlns:xlink="http://www.w3.org/1999/xlink" viewBox="0 0 400 400"><defs><style>.cls-1,.cls-3{mask:url(#mask);}.cls-1{filter:url(#luminosity-noclip-5);}.cls-2,.cls-4,.cls-6,.cls-8{mix-blend-mode:multiply;}.cls-2{fill:url(#radial-gradient);}.cls-3{filter:url(#luminosity-noclip-6);}.cls-4{fill:url(#radial-gradient-2);}.cls-5{mask:url(#mask-3);filter:url(#luminosity-noclip-7);}.cls-6{fill:url(#radial-gradient-3);}.cls-7{mask:url(#mask-4);filter:url(#luminosity-noclip-8);}.cls-8{fill:url(#linear-gradient);}.cls-9{fill:url(#radial-gradient-4);}.cls-10{fill:#88aeb7;}.cls-11{fill:#dbc2ad;}.cls-12{fill:#e59a55;}.cls-13{fill:#a34d13;}.cls-14{fill:#bac6bf;}.cls-15{fill:#f0efec;}.cls-16{mask:url(#mask-5);}.cls-17{fill:url(#radial-gradient-5);}.cls-18{mask:url(#mask-6);}.cls-19{fill:url(#radial-gradient-6);}.cls-20{mask:url(#mask-7);}.cls-21{fill:url(#radial-gradient-7);}.cls-22{mask:url(#mask-8);}.cls-23{fill:url(#linear-gradient-2);}.cls-24{filter:url(#luminosity-noclip-4);}.cls-25{filter:url(#luminosity-noclip-3);}.cls-26{filter:url(#luminosity-noclip);}</style><filter id="luminosity-noclip" x="33.38" y="-8601.75" width="335.95" height="32766" filterUnits="userSpaceOnUse" color-interpolation-filters="sRGB"><feFlood flood-color="#fff" result="bg"/><feBlend in="SourceGraphic" in2="bg"/></filter><mask id="mask" x="33.38" y="-8601.75" width="335.95" height="32766" maskUnits="userSpaceOnUse"><g class="cls-26"/></mask><radialGradient id="radial-gradient" cx="201.36" cy="193.77" r="167.98" gradientUnits="userSpaceOnUse"><stop offset="0.32"/><stop offset="0.61" stop-color="#020202"/><stop offset="0.72" stop-color="#090909"/><stop offset="0.8" stop-color="#141414"/><stop offset="0.86" stop-color="#252525"/><stop offset="0.91" stop-color="#3b3b3b"/><stop offset="0.95" stop-color="#565656"/><stop offset="1" stop-color="#767676"/><stop offset="1" stop-color="#7a7a7a"/></radialGradient><radialGradient id="radial-gradient-2" cx="170.28" cy="165.41" r="276.06" gradientUnits="userSpaceOnUse"><stop offset="0"/><stop offset="0.07" stop-color="#090909"/><stop offset="0.19" stop-color="#212121"/><stop offset="0.34" stop-color="#484848"/><stop offset="0.51" stop-color="#7e7e7e"/><stop offset="0.53" stop-color="#848484"/><stop offset="0.55" stop-color="#929292"/><stop offset="0.61" stop-color="#b3b3b3"/><stop offset="0.67" stop-color="#cfcfcf"/><stop offset="0.73" stop-color="#e4e4e4"/><stop offset="0.8" stop-color="#f3f3f3"/><stop offset="0.88" stop-color="#fcfcfc"/><stop offset="1" stop-color="#fff"/></radialGradient><filter id="luminosity-noclip-3" x="33.25" y="-8601.75" width="335.96" height="32766" filterUnits="userSpaceOnUse" color-interpolation-filters="sRGB"><feFlood flood-color="#fff" result="bg"/><feBlend in="SourceGraphic" in2="bg"/></filter><mask id="mask-3" x="33.25" y="-8601.75" width="335.96" height="32766" maskUnits="userSpaceOnUse"><g class="cls-25"/></mask><radialGradient id="radial-gradient-3" cx="130.4" cy="134.23" r="255.64" gradientUnits="userSpaceOnUse"><stop offset="0.32"/><stop offset="0.57" stop-color="#020202"/><stop offset="0.67" stop-color="#090909"/><stop offset="0.73" stop-color="#141414"/><stop offset="0.78" stop-color="#252525"/><stop offset="0.83" stop-color="#3b3b3b"/><stop offset="0.87" stop-color="#575757"/><stop offset="0.9" stop-color="#777"/><stop offset="0.94" stop-color="#9d9d9d"/><stop offset="0.97" stop-color="#c8c8c8"/><stop offset="0.99" stop-color="#f6f6f6"/><stop offset="1" stop-color="#fff"/></radialGradient><filter id="luminosity-noclip-4" x="47.18" y="-8601.75" width="258.31" height="32766" filterUnits="userSpaceOnUse" color-interpolation-filters="sRGB"><feFlood flood-color="#fff" result="bg"/><feBlend in="SourceGraphic" in2="bg"/></filter><mask id="mask-4" x="47.18" y="-8601.75" width="258.31" height="32766" maskUnits="userSpaceOnUse"><g class="cls-24"/></mask><linearGradient id="linear-gradient" x1="124.58" y1="66.29" x2="124.58" y2="-244.09" gradientTransform="translate(26.65 286.03) rotate(10.02)" gradientUnits="userSpaceOnUse"><stop offset="0.32"/><stop offset="1" stop-color="#595959"/></linearGradient><radialGradient id="radial-gradient-4" cx="201.36" cy="193.77" r="170.26" gradientUnits="userSpaceOnUse"><stop offset="0" stop-color="#bac6bf"/><stop offset="0.78" stop-color="#dbc2ad"/><stop offset="1" stop-color="#f0efec"/></radialGradient><filter id="luminosity-noclip-5" x="33.38" y="25.79" width="335.95" height="335.96" filterUnits="userSpaceOnUse" color-interpolation-filters="sRGB"><feFlood flood-color="#fff" result="bg"/><feBlend in="SourceGraphic" in2="bg"/></filter><mask id="mask-5" x="33.38" y="25.79" width="335.95" height="335.96" maskUnits="userSpaceOnUse"><g class="cls-1"><path class="cls-2" d="M369.33,193.77a168,168,0,1,1-168-168A168,168,0,0,1,369.33,193.77Z"/></g></mask><radialGradient id="radial-gradient-5" cx="201.36" cy="193.77" r="167.98" gradientUnits="userSpaceOnUse"><stop offset="0.32" stop-color="#88aeb7"/><stop offset="0.9" stop-color="#88aeb7"/><stop offset="1" stop-color="#88aeb7"/></radialGradient><filter id="luminosity-noclip-6" x="33.38" y="25.78" width="335.95" height="335.96" filterUnits="userSpaceOnUse" color-interpolation-filters="sRGB"><feFlood flood-color="#fff" result="bg"/><feBlend in="SourceGraphic" in2="bg"/></filter><mask id="mask-6" x="33.38" y="25.78" width="335.95" height="335.96" maskUnits="userSpaceOnUse"><g class="cls-3"><path class="cls-4" d="M369.33,193.77a168,168,0,1,1-168-168A168,168,0,0,1,369.33,193.77Z"/></g></mask><radialGradient id="radial-gradient-6" cx="170.28" cy="165.41" r="276.06" gradientUnits="userSpaceOnUse"><stop offset="0" stop-color="#88aeb7"/><stop offset="0.06" stop-color="#85a7ae"/><stop offset="0.15" stop-color="#7d9496"/><stop offset="0.27" stop-color="#70766f"/><stop offset="0.4" stop-color="#5f4c39"/><stop offset="0.53" stop-color="#4c1f00"/><stop offset="0.6" stop-color="#3e1a02"/><stop offset="0.7" stop-color="#2f1604"/><stop offset="0.82" stop-color="#261306"/><stop offset="1" stop-color="#231206"/></radialGradient><filter id="luminosity-noclip-7" x="33.25" y="25.79" width="335.96" height="335.96" filterUnits="userSpaceOnUse" color-interpolation-filters="sRGB"><feFlood flood-color="#fff" result="bg"/><feBlend in="SourceGraphic" in2="bg"/></filter><mask id="mask-7" x="33.25" y="25.79" width="335.96" height="335.96" maskUnits="userSpaceOnUse"><g class="cls-5"><path class="cls-6" d="M369.21,193.77a168,168,0,1,1-168-168A168,168,0,0,1,369.21,193.77Z"/></g></mask><radialGradient id="radial-gradient-7" cx="130.4" cy="134.23" r="255.64" xlink:href="#radial-gradient-5"/><filter id="luminosity-noclip-8" x="47.18" y="41.17" width="258.31" height="273.56" filterUnits="userSpaceOnUse" color-interpolation-filters="sRGB"><feFlood flood-color="#fff" result="bg"/><feBlend in="SourceGraphic" in2="bg"/></filter><mask id="mask-8" x="47.18" y="41.17" width="258.31" height="273.56" maskUnits="userSpaceOnUse"><g class="cls-7"><path class="cls-8" d="M302.42,148.77a200.68,200.68,0,0,0,1-63.76A150.2,150.2,0,1,0,111.65,314.73C204.46,311.48,285.6,243.91,302.42,148.77Z"/></g></mask><linearGradient id="linear-gradient-2" x1="124.58" y1="66.29" x2="124.58" y2="-244.09" gradientTransform="translate(26.65 286.03) rotate(10.02)" gradientUnits="userSpaceOnUse"><stop offset="0.32" stop-color="#fff"/><stop offset="1" stop-color="#fff"/></linearGradient></defs><title>planet</title><g id="jupiter"><path class="cls-9" d="M369.33,193.77a168,168,0,1,1-168-168A168,168,0,0,1,369.33,193.77Z"/><path class="cls-10" d="M106.08,64.63c21.3-4,28.58,2,61.12,6.93s75.91-6.87,89.08-10.74c7.59-2.23,19.43-4,31.7-11-3.9-2.35-7.91-4.52-12-6.56-14.14,6.58-29.68,12.06-39.45,13.29-18.59,2.32-64.3.77-85.21-4.78-9.7-2.58-16.54-4.4-23.16-9.24A168.28,168.28,0,0,0,95.54,63.33C97.93,64.68,106.08,64.63,106.08,64.63Z"/><path class="cls-11" d="M81,76.67c3.36,2.92,6.3,5.33,8.92,5.8,6.17,1.09,25.24,5.58,38.7,6.14s38.1,4.86,56,7.07,44.12-5.44,59.26-6.58,47.48-7.49,51.91-12c3-3.06,15.12-.72,21.51-4.8A168.76,168.76,0,0,0,288,49.83c-12.27,7-24.11,8.76-31.7,11-13.17,3.88-56.55,15.63-89.08,10.74s-46.87-1.17-67.78-5.95c0,0-1.49-.93-3.87-2.29A169.41,169.41,0,0,0,81,76.67Z"/><path class="cls-12" d="M133.89,111.33c11.77,0,54.22,4.1,54.22,4.1s29.59,7.85,55.38,0,74.06-20.66,83-27.95a12,12,0,0,1,3.38-1.8,169.58,169.58,0,0,0-12.61-13.4c-6.39,4.08-13.51,7.13-16.5,10.18C296.37,87,258.11,90.85,243,92s-40.4,5.9-58.34,3.68-43.09-3.31-56.55-3.87-32-8.25-38.19-9.34c-2.62-.47-5.56-2.88-8.92-5.8A169,169,0,0,0,64.08,97a143.33,143.33,0,0,0,18,5C96.06,104.87,122.11,111.33,133.89,111.33Z"/><path class="cls-10" d="M326.53,87.48c-9,7.29-57.62,18.16-83.41,26S189.71,111,189.71,111s-43.18-7.29-55-7.29S96.06,104.87,82,102.06a143.33,143.33,0,0,1-18-5A168.29,168.29,0,0,0,51.14,118.6c3.4.83,8.23,6,11.88,6.83,10.09,2.24,11.16,9.77,22.94,10.33s35.8,1.69,45.9,3.93,45.48,4.67,56.7,1.87,33.28,4.31,43.67,1,32.06,1.06,49.45-4.55,27.22-7.27,35.63-10.08,14.62-6.34,20.08-11.31c2.61-2.37,4.82-8.85,7.32-10.4a168.3,168.3,0,0,0-14.79-20.48A12,12,0,0,0,326.53,87.48Z"/><path class="cls-13" d="M319.24,134c-11.78,2.24-25.8,2.8-37.57,3.94S239,149.1,233.43,149.13s-38.68.59-61.11-4.45-32,.56-38.69,0-44.86-3.93-58.32-6.17c-8.39-1.4-21.36-4.76-29.93-7.09-1.48,3.7-2.85,7.45-4.07,11.27,11.07,1.52,27.58,3.75,37.37,4.79,15.7,1.68,56.07,5,67.85,5.58s79.09,5.68,88.06,4.58,51-15.1,66.7-16.56S346.71,143,354.57,134c.82-.94,1.72-1.88,2.68-2.82q-1.51-3.78-3.21-7.47c-1.29.55-2.6,1.15-4,1.88C341.67,130.1,331,131.78,319.24,134Z"/><path class="cls-10" d="M62.87,171.48c22.06,5.51,47.4,13.75,55.22,13.38,10.65-.5,59.17,4.3,63.75,5.09,31.18,5.34,60.27-7.43,86.62-6.22s34-17.37,61.46-17.37c20.59,0,26.12-12,34.49-13a165.55,165.55,0,0,0-7.16-22.15c-1,.94-1.86,1.88-2.68,2.82-7.85,9-37.87,9.36-53.57,10.82s-57.43,11.71-66.4,12.8-76.45,1.8-88.23,1.21-52-9.69-67.69-11.37c-9.79-1-26.3-3.27-37.37-4.79-1.23,3.85-2.3,7.77-3.25,11.74C47.63,153.24,57,170,62.87,171.48Z"/><path class="cls-13" d="M141.79,193.77c-17.7-3.28-60.33-7-77.71-6.78-7.78.08-18.6-11.49-29.56-12.53a169.66,169.66,0,0,0-1.14,19.32c0,5.17.27,10.27.73,15.32,19.32.2,40.79,1.32,51.3,1.76,13.46.56,51.28,15.63,69.79,12.26s53.89,3.2,83.31-1.28,53.21-4.4,74.78-9.45,35.1-13.87,45.2-18.61A95.79,95.79,0,0,1,369.24,190a168.62,168.62,0,0,0-2.16-23.59,325,325,0,0,1-46,10C299.78,179.34,213.5,207,141.79,193.77Z"/><path class="cls-10" d="M321.09,311.55a285.81,285.81,0,0,1-29.56,3.17c-22.47,1.34-39.6,10.73-56.64,14.61s-38.93,2.78-66.82,5.11c-23.71,2-62.58-15.68-82.11-18.67a169.52,169.52,0,0,0,21,16.92c9.92,2.5,24.05,12.57,38,14.43,23.24,3.1,34.52.71,52.09-.07s37.21-7,62-7c15.25,0,26.4-3.82,37.23-7.72A169.16,169.16,0,0,0,321.09,311.55Z"/><path class="cls-14" d="M287.45,309.08c-11.21,2.93-46.79,4.29-54.35,9.33s-35.94-.46-56.77,1.78-39.34-8.4-60.65-8.4c-15.65,0-27.07-2.42-37.58-3.92,2.53,2.73,5.15,5.36,7.85,7.92,19.53,3,55.73,20.77,79.45,18.8,27.89-2.33,48.6-.59,65.65-4.47,22.7-5.16,40.79-5.71,59.07-6.81,9.82-.58,21.48-10.17,31-11.75a169.54,169.54,0,0,0,16.7-19.84c-7.67,2.76-16.32,3.82-23,6.37C305.22,301.69,298.67,306.14,287.45,309.08Z"/><path class="cls-14" d="M287.27,291.47c-14,3.24-29.87,14.7-48.38,10.65s-32-1.12-53.9,3.36-40.15-3.36-48.56-3.36S100,293.28,82.6,291.6c-7.76-.75-14.27-1.73-19.73-2.77a169.3,169.3,0,0,0,15.23,19c10.52,1.51,21.93,3.92,37.58,3.92,21.31,0,39.81,8.42,60.65,6.17s49.22,5.49,56.77.45,40.46-6.4,51.68-9.33,20.43-7.38,30-11c6.71-2.55,15.37-3.61,23-6.37a167.56,167.56,0,0,0,10.79-17c-5.09.15-10,.34-14.2.66C319.8,276.45,301.29,288.23,287.27,291.47Z"/><path class="cls-13" d="M315.31,260.76C311.38,263,292.88,271,272.09,277c-15.63,4.52-56.74,4.5-67.34,6.74s-33.1,3-50.49,3-61-8.08-75.58-7c-6.86.53-15.43-1.85-24.38-4.86q4,7.16,8.58,13.87c5.45,1,17.77,7.83,25.52,8.59,17.38,1.68,39.64,4.71,48.05,4.71s27.54,2.73,49.71,0c16.68-2.06,26.42-.16,33.14-2.06,37.64-10.65,54-5.35,68-8.6s32.53-15,47.11-16.14c4.25-.33,9.11-.51,14.2-.66a167,167,0,0,0,11.84-26.94c-6.21,0-11.37.35-13.15,1.25C341.67,251.79,319.24,258.51,315.31,260.76Z"/><path class="cls-10" d="M305.49,232c-8.41,1.68-40.44,15.7-51.1,15.7s-44.68-1.12-62.63,0-20.79-3.49-34.25-2.93c-15.11.63-38.59-3-53.6-3-12.89,0-24.32-5.26-33.86-9.74S44.68,234.51,41.31,234l-3.19-.55a167.33,167.33,0,0,0,5.94,19.37c9.77,3.71,20.3,7.13,29,6,16.82-2.24,34.74,12.17,50.44,8.81s43.38,2.39,49,.71,34.1,5.62,43.63,1.41c14.42-6.36,37.79-.85,47.7-4.28,14.58-5,29-12.49,37.44-13.61s21.31-6.17,32-12.31c9.36-5.39,20.87-3.93,31.65-7.44a167.91,167.91,0,0,0,3.69-22.81c-8.34.63-15.09,8.29-20,8.29C337.36,217.52,313.9,230.36,305.49,232Z"/><path class="cls-15" d="M305.49,217.69c-21.58,5-45.82,8.17-75.24,12.66s-55.86-.27-74.36,3.1-50.84-15.2-64.3-15.76c-10.52-.44-38.16-8.41-57.48-8.61a167.15,167.15,0,0,0,4,24.32l3.19.55c3.36.56,15.82,4.77,31.67,6.16,10.5.92,19,4.69,31.85,4.69,15,0,35.15,10.28,50.27,9.65,13.46-.56,30.32,1,48.26-.08s40.37-6.64,51-6.64c12.9,0,36.94-12.87,51.1-15.7,8.41-1.68,31.88-14.52,43.09-14.52,4.92,0,11.67-7.66,20-8.29.47-5.09.74-10.24.74-15.46,0-1.28-.07-2.54-.09-3.82-4.67,1.44-9.78,11.47-12,12.51C347.15,207.21,327.07,212.65,305.49,217.69Z"/><path class="cls-13" d="M177.42,287.19c-6.19-1.6-10.73-6.14-25-10.43s-19.44-5.89-29.68-4.51-21.69,5.54-42.27,7.49a40.4,40.4,0,0,1,3.56,16.38c8.26,1.23,4,13.82,15.79,15.44s60.56,7.76,63.72,3.17,29.77-13.3,29.77-13.3Z"/><path class="cls-14" d="M169.66,291.71c-1.31-4.72-5.42-7.08-19.67-11.36s-21.66-7.06-31.9-5.67S94,280.89,88.39,287.09c5.26,9,1.55,15.54,9.58,20s18,11.49,29.83,13.1,32.6-.84,35.76-5.42,24.94-10,24.94-10Z"/><path class="cls-15" d="M164.27,295.11c-1.31-4.72-1-7.12-15.22-11.4s-20.92-7.78-31.16-6.39-12.79,3-21.25,11.46c.2,9.3,4.51,13,6.32,15.34,8,4.42,12.31,9,24.11,10.61s26.22-1.05,31.36-3.17c9.21-3.8,20.48-7.43,20.48-7.43Z"/><path class="cls-12" d="M110.43,282.26c-8,3-9.26,7.9-5.19,15.16s7.79-1.29,12.85,6.71,17.65,6,26.17,3.7S169.66,304,169.66,304s-17.17-7.05-19.67-12.27S127,276.06,110.43,282.26Z"/><path class="cls-13" d="M117.13,287.71c-8,3,.74,7.39,5.71,11.08,7.6,5.63,12.39,7.65,20.92,5.33s25.89-.14,25.89-.14-20.25-4.48-22.75-9.7S133.65,281.52,117.13,287.71Z"/><path class="cls-14" d="M252.16,295.36c-3.86-.26-5.9-.54-8.42.4s-12.52,3-13.6,4.91c1.86,2,8.08,3.8,10.37,4.46s5.24,1.87,8.33,1.6,8.21-2.09,8.75-3.44,9.22-4.49,9.22-4.49S256,295.63,252.16,295.36Z"/><path class="cls-15" d="M256.63,298.28c-.6-1.12-.66-1.75-4.52-2s-5.75-.76-8.27.18-5.37,1.87-7,4.49c.59,2.35,4.2,3.53,4.79,4,2.29.66,3.79,1.87,6.87,1.6a22.21,22.21,0,0,0,8.41-3.22,26.37,26.37,0,0,0,4-3.62Z"/><path class="cls-15" d="M233.42,326.31c-3.86-.26-5.75-.76-8.27.18s-14.72,3.56-16.38,6.19c.59,2.35,13.54,1.83,14.14,2.33,2.29.66,14.1-.79,15.28-1.62C240.31,331.89,237.28,326.58,233.42,326.31Z"/><path class="cls-12" d="M242.24,298.13c-1.86,1.23-2.87,2.41-3.14,3.37a14.09,14.09,0,0,0,7.67,3.6,12.47,12.47,0,0,0,6.89-1.5,40.21,40.21,0,0,0,4.86-3.38s-4.76-.8-5.7-2S246.07,295.61,242.24,298.13Z"/><path class="cls-12" d="M271,271.86c-1.86,1.23-4.8,5.56-5.07,6.51,1.45,1.61,8-.67,10.56-.44s6.29-1.31,8.32-2.4,8-5.07,8-5.07a43.62,43.62,0,0,1-8.17-.75C283.16,269.39,274.8,269.33,271,271.86Z"/><path class="cls-13" d="M241.15,300.94c-1.75,1.4,3.45.87,4.93,1.52,2.25,1,3.35,2,5.38.88a23.88,23.88,0,0,0,4.06-2.93s-2.41-.15-3.34-1.34S245.3,297.62,241.15,300.94Z"/><path class="cls-12" d="M305.49,132c-1.74,1.39,5.75-1.42,7.22-.78a7.72,7.72,0,0,0,6.75,0,68.7,68.7,0,0,1,7.07-2.78s-7.85-.79-8.79-2S309.64,128.66,305.49,132Z"/><path class="cls-14" d="M160.7,239.23c.72,2.35,9.12.8,11.15-.29s-.78-3.57-1.72-4.74S158.74,232.83,160.7,239.23Z"/><path class="cls-12" d="M290.92,128.44c.72,2.35,9.12.8,11.15-.29s-.78-3.57-1.71-4.74S289,122,290.92,128.44Z"/><path class="cls-10" d="M287,266.12c.72,2.35,9.12.79,11.15-.29s-.78-3.56-1.72-4.74S285,259.72,287,266.12Z"/><path class="cls-12" d="M132.64,145.66c.72,2.35,9.12.79,11.15-.29s-.78-3.57-1.72-4.74S130.68,139.26,132.64,145.66Z"/><path class="cls-12" d="M144.74,138.75c.72,2.36,3.79,1.07,5.81,0s3.58-1,2.65-2.16S142.79,132.35,144.74,138.75Z"/><path class="cls-10" d="M59.66,178.91c-.91,2.29,2.29,3.2,4.55,3.62s3.41,1.47,3.41,0S62.13,172.69,59.66,178.91Z"/><path class="cls-12" d="M290.86,80.4c-.86-2.31-3.84-.83-5.8.37s-3.51,1.2-2.5,2.32S293.21,86.66,290.86,80.4Z"/><path class="cls-10" d="M325.21,169.79c-.86-2.31-3.84-.83-5.8.37s-3.51,1.2-2.51,2.32S327.56,176.06,325.21,169.79Z"/><path class="cls-12" d="M203.71,144.74c.71,2.35,6.7,2.4,8.73,1.32s-.28-3.5-1.21-4.68S201.75,138.34,203.71,144.74Z"/><g class="cls-16"><path class="cls-17" d="M369.33,193.77a168,168,0,1,1-168-168A168,168,0,0,1,369.33,193.77Z"/></g><g class="cls-18"><path class="cls-19" d="M369.33,193.77a168,168,0,1,1-168-168A168,168,0,0,1,369.33,193.77Z"/></g><g class="cls-20"><path class="cls-21" d="M369.21,193.77a168,168,0,1,1-168-168A168,168,0,0,1,369.21,193.77Z"/></g><g class="cls-22"><path class="cls-23" d="M302.42,148.77a200.68,200.68,0,0,0,1-63.76A150.2,150.2,0,1,0,111.65,314.73C204.46,311.48,285.6,243.91,302.42,148.77Z"/></g></g></svg>