<svg xmlns="http://www.w3.org/2000/svg" xmlns:xlink="http://www.w3.org/1999/xlink" viewBox="0 0 400 400"><defs><style>.cls-1,.cls-3{mask:url(#mask);}.cls-1{filter:url(#luminosity-noclip-4);}.cls-2,.cls-4,.cls-6{mix-blend-mode:multiply;}.cls-2{fill:url(#radial-gradient);}.cls-3{filter:url(#luminosity-noclip-5);}.cls-4{fill:url(#radial-gradient-2);}.cls-5{mask:url(#mask-3);filter:url(#luminosity-noclip-6);}.cls-6{fill:url(#linear-gradient);}.cls-7{fill:#f43921;}.cls-8{fill:#c61d14;}.cls-9{fill:#e2351e;}.cls-10{fill:#7f1c19;}.cls-11{fill:#ea5c44;}.cls-12{fill:#ef4625;}.cls-13{fill:#d64c1d;}.cls-14{fill:#561111;}.cls-15{mask:url(#mask-4);}.cls-16{fill:url(#radial-gradient-3);}.cls-17{mask:url(#mask-5);}.cls-18{fill:url(#radial-gradient-4);}.cls-19{mask:url(#mask-6);}.cls-20{fill:url(#linear-gradient-2);}.cls-21{filter:url(#luminosity-noclip-3);}.cls-22{filter:url(#luminosity-noclip);}</style><filter id="luminosity-noclip" x="17.1" y="-8601.75" width="339.08" height="32766" filterUnits="userSpaceOnUse" color-interpolation-filters="sRGB"><feFlood flood-color="#fff" result="bg"/><feBlend in="SourceGraphic" in2="bg"/></filter><mask id="mask" x="17.1" y="-8601.75" width="339.08" height="32766" maskUnits="userSpaceOnUse"><g class="cls-22"/></mask><radialGradient id="radial-gradient" cx="155.28" cy="163.59" r="278.63" gradientUnits="userSpaceOnUse"><stop offset="0"/><stop offset="0.07" stop-color="#090909"/><stop offset="0.19" stop-color="#212121"/><stop offset="0.34" stop-color="#484848"/><stop offset="0.51" stop-color="#7e7e7e"/><stop offset="0.53" stop-color="#848484"/><stop offset="0.55" stop-color="#929292"/><stop offset="0.61" stop-color="#b3b3b3"/><stop offset="0.67" stop-color="#cfcfcf"/><stop offset="0.73" stop-color="#e4e4e4"/><stop offset="0.8" stop-color="#f3f3f3"/><stop offset="0.88" stop-color="#fcfcfc"/><stop offset="1" stop-color="#fff"/></radialGradient><radialGradient id="radial-gradient-2" cx="115.15" cy="132.12" r="258.01" gradientUnits="userSpaceOnUse"><stop offset="0.32"/><stop offset="0.57" stop-color="#020202"/><stop offset="0.67" stop-color="#090909"/><stop offset="0.73" stop-color="#141414"/><stop offset="0.78" stop-color="#252525"/><stop offset="0.83" stop-color="#3b3b3b"/><stop offset="0.87" stop-color="#575757"/><stop offset="0.9" stop-color="#777"/><stop offset="0.94" stop-color="#9d9d9d"/><stop offset="0.97" stop-color="#c8c8c8"/><stop offset="0.99" stop-color="#f6f6f6"/><stop offset="1" stop-color="#fff"/></radialGradient><filter id="luminosity-noclip-3" x="31.02" y="-8601.75" width="260.72" height="32766" filterUnits="userSpaceOnUse" color-interpolation-filters="sRGB"><feFlood flood-color="#fff" result="bg"/><feBlend in="SourceGraphic" in2="bg"/></filter><mask id="mask-3" x="31.02" y="-8601.75" width="260.72" height="32766" maskUnits="userSpaceOnUse"><g class="cls-21"/></mask><linearGradient id="linear-gradient" x1="103.13" y1="-4.07" x2="103.13" y2="-327.73" gradientTransform="translate(20.22 359.16) rotate(10.02)" gradientUnits="userSpaceOnUse"><stop offset="0.32"/><stop offset="1" stop-color="#595959"/></linearGradient><filter id="luminosity-noclip-4" x="17.1" y="22.67" width="339.08" height="339.08" filterUnits="userSpaceOnUse" color-interpolation-filters="sRGB"><feFlood flood-color="#fff" result="bg"/><feBlend in="SourceGraphic" in2="bg"/></filter><mask id="mask-4" x="17.1" y="22.67" width="339.08" height="339.08" maskUnits="userSpaceOnUse"><g class="cls-1"><circle class="cls-2" cx="186.64" cy="192.21" r="169.54"/></g></mask><radialGradient id="radial-gradient-3" cx="155.28" cy="163.59" r="278.63" gradientUnits="userSpaceOnUse"><stop offset="0" stop-color="#ef4625"/><stop offset="0.05" stop-color="#e64424"/><stop offset="0.14" stop-color="#ce3e20"/><stop offset="0.25" stop-color="#a7341a"/><stop offset="0.38" stop-color="#712612"/><stop offset="0.52" stop-color="#2c1407"/><stop offset="0.53" stop-color="#231206"/><stop offset="0.59" stop-color="#231206"/><stop offset="1" stop-color="#231206"/></radialGradient><mask id="mask-5" x="17.1" y="22.67" width="339.08" height="339.08" maskUnits="userSpaceOnUse"><g class="cls-3"><circle class="cls-4" cx="186.64" cy="192.21" r="169.54"/></g></mask><radialGradient id="radial-gradient-4" cx="115.15" cy="132.12" r="258.01" gradientUnits="userSpaceOnUse"><stop offset="0.32" stop-color="#f96638"/><stop offset="0.9" stop-color="#f96638"/><stop offset="1" stop-color="#f96638"/></radialGradient><filter id="luminosity-noclip-6" x="31.02" y="38.19" width="260.72" height="276.1" filterUnits="userSpaceOnUse" color-interpolation-filters="sRGB"><feFlood flood-color="#fff" result="bg"/><feBlend in="SourceGraphic" in2="bg"/></filter><mask id="mask-6" x="31.02" y="38.19" width="260.72" height="276.1" maskUnits="userSpaceOnUse"><g class="cls-5"><path class="cls-6" d="M288.64,146.8a202.74,202.74,0,0,0,1-64.35A151.6,151.6,0,1,0,96.09,314.29C189.77,311,271.67,242.81,288.64,146.8Z"/></g></mask><linearGradient id="linear-gradient-2" x1="103.13" y1="-4.07" x2="103.13" y2="-327.73" gradientTransform="translate(20.22 359.16) rotate(10.02)" gradientUnits="userSpaceOnUse"><stop offset="0.32" stop-color="#ffe086"/><stop offset="1" stop-color="#ffe086"/></linearGradient></defs><title>planet</title><g id="mars"><circle class="cls-7" cx="186.64" cy="192.21" r="169.54"/><path class="cls-8" d="M310.39,102.2c0,13.16,2.52,15.22-6.72,21.74s-7.05,3.13-16.44,8.6,1,8.11-14.35,14.85-21.8,16-24.75,27.37-5.48,22,2.34,27,16.91-7.33,22.4,10,10.44,19.91,9.26,32.87,2,17.73,15.25,15.35,10.32-8.32,29.74-10c7.45-.66,13.67-.51,19-.5a169.61,169.61,0,0,0-24.81-160.1C314.16,91.13,310.39,94.35,310.39,102.2Z"/><path class="cls-8" d="M85.51,139.37c12.51,8.39-7,35.39-7,39s-18,8.88-3.91,43.13,2.35,26.73,18,48.51,16.42,6.36,21.11,7.14,7.21,4.08,25,7,2.3,20.35,8.16,39.1c5,16-2.22,25.24-1.25,33.42a169.58,169.58,0,0,0,172-57c-3.58-12.28-12.38-3.38-17.1-10.81-5.47-8.6-17.2-9.38-29.9-12.53s-18.05-2.57-30.3-6.35-2.34-12.4-6.58-27.26-13-21.11-20.78-31-3.91-23-8.19-33.91,3.5-14.07,4.28-23.75a210.51,210.51,0,0,0,0-38.78c-1.56-16.39-4.69-24.26,0-37.3s7-15.89,12.49-18.93c3.88-2.16,6.79-16.74,8.37-30.85A169.65,169.65,0,0,0,42.27,103.17c.72,11.81,3,19.09,8.09,26.79C57.41,140.66,73,131,85.51,139.37Z"/><path class="cls-8" d="M69.88,301.46c-2.33-2-7.65-1.71-14-1.24A170,170,0,0,0,117.4,347c-1.24-11.14-9.8-11.68-17-27.6C92.55,302.2,75.35,306.12,69.88,301.46Z"/><path class="cls-8" d="M53.34,289.34c1.68-5.58,4.14-7,7.88-20.24s-8.55-9.9-10.87-13.69c-1.32-2.15-9.74,2.91-16.74,10.08A169.76,169.76,0,0,0,53,296.54,21.34,21.34,0,0,1,53.34,289.34Z"/><path class="cls-9" d="M96.54,68.36c13.16,0,15.23-2.52,21.74,6.72s3.13,7.05,8.6,16.43,8.11-1,14.86,14.35,16,21.8,27.37,24.75,22,5.47,27-2.34-7.34-16.91,10-22.4S226,95.43,239,96.6s17.72-2,15.35-15.25S246,71,244.33,51.61c-.66-7.46-.51-13.67-.5-19A169.61,169.61,0,0,0,83.73,57.42C85.47,64.59,88.68,68.36,96.54,68.36Z"/><path class="cls-9" d="M133.71,293.24c8.39-12.51,35.39,7,39,7s8.88,18,43.13,3.91,26.73-2.34,48.52-18,6.36-16.42,7.14-21.11,4.08-7.21,7-25,20.35-2.29,39.09-8.16c16-5,25.24,2.21,33.42,1.25a169.59,169.59,0,0,0-57-172c-12.28,3.57-3.38,12.38-10.81,17.1-8.6,5.47-9.38,17.2-12.53,29.9s-2.56,18.06-6.34,30.3S252,140.77,237.12,145s-21.11,13-31,20.78-23,3.91-33.91,8.19-14.08-3.5-23.75-4.28a210.74,210.74,0,0,0-38.78,0c-16.39,1.56-24.26,4.69-37.3,0s-15.89-7-18.93-12.49c-2.16-3.88-16.74-6.79-30.85-8.37A169.63,169.63,0,0,0,97.5,336.48c11.81-.72,19.1-3,26.79-8.08C135,321.34,125.32,305.75,133.71,293.24Z"/><path class="cls-9" d="M295.8,308.87c-2,2.33-1.71,7.65-1.24,14a170,170,0,0,0,46.78-61.54c-11.14,1.24-11.68,9.8-27.6,17C296.54,286.2,300.45,303.4,295.8,308.87Z"/><path class="cls-9" d="M283.68,325.41c-5.58-1.68-7-4.14-20.24-7.89s-9.9,8.55-13.69,10.87c-2.15,1.32,2.9,9.74,10.08,16.73a169.29,169.29,0,0,0,31-19.33A21.29,21.29,0,0,1,283.68,325.41Z"/><path class="cls-10" d="M58.24,137.49c2.46-13.3,17.48,1.64,28.95,0s3.28-26.22,22.94-22.94,16.39-16.38,34.41-11.47,9.83,1,0,16.89-29.75,8-37.82,17.68-31,16.1-31,16.1S55.51,152.24,58.24,137.49Z"/><path class="cls-10" d="M166,51.16s3.16,4.89,14.13,0,22.41,7.73,24,11.21S200.9,64.42,196,72.48s-7.26,9.89-15.87,0S151.86,51.16,166,51.16Z"/><path class="cls-10" d="M344,255.37c-6.25-.12-9.87-8.86-14.94-12.94-7.86-6.32-28.57-1.44-28.35.81s2,17.94,2,17.94,9.6,7.67,2.76,14.32.31,9.66-11.26.22-4-14.06-15.32-14.54-16,9.65-24,14.54-15.3,16.23-15.3,16.23-15.39,12.33-6.32,12.47,8.16,4.12,19.81,2.71-2.2-8.68,13.94-4,6.55-2.75,16.14,4.71-11.48,4.63-2.67,16.18c1.6,2.09,13.52-3.56,15.13-2.07A169.91,169.91,0,0,0,344,255.37Z"/><path class="cls-10" d="M45,269.42c8.65-4.31,10.87,14.24,10.87,14.24s15.85,16.48,20.76,16.22,13.15,3.39,18.05,7.25,4.08-3.43,10,6.67,17.2,16.86,28.49,17-.73-15.54-6.58-19.09-.55-9.06-2.72-16.22,5.92-8.19,0-20-14.43.69-23.41-.78-3-13.55-3-13.55,11.67,6.76,13.93,5.33,12.63-5.9,12.44-5.9,2.73-3.29,9.3,0c10.2,5.12,19-3.53,19-3.53s.82-11.18-7.71-19.48c-2.64-2.57-15.25-4.16-26-6.61s-19.5-2.61-25.82-1.38-2.72,3.9-16,2.68-5.11,2.08-14.92,8.7,6.54-18.25,12.88-19.47,4.11-11.59-.21-15.4-8.7-14.31-22.92-17.68-6.59-6.92-17.82-5.82-5.69,14.92-14.27,23.5c-2.46,2.46,1.68,10.9,0,13.59A168.22,168.22,0,0,0,32.09,261.9C35,262.34,41.35,271.23,45,269.42Z"/><path class="cls-10" d="M217.83,67.6s12.28-20.25,22.36-20.74,30.19,0,30.19,0,4.3,6.68-10.8,10.26S217.83,67.6,217.83,67.6Z"/><path class="cls-11" d="M280.73,111c-3.42,7.7,5.88,19.56,16.72,23s19.71-3,23-10.58-3.23-15.53-12.8-21S287.47,95.88,280.73,111Z"/><path class="cls-11" d="M71.17,90.59C59.14,93,62,106,61.93,108.3s2.58,5.65,12,3.27,14.69-6.22,12.74-12.94S83.2,88.2,71.17,90.59Z"/><path class="cls-11" d="M151.76,135.74c-2.21-.13-8.83,24.13-2,25.44S162.29,136.39,151.76,135.74Z"/><path class="cls-11" d="M222.36,294.42c1.76,2.19,5.27.44,6.58,0s1.32-3.51,0-4.82-1.75-1.32-4.39,0S222.36,294.42,222.36,294.42Z"/><path class="cls-12" d="M152.4,231.27c1.69,3.26,4.39,4.79,6.8,3.95,3.8-1.32,6.35-4.22,2.18-8.33-1.76-1.73-4.37-3.07-6.12-2.19S151.36,229.25,152.4,231.27Z"/><path class="cls-12" d="M242,123.75c1.69,3.27,4.39,4.79,6.8,3.95,3.8-1.32,6.36-4.22,2.18-8.33-1.76-1.73-4.37-3.07-6.12-2.2S241,121.74,242,123.75Z"/><path class="cls-12" d="M99.25,222.6c1.7,3.27,4.39,4.79,6.81,3.95,3.8-1.32,6.35-4.22,2.17-8.33-1.76-1.73-4.37-3.07-6.12-2.2S98.21,220.59,99.25,222.6Z"/><path class="cls-12" d="M172.8,236c3.69.87,7.15,0,5.5-4.8-2.2-6.37-8.47-6.94-9-3S169.14,235.12,172.8,236Z"/><path class="cls-12" d="M195.17,238.72c-3.18,3.86-1.54,11,2.84,10.09s6.81-2.55,5.49-6.1S197.59,235.78,195.17,238.72Z"/><path class="cls-12" d="M203.71,219c3.5,2.32,4.71,2.05,7.69,0,3.51-2.42,3.07-6.58-1.75-7S200.3,216.73,203.71,219Z"/><path class="cls-12" d="M227,135.07c3.5,2.32,4.71,2.05,7.69,0,3.51-2.42,3.07-6.58-1.75-7S223.57,132.81,227,135.07Z"/><path class="cls-13" d="M101.43,102.06c3.5,2.32,4.71,2.05,7.69,0,3.51-2.41,3.07-6.57-1.75-7S98,99.8,101.43,102.06Z"/><path class="cls-12" d="M174.32,122.93c3.5,2.32,4.71,2,7.69,0,3.51-2.42,3.07-6.58-1.75-7S170.92,120.68,174.32,122.93Z"/><path class="cls-12" d="M234.64,231.78c-2,2.81-3.65,9.65,0,10.38,6.92,1.39,7.71-2.85,9.46-5.54S239,225.76,234.64,231.78Z"/><path class="cls-13" d="M165.35,317.75c-2,2.81-3.65,9.65,0,10.38,6.92,1.39,7.71-2.85,9.46-5.54S169.72,311.74,165.35,317.75Z"/><path class="cls-12" d="M82.85,210.61c-2,2.81-3.65,9.65,0,10.38,6.93,1.39,7.71-2.85,9.46-5.54S87.21,204.59,82.85,210.61Z"/><path class="cls-12" d="M252.19,198.63c-2,3.66,6.14,2,6.14,0s1.76-5.09-3.07-4.21S253.89,195.49,252.19,198.63Z"/><path class="cls-12" d="M185.14,109.4c-2,3.66,6.14,2,6.14,0s1.75-5.09-3.07-4.21S186.84,106.25,185.14,109.4Z"/><path class="cls-12" d="M195.61,292.06c.78,4.58,9.05,5,12,3.45s4.69-10.36,2.05-11.2S193.85,281.8,195.61,292.06Z"/><path class="cls-13" d="M184.3,154.84c.78,4.58,9,5,12,3.45s4.69-10.36,2.05-11.2S182.54,144.58,184.3,154.84Z"/><path class="cls-12" d="M236.8,278.2c2.18-1.54-1.28-7.46-3.47-7s-3.73,4.83-3.4,7S233.7,280.39,236.8,278.2Z"/><path class="cls-13" d="M185.86,331.1c2.19-1.54-1.28-7.46-3.47-7s-3.73,4.83-3.4,7S182.76,333.3,185.86,331.1Z"/><path class="cls-13" d="M107.66,85.05c2.19-1.54-1.28-7.46-3.47-7s-3.73,4.83-3.4,7S104.55,87.25,107.66,85.05Z"/><path class="cls-12" d="M105.9,207.49c2.18-1.54-1.28-7.46-3.47-7s-3.73,4.83-3.4,7S102.79,209.68,105.9,207.49Z"/><path class="cls-12" d="M65,197c2.18-1.55-1.28-7.46-3.47-7s-3.73,4.83-3.4,7S61.94,199.16,65,197Z"/><path class="cls-12" d="M241.57,270.41c-.21,1.84,4.47,3.18,5.35,0S242.36,263.5,241.57,270.41Z"/><path class="cls-12" d="M314.91,210c-.21,1.84,4.47,3.18,5.35,0S315.7,203.12,314.91,210Z"/><path class="cls-12" d="M334.21,183.62c-.21,1.84,4.48,3.18,5.35,0S335,176.71,334.21,183.62Z"/><path class="cls-12" d="M317.64,157.31c-.21,1.84,4.47,3.18,5.35,0S318.43,150.4,317.64,157.31Z"/><path class="cls-12" d="M226,120.23c-.21,1.84,4.47,3.18,5.35,0S226.81,113.32,226,120.23Z"/><path class="cls-13" d="M115.69,99.63c-.21,1.84,4.48,3.18,5.35,0S116.48,92.72,115.69,99.63Z"/><path class="cls-13" d="M79.12,117.69c-.21,1.84,4.47,3.18,5.35,0S79.91,110.78,79.12,117.69Z"/><path class="cls-13" d="M121.14,141.28c-.21,1.84,4.47,3.18,5.35,0S121.93,134.38,121.14,141.28Z"/><path class="cls-13" d="M127.72,153.14c-.21,1.84,4.48,3.18,5.35,0S128.51,146.24,127.72,153.14Z"/><path class="cls-13" d="M267.09,311c-.21,1.84,4.47,3.18,5.35,0S267.87,304.13,267.09,311Z"/><path class="cls-13" d="M194.87,139.37c-.21,1.84,4.47,3.18,5.35,0S195.66,132.46,194.87,139.37Z"/><path class="cls-12" d="M264.18,78.71c-.21,1.84,4.48,3.18,5.35,0S265,71.81,264.18,78.71Z"/><path class="cls-12" d="M169.14,106c-.21,1.84,4.47,3.18,5.35,0S169.93,99.12,169.14,106Z"/><path class="cls-12" d="M175.45,93.3c-.21,1.84,4.48,3.18,5.35,0S176.24,86.39,175.45,93.3Z"/><path class="cls-12" d="M208.21,68.54c-.21,1.84,4.47,3.18,5.35,0S209,61.63,208.21,68.54Z"/><path class="cls-12" d="M182.76,228.31c-.21,1.84,4.48,3.18,5.35,0S183.55,221.4,182.76,228.31Z"/><path class="cls-13" d="M182,317c-.21,1.84,4.47,3.18,5.35,0S182.78,310.13,182,317Z"/><path class="cls-12" d="M141.69,212.94c-.21,1.84,4.48,3.18,5.35,0S142.48,206,141.69,212.94Z"/><path class="cls-12" d="M81.75,198.53c-.21,1.84,4.48,3.18,5.35,0S82.54,191.63,81.75,198.53Z"/><path class="cls-12" d="M42.27,177.24c-.21,1.84,4.48,3.18,5.35,0S43.06,170.33,42.27,177.24Z"/><path class="cls-12" d="M160.81,186.53c-.21,1.84,4.48,3.18,5.35,0S161.6,179.62,160.81,186.53Z"/><path class="cls-12" d="M71.18,158.33c-.21,1.84,4.47,3.18,5.35,0S72,151.42,71.18,158.33Z"/><path class="cls-13" d="M207.41,345.19c-.21,1.84,4.47,3.18,5.35,0S208.2,338.28,207.41,345.19Z"/><path class="cls-12" d="M167.1,254.91a21.18,21.18,0,0,0,7.89,2.17c2.63.06,3.5-3,3.07-5.64s-5.61-7.26-8.72-4.73S163.88,253.13,167.1,254.91Z"/><path class="cls-14" d="M68.53,137c1.84-9.94,13.07,1.23,21.65,0s2.45-19.6,17.15-17.15,12.25-12.25,25.73-8.58,7.35.75,0,12.63-22.25,6-28.28,13.22-23.18,12-23.18,12S66.49,148,68.53,137Z"/><path class="cls-14" d="M169.34,52.54s2.37,3.67,10.61,0,16.82,5.8,18,8.41-2.45,1.54-6.13,7.59-5.45,7.43-11.92,0S158.73,52.54,169.34,52.54Z"/><path class="cls-14" d="M141,38.19c15.31-1.58,23.6-4.76,40.9-5,13.54-.2,30.34-5.92,42.28-6.29a169.48,169.48,0,0,0-102.15,8.53C128.2,37.38,135,38.81,141,38.19Z"/><path class="cls-14" d="M344,255.37c-6.25-.12-11.75-1.3-16.83-5.38-7.86-6.32-26.69-2.25-26.46,0S307,261.18,307,261.18s7.18,14.44.34,21.09-4.93,14.94-16.5,5.5-5.29-10.06-16.62-10.54-11.36-.48-19.31,4.42-15.3,10.3-15.3,10.3-3.44,7.8,5.63,7.93-2-1.93,9.67-3.34-1-4.71,15.11,0,6.55-2.75,16.14,4.71-4.14,3.86,4.67,15.4a41.43,41.43,0,0,0,4.81,5.35A169.91,169.91,0,0,0,344,255.37Z"/><path class="cls-14" d="M42.27,261.18c8.65-4.3,13.6,14.54,13.6,14.54S71.8,289,76.7,288.75s15.93,3.93,20.83,7.79,1.22,7.16,7.15,17.27,12.45,9.5,23.73,9.64-5.16-7.49-11-11,2.18-8.7,0-15.87,5.92-9,0-20.82-8,.47-16.95-1-3-13.55-3-13.55,4.93.87,7.18-.57,10.72-5.7,10.53-5.7,2.7-8.41,9.27-5.12c10.2,5.12,14.81,7.29,14.81,7.29s10.27-2.17,1.74-10.47c-2.64-2.57-12.87-7.84-23.62-10.29s-6.4-2.45-12.72-1.23-14.81-1.57-28.08-2.8S65.67,240,55.87,246.61s6.13-23.77,12.47-25,7.14-6.13,2.82-9.94S62,202,47.77,198.63s-2.93-8.88-14.16-7.77.2,12.37-8.37,21a43,43,0,0,0-5.89,7.9A168.22,168.22,0,0,0,32.09,261.9C35,262.34,38.62,263,42.27,261.18Z"/><path class="cls-14" d="M227.2,62.66S233.69,52,239,51.7s15.94,0,15.94,0,2.27,3.53-5.7,5.42S227.2,62.66,227.2,62.66Z"/><path class="cls-14" d="M239,314.29c-3.59-2-10.74,2.91,0,8.42s14-3.4,15.51-4.43-2,.6-5.27-4.43S239,314.29,239,314.29Z"/><g class="cls-15"><circle class="cls-16" cx="186.64" cy="192.21" r="169.54"/></g><g class="cls-17"><circle class="cls-18" cx="186.64" cy="192.21" r="169.54"/></g><g class="cls-19"><path class="cls-20" d="M288.64,146.8a202.74,202.74,0,0,0,1-64.35A151.6,151.6,0,1,0,96.09,314.29C189.77,311,271.67,242.81,288.64,146.8Z"/></g></g></svg>