<svg xmlns="http://www.w3.org/2000/svg" xmlns:xlink="http://www.w3.org/1999/xlink" viewBox="0 0 400 400"><defs><style>.cls-1{mask:url(#mask);filter:url(#luminosity-noclip-5);}.cls-2,.cls-4,.cls-6,.cls-8{mix-blend-mode:multiply;}.cls-2{fill:url(#radial-gradient);}.cls-3{mask:url(#mask-2);filter:url(#luminosity-noclip-6);}.cls-4{fill:url(#radial-gradient-2);}.cls-5{mask:url(#mask-3);filter:url(#luminosity-noclip-7);}.cls-6{fill:url(#linear-gradient);}.cls-7{mask:url(#mask-4);filter:url(#luminosity-noclip-8);}.cls-8{fill:url(#radial-gradient-3);}.cls-9{fill:url(#radial-gradient-4);}.cls-10{fill:#a55819;}.cls-11{fill:#d17d2a;}.cls-12{fill:#e59a55;}.cls-13{mask:url(#mask-5);}.cls-14{fill:url(#radial-gradient-5);}.cls-15{mask:url(#mask-6);}.cls-16{fill:url(#radial-gradient-6);}.cls-17{mask:url(#mask-7);}.cls-18{fill:url(#linear-gradient-2);}.cls-19{mask:url(#mask-8);}.cls-20{fill:url(#radial-gradient-7);}.cls-21{filter:url(#luminosity-noclip-4);}.cls-22{filter:url(#luminosity-noclip-3);}.cls-23{filter:url(#luminosity-noclip-2);}.cls-24{filter:url(#luminosity-noclip);}</style><filter id="luminosity-noclip" x="19.56" y="-9022" width="354.72" height="32766" filterUnits="userSpaceOnUse" color-interpolation-filters="sRGB"><feFlood flood-color="#fff" result="bg"/><feBlend in="SourceGraphic" in2="bg"/></filter><mask id="mask" x="19.56" y="-9022" width="354.72" height="32766" maskUnits="userSpaceOnUse"><g class="cls-24"/></mask><radialGradient id="radial-gradient" cx="196.92" cy="202.37" r="177.36" gradientUnits="userSpaceOnUse"><stop offset="0.32"/><stop offset="0.61" stop-color="#020202"/><stop offset="0.72" stop-color="#090909"/><stop offset="0.8" stop-color="#141414"/><stop offset="0.86" stop-color="#252525"/><stop offset="0.91" stop-color="#3b3b3b"/><stop offset="0.95" stop-color="#565656"/><stop offset="1" stop-color="#767676"/><stop offset="1" stop-color="#7a7a7a"/></radialGradient><filter id="luminosity-noclip-2" x="19.6" y="-9022" width="354.72" height="32766" filterUnits="userSpaceOnUse" color-interpolation-filters="sRGB"><feFlood flood-color="#fff" result="bg"/><feBlend in="SourceGraphic" in2="bg"/></filter><mask id="mask-2" x="19.6" y="-9022" width="354.72" height="32766" maskUnits="userSpaceOnUse"><g class="cls-23"/></mask><radialGradient id="radial-gradient-2" cx="164.15" cy="172.43" r="291.48" gradientUnits="userSpaceOnUse"><stop offset="0"/><stop offset="0.07" stop-color="#090909"/><stop offset="0.19" stop-color="#212121"/><stop offset="0.34" stop-color="#484848"/><stop offset="0.51" stop-color="#7e7e7e"/><stop offset="0.53" stop-color="#848484"/><stop offset="0.55" stop-color="#929292"/><stop offset="0.61" stop-color="#b3b3b3"/><stop offset="0.67" stop-color="#cfcfcf"/><stop offset="0.73" stop-color="#e4e4e4"/><stop offset="0.8" stop-color="#f3f3f3"/><stop offset="0.88" stop-color="#fcfcfc"/><stop offset="1" stop-color="#fff"/></radialGradient><filter id="luminosity-noclip-3" x="34.17" y="-9022" width="272.74" height="32766" filterUnits="userSpaceOnUse" color-interpolation-filters="sRGB"><feFlood flood-color="#fff" result="bg"/><feBlend in="SourceGraphic" in2="bg"/></filter><mask id="mask-3" x="34.17" y="-9022" width="272.74" height="32766" maskUnits="userSpaceOnUse"><g class="cls-22"/></mask><linearGradient id="linear-gradient" x1="53.25" y1="165.52" x2="53.25" y2="-169.41" gradientTransform="translate(106.2 219.34) rotate(10.02)" gradientUnits="userSpaceOnUse"><stop offset="0.32"/><stop offset="1" stop-color="#595959"/></linearGradient><filter id="luminosity-noclip-4" x="19.78" y="-9022" width="354.72" height="32766" filterUnits="userSpaceOnUse" color-interpolation-filters="sRGB"><feFlood flood-color="#fff" result="bg"/><feBlend in="SourceGraphic" in2="bg"/></filter><mask id="mask-4" x="19.78" y="-9022" width="354.72" height="32766" maskUnits="userSpaceOnUse"><g class="cls-21"/></mask><radialGradient id="radial-gradient-3" cx="122.36" cy="139.47" r="269.91" gradientUnits="userSpaceOnUse"><stop offset="0.32"/><stop offset="0.57" stop-color="#020202"/><stop offset="0.67" stop-color="#090909"/><stop offset="0.73" stop-color="#141414"/><stop offset="0.78" stop-color="#252525"/><stop offset="0.83" stop-color="#3b3b3b"/><stop offset="0.87" stop-color="#575757"/><stop offset="0.9" stop-color="#777"/><stop offset="0.94" stop-color="#9d9d9d"/><stop offset="0.97" stop-color="#c8c8c8"/><stop offset="0.99" stop-color="#f6f6f6"/><stop offset="1" stop-color="#fff"/></radialGradient><radialGradient id="radial-gradient-4" cx="196.95" cy="202.37" r="177.36" gradientUnits="userSpaceOnUse"><stop offset="0" stop-color="#a55819"/><stop offset="1" stop-color="#7a380b"/></radialGradient><filter id="luminosity-noclip-5" x="19.56" y="25.01" width="354.72" height="354.72" filterUnits="userSpaceOnUse" color-interpolation-filters="sRGB"><feFlood flood-color="#fff" result="bg"/><feBlend in="SourceGraphic" in2="bg"/></filter><mask id="mask-5" x="19.56" y="25.01" width="354.72" height="354.72" maskUnits="userSpaceOnUse"><g class="cls-1"><circle class="cls-2" cx="196.92" cy="202.37" r="177.36"/></g></mask><radialGradient id="radial-gradient-5" cx="196.92" cy="202.37" r="177.36" gradientUnits="userSpaceOnUse"><stop offset="0.32" stop-color="#9e721a"/><stop offset="0.66" stop-color="#9d701a"/><stop offset="0.78" stop-color="#996918"/><stop offset="0.87" stop-color="#915e15"/><stop offset="0.94" stop-color="#874d10"/><stop offset="1" stop-color="#7a380b"/></radialGradient><filter id="luminosity-noclip-6" x="19.6" y="25.01" width="354.72" height="354.72" filterUnits="userSpaceOnUse" color-interpolation-filters="sRGB"><feFlood flood-color="#fff" result="bg"/><feBlend in="SourceGraphic" in2="bg"/></filter><mask id="mask-6" x="19.6" y="25.01" width="354.72" height="354.72" maskUnits="userSpaceOnUse"><g class="cls-3"><circle class="cls-4" cx="196.96" cy="202.37" r="177.36"/></g></mask><radialGradient id="radial-gradient-6" cx="164.15" cy="172.43" r="291.48" gradientUnits="userSpaceOnUse"><stop offset="0" stop-color="#ffc248"/><stop offset="0.06" stop-color="#f6ba44"/><stop offset="0.15" stop-color="#dea43b"/><stop offset="0.27" stop-color="#b7802b"/><stop offset="0.41" stop-color="#815015"/><stop offset="0.53" stop-color="#4c1f00"/><stop offset="0.6" stop-color="#3e1a02"/><stop offset="0.7" stop-color="#2f1604"/><stop offset="0.82" stop-color="#261306"/><stop offset="1" stop-color="#231206"/></radialGradient><filter id="luminosity-noclip-7" x="34.17" y="41.25" width="272.74" height="288.83" filterUnits="userSpaceOnUse" color-interpolation-filters="sRGB"><feFlood flood-color="#fff" result="bg"/><feBlend in="SourceGraphic" in2="bg"/></filter><mask id="mask-7" x="34.17" y="41.25" width="272.74" height="288.83" maskUnits="userSpaceOnUse"><g class="cls-5"><path class="cls-6" d="M303.66,154.86a211.92,211.92,0,0,0,1.05-67.32A158.59,158.59,0,1,0,102.24,330.08C200.24,326.65,285.91,255.31,303.66,154.86Z"/></g></mask><linearGradient id="linear-gradient-2" x1="53.25" y1="165.52" x2="53.25" y2="-169.41" gradientTransform="translate(106.2 219.34) rotate(10.02)" gradientUnits="userSpaceOnUse"><stop offset="0.32" stop-color="#fff"/><stop offset="1" stop-color="#fff"/></linearGradient><filter id="luminosity-noclip-8" x="19.78" y="24.97" width="354.72" height="354.71" filterUnits="userSpaceOnUse" color-interpolation-filters="sRGB"><feFlood flood-color="#fff" result="bg"/><feBlend in="SourceGraphic" in2="bg"/></filter><mask id="mask-8" x="19.78" y="24.97" width="354.72" height="354.71" maskUnits="userSpaceOnUse"><g class="cls-7"><circle class="cls-8" cx="197.14" cy="202.33" r="177.36"/></g></mask><radialGradient id="radial-gradient-7" cx="122.36" cy="139.47" r="269.91" gradientUnits="userSpaceOnUse"><stop offset="0.32" stop-color="#e59a55"/><stop offset="0.9" stop-color="#e59a55"/><stop offset="1" stop-color="#e59a55"/></radialGradient></defs><title>planet</title><g id="mercury"><circle class="cls-9" cx="196.96" cy="202.37" r="177.36"/><path class="cls-10" d="M326.41,108.21c0,13.77,2.64,15.93-7,22.74s-7.38,3.28-17.2,9,1.07,8.49-15,15.54-22.81,16.75-25.89,28.62-5.73,23,2.45,28.26,17.69-7.68,23.44,10.48,10.92,20.82,9.69,34.39,2,18.55,15.95,16.05,10.8-8.7,31.11-10.49c7.8-.69,14.3-.53,19.87-.51a177.42,177.42,0,0,0-26-167.48C330.36,96.63,326.41,100,326.41,108.21Z"/><path class="cls-10" d="M91.17,147.09c13.08,8.78-7.36,37-7.36,40.82S65,197.2,79.72,233s2.45,28,18.81,50.75,17.17,6.66,22.08,7.47,7.55,4.27,26.17,7.36,2.4,21.29,8.53,40.9c5.25,16.78-2.31,26.4-1.31,35a177.41,177.41,0,0,0,180-59.65c-3.74-12.85-12.95-3.53-17.89-11.3-5.72-9-18-9.81-31.28-13.1s-18.89-2.69-31.7-6.64-2.45-13-6.89-28.51-13.56-22.08-21.74-32.41-4.09-24-8.57-35.47,3.66-14.72,4.48-24.84a220.45,220.45,0,0,0,0-40.56c-1.63-17.15-4.91-25.38,0-39s7.36-16.62,13.07-19.8c4.05-2.25,7.1-17.51,8.75-32.28A177.49,177.49,0,0,0,45.93,109.22c.75,12.36,3.15,20,8.46,28C61.77,148.44,78.08,138.32,91.17,147.09Z"/><path class="cls-10" d="M74.81,316.66c-2.44-2.08-8-1.8-14.66-1.3a177.87,177.87,0,0,0,64.38,48.94c-1.3-11.65-10.25-12.21-17.82-28.87C98.53,317.43,80.54,321.52,74.81,316.66Z"/><path class="cls-10" d="M57.51,304c1.76-5.84,4.33-7.28,8.25-21.18s-8.94-10.35-11.37-14.32c-1.38-2.25-10.18,3-17.5,10.54A177.37,177.37,0,0,0,57.11,311.5,22.31,22.31,0,0,1,57.51,304Z"/><path class="cls-11" d="M102.7,72.63c13.77,0,15.93-2.64,22.74,7s3.28,7.38,9,17.2,8.49-1.07,15.54,15,16.75,22.81,28.63,25.89,23,5.72,28.26-2.45-7.68-17.69,10.48-23.44,20.82-10.91,34.39-9.69,18.55-2,16.06-15.95-8.7-10.8-10.49-31.11c-.69-7.8-.53-14.3-.52-19.87a177.44,177.44,0,0,0-167.48,26C91.12,68.69,94.48,72.63,102.7,72.63Z"/><path class="cls-11" d="M141.59,307.87c8.78-13.09,37,7.36,40.82,7.36s9.29,18.81,45.12,4.09,28-2.46,50.76-18.81,6.65-17.18,7.47-22.09,4.27-7.55,7.36-26.17,21.29-2.4,40.89-8.53c16.79-5.25,26.41,2.31,35,1.31a177.41,177.41,0,0,0-59.64-180C296.48,68.8,305.79,78,298,82.95c-9,5.73-9.82,18-13.1,31.28s-2.68,18.89-6.64,31.7-13,2.46-28.52,6.89-22.08,13.56-32.41,21.74-24,4.09-35.48,8.57-14.72-3.66-24.84-4.48a220.33,220.33,0,0,0-40.56,0c-17.15,1.63-25.38,4.91-39,0s-16.62-7.36-19.8-13.07c-2.25-4.05-17.51-7.1-32.28-8.75a177.48,177.48,0,0,0,78.33,196.29c12.36-.76,20-3.15,28-8.46C142.93,337.27,132.81,321,141.59,307.87Z"/><path class="cls-11" d="M311.15,324.24c-2.08,2.43-1.79,8-1.3,14.65a177.92,177.92,0,0,0,48.94-64.38c-11.65,1.3-12.22,10.25-28.87,17.82C311.93,300.51,316,318.51,311.15,324.24Z"/><path class="cls-11" d="M298.47,341.53c-5.84-1.76-7.27-4.33-21.18-8.25s-10.35,8.94-14.32,11.37c-2.26,1.38,3,10.18,10.53,17.51A176.87,176.87,0,0,0,306,341.94,22.29,22.29,0,0,1,298.47,341.53Z"/><path class="cls-12" d="M206.52,263.89c-2.46-6.54-1.95-12.27-9.56-15.54s-14.49-3.7-23.16-9-19.63-7.36-30.26-8.18a126.6,126.6,0,0,1,22.9-6.54c13.09-2.45,10.57,2,19.6,5.48s9.84,11,16.39,13.8S206.52,263.89,206.52,263.89Z"/><path class="cls-12" d="M193.43,223.92s17.17-1.75,23.72,8.88,5.73,15.54,6.54,19.63,3.27,2.45,0,11.45-10.63,21.26-9.82,23.72c0,0,7.4-8.18,11.47-11.45s6.53-4.09,9.8-12.27,4.18-4.1,4.09-11.45,1.65-4.09,0-17.18S193.43,223.92,193.43,223.92Z"/><path class="cls-12" d="M261.32,212.35S248.23,241.09,249,243.9s-1.64,15.89-3.27,20-4.09,9.82,0,14.72a149.78,149.78,0,0,1,6.65-14.72c3.16-5.72,8.07-12.16,8.89-20S263,231.17,272,224.63s11.45-1.63,19.63-6.54,20.45-1.64,19.63-9.82Z"/><path class="cls-12" d="M234.32,281.88s-9.82-2.45-13.91,5.73-8.18,12.27-9.82,17.17,4,14.73,6.08,21.27,2,11.45,0,17.18c0,0-.65-4.91,5.63-9.82s-.56-9,0-14.72-5.46-12.27,0-15.54S234.32,281.88,234.32,281.88Z"/><path class="cls-12" d="M138.63,338.71s13.09-11.85,13.91-15.94c0,0,5.72,13.88,5.72,15.94s-2.45-2.85-9.81,4.51S128.81,351,125.54,352,138.63,338.71,138.63,338.71Z"/><path class="cls-12" d="M268.68,169.82s1.64-4.91,4.09-14.72-4.29-14.72,5.63-19.63,8.27-6.54,7.46-16.36S277.39,97,277.39,97s3,16.36,0,21.27-4.63,10.63-8.72,15.13-9.82,6.14-7.36,19.23a264.26,264.26,0,0,0,6.54,26.17Z"/><path class="cls-12" d="M265.41,117.48s-4.09-5.72,0-13.91,2.45-12.26,0-20.44-9.1-.82-9.05-12.27-6.49-15.54-6.49-15.54V76.59c0,6.54,4.81,4.9,6.49,14.72s-1.68,13.91,0,21.27a124.45,124.45,0,0,0,5,15.54Z"/><path class="cls-12" d="M243.54,86.4c.6-6.55-1.42-11.45,0-18.82S242.3,57.77,239.95,52s-9.21-6.54-12.32-10.63c0,0,7.52,4.9,6.7,13.91s-.36,13.91,1.45,18S243.54,86.4,243.54,86.4Z"/><path class="cls-12" d="M87.92,317.87c11.45-4.9,20.45-3.27,22.9-15.54s2.46-20.45-.82-26.17-5.72-4.09-9.82-13.09c0,0,27,11.45,29.44,17.18s0,6.54-3.27,14.72-6.55,13.09-9.82,22.9-10.63,13.91-16.36,13.91c0,0,12.27,2.46,20.45,1.64s7.36-6.54,12.27-12.27-4.91-10.63,3.27-19.63,11.45-12.27,11.45-21.27S137,267.16,131.27,261.43s-15.54-9-22.9-9c0,0,15.54-10.63,26.18-10.63s13.08,0,20.45,4.08-3.27,10.63,4.91,21.27,6.55,9,4.91,22.08-8.18,16.36-11.45,24.54c0,0,9.82-3.27,17.18-9s3.27-7.36,4.91-15.54-6.55-6.54,0-18.81,4.09-6.54-3.27-18-6.54-8.18-18-15.54c0,0,28.32-8.18,42.78-7.36s16.11,8.18,26.73,13.91,20.45.82,27.81-5.72,18-20.45,29.44-19.63,15.54,3.27,27.81,0a57.81,57.81,0,0,1,28.63,0c5.65,1.39,4.09,6.64,13.09,6.54s10.63,6.65,13.09-.71c5-13.26,4.44-36.17,3.39-40.62.06,1.16-8.31,24.42-8.31,25.79,0,8.18-10.63,0-13.08-1.51s1.64-17.3,3.27-24.28,3.27-14.29,2.46-21.66,4.09-4.09,6.54-16.29-.73-19.3-8.49-22.15-11.95-10.63-11.95-10.63c1.63,6.54,3.27,11.45,9,18s2.45,7.36-4.09,14.79-.82,8.93-4.09,15.48a91,91,0,0,0-5.72,13.09,18.45,18.45,0,0,1-8.18,9.39c1.64-2.88,0-13.47,2.45-21.66s5.72-10.63,5.72-16.29-1.64-19.69-5.72-27.06,2.45-13.91,0-19.63-28.63-15.54-28.63-15.54c4.09,3.27,9,9,13.09,12.27s8.18,5.73,7.44,13.91,4.83,9.82-.08,20.45.82,13.09,0,22.08S311.12,169,311.12,169c4-6.54-3.19-11.45-4.82-14.73s.82-13.09,3.27-20.45,1.64-9,0-16.36-9-13.9-9-13.9L288.31,88c0,5.72,2.46,6.54,4.91,13.91s7.36,10.63,7.36,20.45-2.46,11.45-11.45,21.27-.82,13.08-3.27,15.54-3.27,10.63-6.54,13.15-.82,11.38-6.54,11-20.45,2.07-25.36,0-11.45,5.34-15.54,7-2.46,7.36-10.64,8.18-7.36-.82-13.09-.82-10.63,8.18-16.36,9.83-19.63-15.56-25.36-18.83-19.63,13.09-24.54,13.72-17.18-3.91-27.81-5.55-6.55,8.18-17.18,9-28.63,3.27-36.8,0-14.73-27-20.45-30.26c-3.06-1.75-9.86-4.68-16.54-8.52A177.62,177.62,0,0,0,42.45,289.43c.47-2.66.88-5.07,1.3-6.73,1.63-6.54,4.09-18,13.09-18.81s8.18,4.91,15.54,9-.81,9-4.09,13.09-11.45-2.45-14.72,1.64c-2.12,2.64-3.88,7-5.09,11.73A177.3,177.3,0,0,0,59,313.75c2.75-4.92-4.57-16.32,3.6-16.32s15.54,5.72,18.81.81,2.46-7.36,4.09-15.54,1.64-9-.82-13.91c0,0,10.63,11.45,11.45,18.82s0,8.18-4.09,14.72S83.83,313,76.47,313.78c-7,.78-16.18.85-13.74,4.45A179,179,0,0,0,75.8,331.84C79,328.71,78.85,321.75,87.92,317.87Z"/><path class="cls-12" d="M346.2,263.89A61.33,61.33,0,0,0,327.38,268c4.91-6.54,9.81-14.73,10.63-15.55s18-9.81,22.9-13.9,12.16-16.81,8.18-28.63,4.68-17.06,4-26.45c-.45-4.25-1.09-8.45-1.84-12.61-4.84,5.74-4,13.47-5.45,17-1.64,4.09-1.64,20.45-4.09,27.81,3.28,6.54-6.54,11.45-9,16.36s-10.63,8.18-21.26,5.73-2.46-13.09-8.18-13.09-11.45,2.45-19.63,5.72-8.18,3.27-10.63,8.18-11.45,1.64-16.36,2.46-15.54,17.18-15.54,17.18c4.09-3.27,13.09-3.28,19.63-5.73,4.38-1.64,13.49-4.74,19.06-6.61a16.9,16.9,0,0,1,4.66-1.56l-4.66,1.56c-3.7,2-4.31,4.75-6.8,6.61-3.27,2.46-10.63,8.18-20.45,14.73s0,25.35,0,25.35c4.09-5.72,4.09-10.63,6.54-15.54s10.63-4.91,16.36-8.18,9.81-2.45,13.09-12.27,14.73-7.36,14.73-7.36c-9,4.91-9,7.36-10.64,17.18s-5.72,8.18-12.27,11.45-8.18,11.45-10.63,18.81a163,163,0,0,1-7.36,17.18c4.09-2.45,13.09-9.82,16.36-18.82s8.18-9,16.36-10.63,16.36-3.27,23.72-9,13.9-2.46,21.26-3.72c2.06-4.84,3.88-9.82,5.51-14.88C356.45,258.58,357.63,263.07,346.2,263.89Z"/><path class="cls-12" d="M239.95,356.31c4.19-6.54.53-5.4,3.59-17.42s6.33-16.11,6.33-25.11-6.93-13.09-6.33-18.82l.6-5.72-4.19-1.63s.1,14.72-5.62,18,1.53,8.18,2.81,15.54.46,13.9-2.81,22.08.82,12-8.18,17.44-10.48-1.41-15.84,8.73a16,16,0,0,0-1.93,9.93c4-.25,7.9-.65,11.8-1.16,4.84-2.58,10.22-7,14.15-9.59C239.23,365.31,235.75,362.85,239.95,356.31Z"/><path class="cls-12" d="M268.68,320.32c.82-9-7.36-15.55-7.36-15.55l4.09,15.55s-2.46,10.14-4.09,18.56S260.5,343.23,258,353,246.4,364,240,374.45a176.22,176.22,0,0,0,38.41-14.53,35.55,35.55,0,0,0-1-6.88C274.4,339.13,267.86,329.32,268.68,320.32Z"/><path class="cls-12" d="M285.85,330.14s7,3.14,5.73,13.09c-.56,4.49-1.26,7.43-1.81,10.28,3-1.83,5.87-3.76,8.73-5.76-1.13-2.85-2.25-5.88-3.23-8.86C291.58,327.68,285.85,330.14,285.85,330.14Z"/><path class="cls-12" d="M93.65,338.89c-3.37-.65-5.47.59-6.79,2.48q6.42,5.09,13.31,9.6c5.72-6.11,25.37-7.74,25.37-7.74S103.46,340.77,93.65,338.89Z"/><path class="cls-12" d="M277.39,55.32s11.79,12.49,23.18,12.27a26.77,26.77,0,0,1,19.17,6.87A178.8,178.8,0,0,0,300.2,58.2C294.6,54.75,277.39,55.32,277.39,55.32Z"/><path class="cls-12" d="M260.72,55.28c16.67,21.3,25.13,17.21,25.13,17.21s-18-17.18-18-25.36-4.86-1.58-9-11a175.91,175.91,0,0,0-18.59-5.78,14.19,14.19,0,0,0,3.24,7C249,43.05,259.71,54,260.72,55.28Z"/><path class="cls-12" d="M60.92,171.46c3.28,7.36-.81,14.72,8.18,18.81S74.8,196,84.63,196s4.92-7.36,16.37-7.36,16.36-.82,24.54.81,13.09,3.27,18-.81c0,0-10.68-1.67-18.43-5.34s-12.67-5.3-20-4.48-11.44-4.09-16.35,0S83,183.7,77.29,183.3s-10.63-.39-10.63-4.48,3.27.81.82-9.82,1.64-10.63-5.72-14.72S49.48,142,42.93,142s-5.84,1.63-10.26-6.51q-2.28,5.61-4.19,11.41c5.61,3.07,12.57,6.83,16.9,9C53.57,160,57.65,164.1,60.92,171.46Z"/><path class="cls-12" d="M44.57,128.11c9,2.45,9.81,6.54,16.35,7.36S74,132.2,77.29,137.93s2,9,4.28,12.27-1.45,8.18,0,13.91,7.17-.82,16.16,0,5.73-1.8,18.81,2.37c0,0,.82-2.37-6.54-8.09s-17.18-4.09-17.18-4.09-.82-1.63-4.91-11.45,1.55-12.27-11.08-14.72-17.54,3.27-23.27-4.91-2.46-2.27-8.18-13c-2.45,4-4.72,8.19-6.86,12.43A9.09,9.09,0,0,0,44.57,128.11Z"/><path class="cls-12" d="M54.38,106c4.91,1.67,8.18,6.58,11.45,6.58s12.65,1.63,15.73,3.27,9.62,4.09,12.08,8.18,0,6.55,6.54,11.45c0,0,.82-1.64,0-10.63S92,108.4,87.92,106s-5.41,8.14-12.52,0-7.92,6.58-13.65-14.28c-.3-1.11-.58-2.14-.83-3.11q-5,6-9.54,12.51C52,103.57,52.93,105.49,54.38,106Z"/><path class="cls-12" d="M222.32,183.3c2.19-3.67,2.19-10.21,12-10.21s10.63,1.64,15.54,0,9.71-4.09,6.49-11.45-8.13-12.27-6.49-18,.82-5.72,0-15.54c0,0-11.66,4.09-9.92,13.09s-.1,7.75,0,14.51-2.35,10.68-5.62,10.76-12-1.94-12,7.45Z"/><path class="cls-12" d="M193.43,190.27s11.65-4.94,12-7-1.1-16.1,4.92-16.83,5.73-1.55,12-6.46,4.33-6.54,5.31-11.45-3.43-5.72,0-13.09a54.88,54.88,0,0,0-5.31,9.82c-1.9,4.91-6,6.93-11.72,10.42s-11.75,2.67-13.64,7.17-2.71,15.13-3.53,15.95S193.43,190.27,193.43,190.27Z"/><path class="cls-12" d="M182,183.3s2.45-9.55,4.09-16.83-1.29-4,3.85-12.19c0,0-3.85-3.7-7.94,1.42s-7.73,6.67-6.72,12.44S182,183.3,182,183.3Z"/><path class="cls-12" d="M234.32,86.4s6.14,13,9.61,15.48,11.65,4.14,5.93,10.69-9,6.54-10.24,12.27c0,0-6.48-7.36-3.84-12.27s.18-2.57-1.45-10.69A41.6,41.6,0,0,1,234.32,86.4Z"/><path class="cls-12" d="M100.48,60.22c-4.6,9.59-3.57,9.81-3.57,19.62s3.57,8.76,3.57,8.76l.07-2.2c-.46-6.54,1.27-13.09,5.65-20.45s12-8.18,18.91-10.67S147.28,32.07,151.72,48s3.27,9,2.46,24.86-4.91,8.68-16.36,13.59S128,97,125.54,107.66s9.82,19.63,16.14,17.18,3.49-8.18,6.76-17.18,12.27-5.72,20.45-5.31,9-1.23,13.61,0,7.65,7,7.42,13.91-6.31,12.68-11.21,21.67,12.27,3.27,18.25.82,7.1-4.91,10-13.91,6.91-10.64,7-14.62-.06-27.91-.38-35.68,6-21.67,3.13-33.13c-1.15-4.51-2.36-10.28-3.42-15.63C207.9,25.3,202.46,25,197,25a176.53,176.53,0,0,0-82.81,20.52A32.83,32.83,0,0,0,100.48,60.22Z"/><path class="cls-12" d="M72.38,88.6c.63,11.86,4.09,3.52,11.29,5.16S96.82,97,96.82,97c-2.55-5.72-4.81-6.54-10-10.63s-3-9-.85-13.59a26.89,26.89,0,0,0,2.83-11,177.63,177.63,0,0,0-16.07,14C73.54,82.42,71.82,78,72.38,88.6Z"/><path class="cls-12" d="M143.54,55.89s-10.63,6-13.09,8-9.76,8.4-13.88,8.91-10.09,4.4-10.37,10.63.28,16,0,18.91.12,11-.08,13.91,2.25,11,4.7,15.95c0,0,5-9,5.75-15.95s-3.25-16.21,0-22.21,4.06-11,9-14.2,8.18,9.89,13.09-7Z"/><path class="cls-12" d="M161.53,112s-.61,12-4.39,16.08-10.33,6.54-13.6,9.81.38,13.48-1.85,17.78c0,0,6.54-5.51,9.92-7.15s-3.16-4.91,6.65-10.63,8.18-4.91,10.63-13.09S161.53,112,161.53,112Z"/><g class="cls-13"><circle class="cls-14" cx="196.92" cy="202.37" r="177.36"/></g><g class="cls-15"><circle class="cls-16" cx="196.96" cy="202.37" r="177.36"/></g><g class="cls-17"><path class="cls-18" d="M303.66,154.86a211.92,211.92,0,0,0,1.05-67.32A158.59,158.59,0,1,0,102.24,330.08C200.24,326.65,285.91,255.31,303.66,154.86Z"/></g><g class="cls-19"><circle class="cls-20" cx="197.14" cy="202.33" r="177.36"/></g></g></svg>