<svg xmlns="http://www.w3.org/2000/svg" xmlns:xlink="http://www.w3.org/1999/xlink" viewBox="0 0 400 400"><defs><style>.cls-1{mask:url(#mask);filter:url(#luminosity-noclip-4);}.cls-2,.cls-4,.cls-6{mix-blend-mode:multiply;}.cls-2{fill:url(#radial-gradient);}.cls-3{mask:url(#mask-2);filter:url(#luminosity-noclip-5);}.cls-4{fill:url(#radial-gradient-2);}.cls-5{mask:url(#mask-3);filter:url(#luminosity-noclip-6);}.cls-6{fill:url(#linear-gradient);}.cls-7{fill:url(#radial-gradient-3);}.cls-8{fill:#116daa;}.cls-9{fill:url(#linear-gradient-2);}.cls-10{fill:url(#linear-gradient-3);}.cls-11{fill:url(#linear-gradient-4);}.cls-12{fill:#fff;}.cls-13{fill:#0f4484;}.cls-14{mask:url(#mask-4);}.cls-15{fill:url(#radial-gradient-4);}.cls-16{mask:url(#mask-5);}.cls-17{fill:url(#radial-gradient-5);}.cls-18{mask:url(#mask-6);}.cls-19{fill:url(#linear-gradient-5);}.cls-20{filter:url(#luminosity-noclip-3);}.cls-21{filter:url(#luminosity-noclip-2);}.cls-22{filter:url(#luminosity-noclip);}</style><filter id="luminosity-noclip" x="20.13" y="-9022" width="341.88" height="32766" filterUnits="userSpaceOnUse" color-interpolation-filters="sRGB"><feFlood flood-color="#fff" result="bg"/><feBlend in="SourceGraphic" in2="bg"/></filter><mask id="mask" x="20.13" y="-9022" width="341.88" height="32766" maskUnits="userSpaceOnUse"><g class="cls-22"/></mask><radialGradient id="radial-gradient" cx="159.45" cy="172.39" r="280.93" gradientUnits="userSpaceOnUse"><stop offset="0"/><stop offset="0.07" stop-color="#090909"/><stop offset="0.19" stop-color="#212121"/><stop offset="0.34" stop-color="#484848"/><stop offset="0.51" stop-color="#7e7e7e"/><stop offset="0.53" stop-color="#848484"/><stop offset="0.55" stop-color="#929292"/><stop offset="0.61" stop-color="#b3b3b3"/><stop offset="0.67" stop-color="#cfcfcf"/><stop offset="0.73" stop-color="#e4e4e4"/><stop offset="0.8" stop-color="#f3f3f3"/><stop offset="0.88" stop-color="#fcfcfc"/><stop offset="1" stop-color="#fff"/></radialGradient><filter id="luminosity-noclip-2" x="20" y="-9022" width="341.89" height="32766" filterUnits="userSpaceOnUse" color-interpolation-filters="sRGB"><feFlood flood-color="#fff" result="bg"/><feBlend in="SourceGraphic" in2="bg"/></filter><mask id="mask-2" x="20" y="-9022" width="341.89" height="32766" maskUnits="userSpaceOnUse"><g class="cls-21"/></mask><radialGradient id="radial-gradient-2" cx="118.87" cy="140.66" r="260.15" gradientUnits="userSpaceOnUse"><stop offset="0.32"/><stop offset="0.57" stop-color="#020202"/><stop offset="0.67" stop-color="#090909"/><stop offset="0.73" stop-color="#141414"/><stop offset="0.78" stop-color="#252525"/><stop offset="0.83" stop-color="#3b3b3b"/><stop offset="0.87" stop-color="#575757"/><stop offset="0.9" stop-color="#777"/><stop offset="0.94" stop-color="#9d9d9d"/><stop offset="0.97" stop-color="#c8c8c8"/><stop offset="0.99" stop-color="#f6f6f6"/><stop offset="1" stop-color="#fff"/></radialGradient><filter id="luminosity-noclip-3" x="34.17" y="-9022" width="262.87" height="32766" filterUnits="userSpaceOnUse" color-interpolation-filters="sRGB"><feFlood flood-color="#fff" result="bg"/><feBlend in="SourceGraphic" in2="bg"/></filter><mask id="mask-3" x="34.17" y="-9022" width="262.87" height="32766" maskUnits="userSpaceOnUse"><g class="cls-20"/></mask><linearGradient id="linear-gradient" x1="35.68" y1="12.02" x2="35.68" y2="-344.36" gradientTransform="translate(93.35 365.59) rotate(10.02)" gradientUnits="userSpaceOnUse"><stop offset="0.32"/><stop offset="1" stop-color="#595959"/></linearGradient><radialGradient id="radial-gradient-3" cx="191.07" cy="201.25" r="173.26" gradientUnits="userSpaceOnUse"><stop offset="0" stop-color="#2f8cea"/><stop offset="1" stop-color="#0f4484"/></radialGradient><linearGradient id="linear-gradient-2" x1="33.24" y1="152.81" x2="344.62" y2="146.51" gradientUnits="userSpaceOnUse"><stop offset="0" stop-color="#0f4484"/><stop offset="0.5" stop-color="#1d7ece"/><stop offset="1" stop-color="#0a4970"/></linearGradient><linearGradient id="linear-gradient-3" x1="20.13" y1="202.24" x2="361.92" y2="202.24" gradientUnits="userSpaceOnUse"><stop offset="0" stop-color="#0f4484"/><stop offset="0.5" stop-color="#1d7ece"/><stop offset="1" stop-color="#0f4484"/></linearGradient><linearGradient id="linear-gradient-4" x1="36.24" y1="247.56" x2="359.52" y2="246.86" xlink:href="#linear-gradient-3"/><filter id="luminosity-noclip-4" x="20.13" y="30.31" width="341.88" height="341.88" filterUnits="userSpaceOnUse" color-interpolation-filters="sRGB"><feFlood flood-color="#fff" result="bg"/><feBlend in="SourceGraphic" in2="bg"/></filter><mask id="mask-4" x="20.13" y="30.31" width="341.88" height="341.88" maskUnits="userSpaceOnUse"><g class="cls-1"><circle class="cls-2" cx="191.07" cy="201.25" r="170.94"/></g></mask><radialGradient id="radial-gradient-4" cx="159.45" cy="172.39" r="280.93" gradientUnits="userSpaceOnUse"><stop offset="0" stop-color="#0ed8dd"/><stop offset="0.05" stop-color="#0dcfd4"/><stop offset="0.14" stop-color="#0cb7bd"/><stop offset="0.25" stop-color="#099097"/><stop offset="0.38" stop-color="#065a63"/><stop offset="0.53" stop-color="#011520"/><stop offset="0.53" stop-color="#01111c"/><stop offset="0.59" stop-color="#01111c"/><stop offset="1" stop-color="#01111c"/></radialGradient><filter id="luminosity-noclip-5" x="20" y="30.31" width="341.89" height="341.88" filterUnits="userSpaceOnUse" color-interpolation-filters="sRGB"><feFlood flood-color="#fff" result="bg"/><feBlend in="SourceGraphic" in2="bg"/></filter><mask id="mask-5" x="20" y="30.31" width="341.89" height="341.88" maskUnits="userSpaceOnUse"><g class="cls-3"><circle class="cls-4" cx="190.94" cy="201.25" r="170.94"/></g></mask><radialGradient id="radial-gradient-5" cx="118.87" cy="140.66" r="260.15" gradientUnits="userSpaceOnUse"><stop offset="0.32" stop-color="#32c5ed"/><stop offset="0.9" stop-color="#32c5ed"/><stop offset="1" stop-color="#32c5ed"/></radialGradient><filter id="luminosity-noclip-6" x="34.17" y="45.96" width="262.87" height="278.38" filterUnits="userSpaceOnUse" color-interpolation-filters="sRGB"><feFlood flood-color="#fff" result="bg"/><feBlend in="SourceGraphic" in2="bg"/></filter><mask id="mask-6" x="34.17" y="45.96" width="262.87" height="278.38" maskUnits="userSpaceOnUse"><g class="cls-5"><path class="cls-6" d="M293.92,155.47a204.26,204.26,0,0,0,1-64.89A152.85,152.85,0,1,0,99.78,324.34C194.23,321,276.81,252.28,293.92,155.47Z"/></g></mask><linearGradient id="linear-gradient-5" x1="35.68" y1="12.02" x2="35.68" y2="-344.36" gradientTransform="translate(93.35 365.59) rotate(10.02)" gradientUnits="userSpaceOnUse"><stop offset="0.32" stop-color="#2affff"/><stop offset="1" stop-color="#2affff"/></linearGradient></defs><title>planet</title><g id="neptune"><circle class="cls-7" cx="191.07" cy="201.25" r="170.94"/><path class="cls-8" d="M68.56,82.09c3.42,3,42.29,16.77,97,18.23,95.45,2.54,137-18.54,143.46-22.69a171.92,171.92,0,0,0-29.84-22.84c-15.89,9.8-89.44,21.44-122.91,22.11-38.16.76-72.92-8.38-72.92-8.38A173.26,173.26,0,0,0,68.56,82.09Z"/><path class="cls-9" d="M161.52,151.3C98.44,149.86,41.07,140.18,32.34,137.8c-1.51,3.76-2.9,7.58-4.14,11.47,0,0,53.94,24.1,196.69,15.22,100.93-6.27,124.81-26.91,124.81-26.91q-1.54-3.84-3.27-7.6C345.13,130.55,274.13,153.87,161.52,151.3Z"/><path class="cls-10" d="M130.45,201.25C70.39,198.37,21.29,181.6,21.29,181.6a172.61,172.61,0,0,0-1.16,19.65c0,5.26.27,10.45.74,15.59,0,0,29.21,14,123.22,14.27,121.51.38,213.07-32.27,217.82-33.74a170.53,170.53,0,0,0-2.2-24S288.94,208.84,130.45,201.25Z"/><path class="cls-11" d="M91.91,250.12c-13.09-.93-65.35-8.25-67-8.53a170,170,0,0,0,6,19.72S45.28,279,161.71,277.06c72.81-1.21,195.79-36.86,195.79-36.86A170.65,170.65,0,0,0,361.26,217S207.61,258.26,91.91,250.12Z"/><path class="cls-12" d="M106.67,273.88s3.41-8.23,15.61-4.5A35.85,35.85,0,0,0,106.67,273.88Z"/><path class="cls-12" d="M96.81,283.82s1.17-4.3,8.75-3.43A18.26,18.26,0,0,1,96.81,283.82Z"/><path class="cls-12" d="M241.73,288.5s24.55-.6,31.69-4.69C273.42,283.82,261.59,292.68,241.73,288.5Z"/><path class="cls-12" d="M303,265.44s10.21-4.6,17.87-4.08Z"/><path class="cls-12" d="M320.9,268s3.06-3.06,15.31-2.55C336.21,265.44,333.15,268.51,320.9,268Z"/><path class="cls-12" d="M142.77,243.49l13.72-5.11C146.75,238.9,142.77,243.49,142.77,243.49Z"/><path class="cls-12" d="M239.27,199.59S260.67,193,277.51,195C277.51,195,258.2,201.12,239.27,199.59Z"/><path class="cls-12" d="M328.55,284s7.15-.68,10.21-2C338.76,282,337.23,286.24,328.55,284Z"/><path class="cls-12" d="M68.56,143.87s20.06-.47,31.56,3.64C100.12,147.51,81.66,150.92,68.56,143.87Z"/><path class="cls-13" d="M109.19,277.77s2.36-10.6,16.56-5.59,32.16-1.35,32.16-1.35,15.14,7.1,23.41,10.62,3.33,10.26-8.38,8.07-11.15-7.29-25.63-5.33-28.89,5.16-31.73,5.33S86.72,293,109.19,277.77Z"/><path class="cls-12" d="M105.56,283.82s4.1,6.23,24.7,3.12C130.27,286.94,114.32,283.82,105.56,283.82Z"/><path class="cls-12" d="M103.44,293s9.7-5.1,18.38-3.06c0,0-2.5-5,8.45-3,0,0,17.51,6.58,26.22,6.07a45.78,45.78,0,0,1-22.42,0s11.64,7.2,13.69,7.63c0,0-12.61-.51-17.49-3.06,0,0,12.4,9.19,26.22,6.13,0,0-16.84,5.85-26.52.63S113.14,292.5,103.44,293Z"/><path class="cls-12" d="M157.9,270.83s17.51,15,46.1,13,37.73-10.2,37.73-10.2-24.46,4.74-28.54,4.16c0,0,11-3.29,16.48-6.17,0,0-15.4,3.17-22.58,1.57s-16.88,4.52-30.15,2.48C176.94,275.65,162.85,273.67,157.9,270.83Z"/><path class="cls-12" d="M169.8,282s11,6.05,30,4.42C199.82,286.47,181.7,293.26,169.8,282Z"/><g class="cls-14"><circle class="cls-15" cx="191.07" cy="201.25" r="170.94"/></g><g class="cls-16"><circle class="cls-17" cx="190.94" cy="201.25" r="170.94"/></g><g class="cls-18"><path class="cls-19" d="M293.92,155.47a204.26,204.26,0,0,0,1-64.89A152.85,152.85,0,1,0,99.78,324.34C194.23,321,276.81,252.28,293.92,155.47Z"/></g></g></svg>