<svg xmlns="http://www.w3.org/2000/svg" xmlns:xlink="http://www.w3.org/1999/xlink" viewBox="0 0 400 400"><defs><style>.cls-1,.cls-3{mask:url(#mask);}.cls-1{filter:url(#luminosity-noclip-5);}.cls-2,.cls-4,.cls-6,.cls-8{mix-blend-mode:multiply;}.cls-2{fill:url(#radial-gradient);}.cls-3{filter:url(#luminosity-noclip-6);}.cls-4{fill:url(#radial-gradient-2);}.cls-5{mask:url(#mask-3);filter:url(#luminosity-noclip-7);}.cls-6{fill:url(#radial-gradient-3);}.cls-7{mask:url(#mask-4);filter:url(#luminosity-noclip-8);}.cls-8{fill:url(#linear-gradient);}.cls-9{fill:#c5ac8d;}.cls-10{fill:#e8c7a3;}.cls-11{fill:#a59079;}.cls-12{fill:#7f6a61;}.cls-13{fill:#5b473d;}.cls-14{fill:#33241b;}.cls-15{fill:url(#linear-gradient-2);}.cls-16{fill:url(#linear-gradient-3);}.cls-17{fill:url(#linear-gradient-4);}.cls-18{fill:url(#linear-gradient-5);}.cls-19{fill:url(#linear-gradient-6);}.cls-20{fill:url(#linear-gradient-7);}.cls-21{fill:url(#linear-gradient-8);}.cls-22{fill:url(#linear-gradient-9);}.cls-23{fill:url(#linear-gradient-10);}.cls-24{mask:url(#mask-5);}.cls-25{fill:url(#radial-gradient-4);}.cls-26{mask:url(#mask-6);}.cls-27{fill:url(#radial-gradient-5);}.cls-28{mask:url(#mask-7);}.cls-29{fill:url(#radial-gradient-6);}.cls-30{mask:url(#mask-8);}.cls-31{fill:url(#linear-gradient-11);}.cls-32{filter:url(#luminosity-noclip-4);}.cls-33{filter:url(#luminosity-noclip-3);}.cls-34{filter:url(#luminosity-noclip);}</style><filter id="luminosity-noclip" x="20.38" y="-9022" width="347.46" height="32766" filterUnits="userSpaceOnUse" color-interpolation-filters="sRGB"><feFlood flood-color="#fff" result="bg"/><feBlend in="SourceGraphic" in2="bg"/></filter><mask id="mask" x="20.38" y="-9022" width="347.46" height="32766" maskUnits="userSpaceOnUse"><g class="cls-34"/></mask><radialGradient id="radial-gradient" cx="194.11" cy="198.27" r="173.73" gradientUnits="userSpaceOnUse"><stop offset="0.32"/><stop offset="0.61" stop-color="#020202"/><stop offset="0.72" stop-color="#090909"/><stop offset="0.8" stop-color="#141414"/><stop offset="0.86" stop-color="#252525"/><stop offset="0.91" stop-color="#3b3b3b"/><stop offset="0.95" stop-color="#565656"/><stop offset="1" stop-color="#767676"/><stop offset="1" stop-color="#7a7a7a"/></radialGradient><radialGradient id="radial-gradient-2" cx="161.97" cy="168.94" r="285.51" gradientUnits="userSpaceOnUse"><stop offset="0"/><stop offset="0.07" stop-color="#090909"/><stop offset="0.19" stop-color="#212121"/><stop offset="0.34" stop-color="#484848"/><stop offset="0.51" stop-color="#7e7e7e"/><stop offset="0.53" stop-color="#848484"/><stop offset="0.55" stop-color="#929292"/><stop offset="0.61" stop-color="#b3b3b3"/><stop offset="0.67" stop-color="#cfcfcf"/><stop offset="0.73" stop-color="#e4e4e4"/><stop offset="0.8" stop-color="#f3f3f3"/><stop offset="0.88" stop-color="#fcfcfc"/><stop offset="1" stop-color="#fff"/></radialGradient><filter id="luminosity-noclip-3" x="20.25" y="-9022" width="347.46" height="32766" filterUnits="userSpaceOnUse" color-interpolation-filters="sRGB"><feFlood flood-color="#fff" result="bg"/><feBlend in="SourceGraphic" in2="bg"/></filter><mask id="mask-3" x="20.25" y="-9022" width="347.46" height="32766" maskUnits="userSpaceOnUse"><g class="cls-33"/></mask><radialGradient id="radial-gradient-3" cx="120.73" cy="136.7" r="264.38" gradientUnits="userSpaceOnUse"><stop offset="0.32"/><stop offset="0.57" stop-color="#020202"/><stop offset="0.67" stop-color="#090909"/><stop offset="0.73" stop-color="#141414"/><stop offset="0.78" stop-color="#252525"/><stop offset="0.83" stop-color="#3b3b3b"/><stop offset="0.87" stop-color="#575757"/><stop offset="0.9" stop-color="#777"/><stop offset="0.94" stop-color="#9d9d9d"/><stop offset="0.97" stop-color="#c8c8c8"/><stop offset="0.99" stop-color="#f6f6f6"/><stop offset="1" stop-color="#fff"/></radialGradient><filter id="luminosity-noclip-4" x="34.65" y="-9022" width="267.16" height="32766" filterUnits="userSpaceOnUse" color-interpolation-filters="sRGB"><feFlood flood-color="#fff" result="bg"/><feBlend in="SourceGraphic" in2="bg"/></filter><mask id="mask-4" x="34.65" y="-9022" width="267.16" height="32766" maskUnits="userSpaceOnUse"><g class="cls-32"/></mask><linearGradient id="linear-gradient" x1="44.02" y1="84.8" x2="44.02" y2="-236.2" gradientTransform="translate(99.77 292.46) rotate(10.02)" gradientUnits="userSpaceOnUse"><stop offset="0.32"/><stop offset="1" stop-color="#595959"/></linearGradient><linearGradient id="linear-gradient-2" x1="266.11" y1="107.52" x2="430.74" y2="362.87" gradientUnits="userSpaceOnUse"><stop offset="0" stop-color="#e8c7a3"/><stop offset="1" stop-color="#33241b"/></linearGradient><linearGradient id="linear-gradient-3" x1="263.73" y1="109.04" x2="428.37" y2="364.42" xlink:href="#linear-gradient-2"/><linearGradient id="linear-gradient-4" x1="252.6" y1="116.22" x2="417.24" y2="371.59" xlink:href="#linear-gradient-2"/><linearGradient id="linear-gradient-5" x1="236.7" y1="126.52" x2="401.3" y2="381.83" xlink:href="#linear-gradient-2"/><linearGradient id="linear-gradient-6" x1="227.46" y1="132.45" x2="392.08" y2="387.8" xlink:href="#linear-gradient-2"/><linearGradient id="linear-gradient-7" x1="165.83" y1="172.1" x2="330.52" y2="427.56" xlink:href="#linear-gradient-2"/><linearGradient id="linear-gradient-8" x1="181.73" y1="161.94" x2="346.34" y2="417.27" xlink:href="#linear-gradient-2"/><linearGradient id="linear-gradient-9" x1="206.36" y1="146.05" x2="370.99" y2="401.4" xlink:href="#linear-gradient-2"/><linearGradient id="linear-gradient-10" x1="148.18" y1="183.54" x2="312.82" y2="438.92" xlink:href="#linear-gradient-2"/><filter id="luminosity-noclip-5" x="20.38" y="24.55" width="347.46" height="347.45" filterUnits="userSpaceOnUse" color-interpolation-filters="sRGB"><feFlood flood-color="#fff" result="bg"/><feBlend in="SourceGraphic" in2="bg"/></filter><mask id="mask-5" x="20.38" y="24.55" width="347.46" height="347.45" maskUnits="userSpaceOnUse"><g class="cls-1"><circle class="cls-2" cx="194.11" cy="198.27" r="173.73"/></g></mask><radialGradient id="radial-gradient-4" cx="194.11" cy="198.27" r="173.73" gradientUnits="userSpaceOnUse"><stop offset="0.32" stop-color="#dbc2ad"/><stop offset="0.9" stop-color="#dbc2ad"/><stop offset="1" stop-color="#dbc2ad"/></radialGradient><filter id="luminosity-noclip-6" x="20.38" y="24.54" width="347.46" height="347.46" filterUnits="userSpaceOnUse" color-interpolation-filters="sRGB"><feFlood flood-color="#fff" result="bg"/><feBlend in="SourceGraphic" in2="bg"/></filter><mask id="mask-6" x="20.38" y="24.54" width="347.46" height="347.46" maskUnits="userSpaceOnUse"><g class="cls-3"><circle class="cls-4" cx="194.11" cy="198.27" r="173.73"/></g></mask><radialGradient id="radial-gradient-5" cx="161.97" cy="168.94" r="285.51" gradientUnits="userSpaceOnUse"><stop offset="0" stop-color="#dbc2ad"/><stop offset="0.06" stop-color="#d4baa4"/><stop offset="0.16" stop-color="#c0a38c"/><stop offset="0.28" stop-color="#a07e65"/><stop offset="0.42" stop-color="#734c2f"/><stop offset="0.53" stop-color="#4c1f00"/><stop offset="0.6" stop-color="#3e1a02"/><stop offset="0.7" stop-color="#2f1604"/><stop offset="0.82" stop-color="#261306"/><stop offset="1" stop-color="#231206"/></radialGradient><filter id="luminosity-noclip-7" x="20.25" y="24.55" width="347.46" height="347.45" filterUnits="userSpaceOnUse" color-interpolation-filters="sRGB"><feFlood flood-color="#fff" result="bg"/><feBlend in="SourceGraphic" in2="bg"/></filter><mask id="mask-7" x="20.25" y="24.55" width="347.46" height="347.45" maskUnits="userSpaceOnUse"><g class="cls-5"><circle class="cls-6" cx="193.98" cy="198.27" r="173.73"/></g></mask><radialGradient id="radial-gradient-6" cx="120.73" cy="136.7" r="264.38" gradientUnits="userSpaceOnUse"><stop offset="0.32" stop-color="#e59a55"/><stop offset="0.9" stop-color="#e59a55"/><stop offset="1" stop-color="#e59a55"/></radialGradient><filter id="luminosity-noclip-8" x="34.65" y="40.46" width="267.16" height="282.91" filterUnits="userSpaceOnUse" color-interpolation-filters="sRGB"><feFlood flood-color="#fff" result="bg"/><feBlend in="SourceGraphic" in2="bg"/></filter><mask id="mask-8" x="34.65" y="40.46" width="267.16" height="282.91" maskUnits="userSpaceOnUse"><g class="cls-7"><path class="cls-8" d="M298.63,151.74a207.73,207.73,0,0,0,1-65.94A155.34,155.34,0,1,0,101.32,323.37C197.32,320,281.24,250.13,298.63,151.74Z"/></g></mask><linearGradient id="linear-gradient-11" x1="44.02" y1="84.8" x2="44.02" y2="-236.2" gradientTransform="translate(99.77 292.46) rotate(10.02)" gradientUnits="userSpaceOnUse"><stop offset="0.32" stop-color="#fff"/><stop offset="1" stop-color="#fff"/></linearGradient></defs><title>planet</title><g id="pluto"><circle class="cls-9" cx="194.11" cy="198.27" r="173.73"/><path class="cls-10" d="M354.62,199.14c0-7.13,4.62-14.65,8.06-11.39s.77,6.16,0,11.39,1.3,10.58-3.17,8.29S354.59,204.6,354.62,199.14Z"/><path class="cls-11" d="M69.15,124.84c10.61,6.08,2.2,9.14,0,26.84-1,7.75-2.33,13.52-2.59,18-.32,5.76,1.2,9.37,7.83,12.23,11.78,5.09,15-10.23,23-13,2.87-1,6.36-5.35,10-10.36,6.43-9,12-16.34,16.06-13.69,6.4,4.13,1.66,0,16.66-7,4.69-2.18,9.82-4.87,14.88-7.36,11.13-5.46,21.89-9.9,26.73-5.72,7,6.08-2.49,12.24,17.5,16.37,6.23,1.29,11.53,2.44,16.14,3.27,10.18,1.84,17.05,2.14,23.42-1,4.63-2.28,7-6.05,9.84-9.71s6.28-7.17,13.08-8.94c4.08-1.07,8.72-.21,13.31,1.47,10.71,3.93,21.07,12.38,23,11.6,1.2-.48,6.21-3.62,11.85-6.75s11.94-6.22,15.71-6.64c-5.81-2.42-17.15-9.77-9-20.85,6.72-9.14.23-13.85-3.74-18.6-2.88-3.46-4.43-7,1.43-12.2l0,0a174.15,174.15,0,0,0-28.26-22c-3.83.49-9.06-.59-12.81,0-1.85.29,3.31,4.11,1.66,4.42-3,.58-9.51-1.39-11.34-.69-3.52,1.34-1.05,4,.54,9.18.69,2.22-4.83,6.85-4.15,9.1,1.57,5.19,5.26,10.19,1.77,12-4,2-7-.25-12.3,1.63-1.79.63,1.14,8.67-3.32,7.47-4.12-1.11-8.43,3.51-10.52,3.6-2.42.1-3.08-5.08-7.75-9.69-1.46-1.44-9,5.71-9.69,1.94-1.39-7.48-9.61-5.7-12.38-6.2-4.51-.8-6.59-5-10.75-3.76-11.9,3.59-16.06-2.1-17.56-2.78-3.49-1.58.88,3.82-3.88,8.58-5.28,5.28-9.17,10.8-11.91,10.8s-4.72-3.26-13-1.31c-7.87,1.85-9.38-2-13.27-5.06-2-1.58-6.61,4.7-8,3.32-4.93-4.78-8.86-6.64-11.08-2.77-1.09,1.9,2.2,6.2,1.5,15.27-.6,7.76-11.39,9.42-13.4,11-2.18,1.73-3.53,6.12-8.58,8.59s-1.26-4.61-6.09-7.2c-2.62-1.4-6.83-4.94-4.71-11.07.83-2.38-2.48-7.05-3.09-9.5-1.34-5.37-13-.5-14.95-6-1.07-3.06-3.74-1.65-8-2.57A174.21,174.21,0,0,0,40.57,117a151.15,151.15,0,0,1,15.84,3.18A55.35,55.35,0,0,1,69.15,124.84Z"/><path class="cls-12" d="M316.51,103.68c-5.91,1.15-9.43,6.59-7.63,9.91,2.32,4.27-1.61,8.6,1.66,10,3.66,1.84,4.91,4.49-.74,7.61s-11.2-6.64-13.31,1.38c-2,7.62-5,2.22-11.44-1.42-3.14-1.77-9.5-8.23-13-9.51-4.58-1.68-6.33,2.16-10.4,3.22-6.79,1.77-13.85,5.31-16.72,9s-1.56,7.41-6.19,9.69c-6.37,3.14-16.85-1.75-27-3.59-4.61-.84-6.31,2.61-12.54,1.32-6.78-1.4-8.1-10.61-9.89-12.39-3.47-3.48-6.11-2.68-10.76-6.69-3.15-2.72-10.58-1.87-17.2.6-5.18,1.93-6,7.62-11.66,10.46-3.3,1.66-11.59,1.95-14.65,3.38-15,7-9.38,5.48-15.78,1.35-3.76-2.42-4.34,9.88-10.25,18.3-4.17,5.93-11.63,8.71-14.95,9.85-4.25,1.47-9.71,7.31-13.26,10.92-3.14,3.19-4.19-5.65-9.71-8-8.6-3.71-.37-2,1.11-11.35.54-3.44,5.37-11.73,2.18-15.34-3.84-4.36,5.39-12.63-5.22-18.71-2.41-1.38-3.26-5.52-7.48-6.75-2.89-.84-7.07.71-10.53,0-2.83-.58-7.5.64-10.58.18A172.56,172.56,0,0,0,28.4,146c10,2.12,20.48,4.9,24.12,7.77,7.61,6,12,34.85,16.63,38.45s22.63,19.62,25.44,19.23,32.85.33,37.65,1.57,84.93,29.7,87.33,34.49,26.84-16.41,37.65-20.63,30.44-21.21,35.65-27.73-1.8-21.75,21.33-20.55c17.27.9,40.18,4.48,53.18,7.9A173.14,173.14,0,0,0,314.25,72.85l0,0c-6.87,6.15-4.6,13.91-.89,18S321.07,102.8,316.51,103.68Z"/><path class="cls-13" d="M194.11,372A173.72,173.72,0,0,0,367.83,198.27c0-4-.18-7.89-.44-11.79-5.18-1.36-11.94-2.75-19.28-4-3.35-.56-6.82-1.1-10.32-1.58-8.09-1.11-16.33-2-23.58-2.34-6.93-.36-11.16.76-13.82,2.67-6.21,4.47-3.87,13.31-7.51,17.88a83.28,83.28,0,0,1-8.23,8.32c-3.25,2.95-7.05,6.15-10.92,9.11-5.91,4.53-12,8.54-16.5,10.3-3.71,1.45-9,4.91-14.53,8.62-3,2-6.08,4.17-9,6.08-7.11,4.73-13,8.17-14.17,5.93-.68-1.34-7.42-4.53-16.9-8.46-4.39-1.82-9.36-3.8-14.59-5.82s-10.56-4-15.89-6c-5-1.86-9.92-3.66-14.52-5.33-5.16-1.87-9.91-3.57-13.89-5-6.22-2.18-10.54-3.64-11.55-3.9-2.7-.7-23.61-13.11-32.95-13.37-7.26-.21-5,4.76-14.37,4.21-1.42-.08.72-3.9-4.71-8.3s-8.77-1.52-11.07-3.33c-1.78-1.39-.31-9.92-2.22-16.05-1.23-4-5.75-4.95-7.18-9-1.83-5.22,2.33-11.14,0-13.7-.33-.36-3.81-6.09-4.16-6.37-1.83-1.45-5,3.27-9.41,1.94-2.34-.71-1.38-3-9.13-5.54-2.18-.7-6.38,3-8.63,2.49A173.81,173.81,0,0,0,194.11,372Z"/><path class="cls-14" d="M319.13,268.86c-21.45-.38-35.71,14-48.13,7.76s-28.72,7-38.82,7.9-17.85,3-32.6,0-25.62-7.9-38-14.89-17.86-24.85-20.18-42.77-7,4.73-23.29,4c-5.65-.27-13.16-.26-20.6-1.27-6.91-.94-13.76-2.76-19-6.49-10.87-7.76-12.42,3.11-24.06-4.1C44.86,213,45.76,206,46,193.05c0-2.83.05-5.94-.09-9.39-.44-10.87-4.85-13.73-10.43-15-3.81-.89-8.17-1.05-12.17-2.56A173.72,173.72,0,0,0,343.11,287.4C338.8,282.7,336.22,269.17,319.13,268.86Z"/><path class="cls-15" d="M326,220.8c1.73-8.26,5-18,7.64-20.25s11.46-2.68,8.4,5.73-1.15,12.61-5,16.81S324.13,229.74,326,220.8Z"/><path class="cls-16" d="M339.75,236.08c4.07-2.85,1.15-18,7.64-18s8,1.91,6.88,9,.76,8.21-5.35,15.09-5.35,8-11.08,8S335.94,238.75,339.75,236.08Z"/><path class="cls-17" d="M342.68,263.66c6.23-10.4,8.91-15.41,9.3-8.7s2.29,6.71,0,10.53-7.13,12.28-9.3,7.67S341.31,266,342.68,263.66Z"/><path class="cls-18" d="M320.66,259.38c3.44-4.2,5.73-6.55,11.46-4.42s5.61,4.8,2.81,9.39-8.92,8.4-14.27,8.78-7.44-2.92-6-6.43S320.66,259.38,320.66,259.38Z"/><path class="cls-19" d="M317.6,293c11.61-11.3,17.39-14.89,19.2-14.13s5.07,2.29,0,9.17-7.1,9.55-11,10.69S313.56,296.92,317.6,293Z"/><path class="cls-20" d="M254.39,303.29s-8.27,2.26-3.7,6.2S254.39,303.29,254.39,303.29Z"/><path class="cls-21" d="M272.74,288.87s-14.32,11.61-8.57,14.42S272.74,288.87,272.74,288.87Z"/><path class="cls-22" d="M302.65,288.87s-7.74,4.25-3.32,7.37S302.65,288.87,302.65,288.87Z"/><path class="cls-23" d="M269.41,331.25c-5.68,1.42-12.19-4.27-18.65-6.42-4.58-1.52-9.45,1-12.57-1.07-5.46-3.67-2.92-7.24-2.1-13.35.31-2.33-3.1-5.53-2.21-8.5,2-6.7,7.77-7.14,15.21-6.79,4.52.22,12.16,4.25,17.45,3.85,9.33-.72,11.37-3.51,16.56-6.79,2.59-1.63,11.29-1.54,14.87-5.84,5.23-6.28,4.63-10.69,10.35-11.51,6-.88,12.5-.77,19.7-4.09,6.91-6.4-5.31-3.93-16.08-9.32-7.09-3.54-6.74-4.29-.06-8.14,3.46-2,10-.87,13.63-3.08,10.66-6.46,2-16.12-2.38-19.37-2.65-2,.35-7.65.15-14-.13-4.2-4.78-8.53-2.2-12.75,6.46-10.59-2.9-8.5-16.9-12.72s-6.78,9.32-13.24,5c-3.16-2.1-7-10.81-10-13.46s-7.22,3.18-11.08,2.08c-4.71-1.35-8.55-.54-12.73,3.88-2.51,2.65-1.75,7.31-7.8,6.91-8.56-.57-11.16-1.9-12.69,0-.3,2.06-4.62,8.29-4.62,8.29s-2.55-6.87-1.2-8.57c.47-3.21,3.78-8-2.77-12.6-4.68-3.31-7.21-2.71-7.69-6.79-.63-5.3-.72-10.22-8-12-12.92-3.23-3.3-16.4-22.22-20.7-3.66-.83-5.73,1.57-8.79.47-12.72-4.59-20.22-9.84-22.82-1.7-3.23,10.09-6.87.52-16.56,8.25-.51.41-4.89,8.91-5.34,9.3-4,3.48-12.12,7-14,10.35s-.69,7.22-5.81,12.86c-4.95,5.45-7.83,3.61-11.63,4-4.46.49-14.52,5.49-7.81,12.77,5.32,5.77,2.17,12.88,2.4,17.67.37,7.82,2.22,16.76,9.56,16.76,3.74,0,6.42-4,8.76-3.28,5.07,1.65,7.09,5.23,7.09,11.41,0,9-14.56,3.87-13.48,17.87.52,6.7,2.56,11,5.11,15.94,2.78,5.43,10.13,7.28,9.69,10.52-.92,6.87,6.22,8.83,11.6,9.91s10.77,6.46,15.08,5.38,9.69-19.35,2.15-18.29-17.23,1.06-18.3-6.47-4.31-15.08-1.07-15.08,1.81,4.63,8.27,11.09,7.88,2.91,13.27,4,7.88,10.77,8.78,18.3.91,8.61-9.86,12.92c-6,2.42-16.51-.91-21.88-1.52-4.19-.49-9.79,4-13.56,3.55-8.62-1.08-11.75-9.67-16.06,0-1.93,4.32.92,8.58-.78,11-2.09,3-3-1.27-8.36-6-9.69-8.62-8.12-5.26-15.81-8.11-10.77-4-10.77,5.38-10.77,5.38a73.84,73.84,0,0,0,1.51,7.81,173.67,173.67,0,0,0,211.65,27.44c0-.27,0-.52,0-.8C281.25,329.9,279.1,328.83,269.41,331.25Z"/><g class="cls-24"><circle class="cls-25" cx="194.11" cy="198.27" r="173.73"/></g><g class="cls-26"><circle class="cls-27" cx="194.11" cy="198.27" r="173.73"/></g><g class="cls-28"><circle class="cls-29" cx="193.98" cy="198.27" r="173.73"/></g><g class="cls-30"><path class="cls-31" d="M298.63,151.74a207.73,207.73,0,0,0,1-65.94A155.34,155.34,0,1,0,101.32,323.37C197.32,320,281.24,250.13,298.63,151.74Z"/></g></g></svg>