<svg xmlns="http://www.w3.org/2000/svg" xmlns:xlink="http://www.w3.org/1999/xlink" viewBox="0 0 400 400"><defs><style>.cls-1,.cls-3{mask:url(#mask);}.cls-1{filter:url(#luminosity-noclip-5);}.cls-2,.cls-4,.cls-6,.cls-8{mix-blend-mode:multiply;}.cls-2{fill:url(#radial-gradient);}.cls-3{filter:url(#luminosity-noclip-6);}.cls-4{fill:url(#radial-gradient-2);}.cls-5{mask:url(#mask-3);filter:url(#luminosity-noclip-7);}.cls-6{fill:url(#linear-gradient);}.cls-7{mask:url(#mask-4);filter:url(#luminosity-noclip-8);}.cls-8{fill:url(#radial-gradient-3);}.cls-9{fill:#718690;}.cls-10{fill:url(#radial-gradient-4);}.cls-11{fill:#aab19d;}.cls-12{fill:#88aeb7;}.cls-13{fill:#b293bc;}.cls-14{fill:#9fa7a6;}.cls-15{mask:url(#mask-5);}.cls-16{fill:url(#radial-gradient-5);}.cls-17{mask:url(#mask-6);}.cls-18{fill:url(#radial-gradient-6);}.cls-19{fill:url(#linear-gradient-2);}.cls-20{fill:#7e99ab;}.cls-21,.cls-22,.cls-23,.cls-24{opacity:0.5;}.cls-21{fill:url(#radial-gradient-7);}.cls-22{fill:url(#radial-gradient-8);}.cls-23{fill:url(#radial-gradient-9);}.cls-24{fill:url(#radial-gradient-10);}.cls-25{mask:url(#mask-7);}.cls-26{fill:url(#linear-gradient-3);}.cls-27{mask:url(#mask-8);}.cls-28{fill:url(#radial-gradient-11);}.cls-29{filter:url(#luminosity-noclip-4);}.cls-30{filter:url(#luminosity-noclip-3);}.cls-31{filter:url(#luminosity-noclip);}</style><filter id="luminosity-noclip" x="77.14" y="-8601.75" width="222.68" height="32766" filterUnits="userSpaceOnUse" color-interpolation-filters="sRGB"><feFlood flood-color="#fff" result="bg"/><feBlend in="SourceGraphic" in2="bg"/></filter><mask id="mask" x="77.14" y="-8601.75" width="222.68" height="32766" maskUnits="userSpaceOnUse"><g class="cls-31"/></mask><radialGradient id="radial-gradient" cx="202.99" cy="185.88" r="111.33" gradientTransform="translate(-14.5 14.1)" gradientUnits="userSpaceOnUse"><stop offset="0.32"/><stop offset="0.61" stop-color="#020202"/><stop offset="0.72" stop-color="#090909"/><stop offset="0.8" stop-color="#141414"/><stop offset="0.86" stop-color="#252525"/><stop offset="0.91" stop-color="#3b3b3b"/><stop offset="0.95" stop-color="#565656"/><stop offset="1" stop-color="#767676"/><stop offset="1" stop-color="#7a7a7a"/></radialGradient><radialGradient id="radial-gradient-2" cx="182.39" cy="167.09" r="182.96" gradientTransform="translate(-14.5 14.1)" gradientUnits="userSpaceOnUse"><stop offset="0"/><stop offset="0.07" stop-color="#090909"/><stop offset="0.19" stop-color="#212121"/><stop offset="0.34" stop-color="#484848"/><stop offset="0.51" stop-color="#7e7e7e"/><stop offset="0.53" stop-color="#848484"/><stop offset="0.55" stop-color="#929292"/><stop offset="0.61" stop-color="#b3b3b3"/><stop offset="0.67" stop-color="#cfcfcf"/><stop offset="0.73" stop-color="#e4e4e4"/><stop offset="0.8" stop-color="#f3f3f3"/><stop offset="0.88" stop-color="#fcfcfc"/><stop offset="1" stop-color="#fff"/></radialGradient><filter id="luminosity-noclip-3" x="85.86" y="-8601.75" width="152.95" height="32766" filterUnits="userSpaceOnUse" color-interpolation-filters="sRGB"><feFlood flood-color="#fff" result="bg"/><feBlend in="SourceGraphic" in2="bg"/></filter><mask id="mask-3" x="85.86" y="-8601.75" width="152.95" height="32766" maskUnits="userSpaceOnUse"><g class="cls-30"/></mask><linearGradient id="linear-gradient" x1="154.59" y1="214.38" x2="154.59" y2="-8.54" gradientTransform="translate(-8.45 190.36) rotate(-24.39)" gradientUnits="userSpaceOnUse"><stop offset="0.32"/><stop offset="1" stop-color="#595959"/></linearGradient><filter id="luminosity-noclip-4" x="77.08" y="-8601.75" width="222.68" height="32766" filterUnits="userSpaceOnUse" color-interpolation-filters="sRGB"><feFlood flood-color="#fff" result="bg"/><feBlend in="SourceGraphic" in2="bg"/></filter><mask id="mask-4" x="77.08" y="-8601.75" width="222.68" height="32766" maskUnits="userSpaceOnUse"><g class="cls-29"/></mask><radialGradient id="radial-gradient-3" cx="155.96" cy="146.42" r="169.43" gradientTransform="translate(-14.49 14.14)" gradientUnits="userSpaceOnUse"><stop offset="0.32"/><stop offset="0.57" stop-color="#020202"/><stop offset="0.67" stop-color="#090909"/><stop offset="0.73" stop-color="#141414"/><stop offset="0.78" stop-color="#252525"/><stop offset="0.83" stop-color="#3b3b3b"/><stop offset="0.87" stop-color="#575757"/><stop offset="0.9" stop-color="#777"/><stop offset="0.94" stop-color="#9d9d9d"/><stop offset="0.97" stop-color="#c8c8c8"/><stop offset="0.99" stop-color="#f6f6f6"/><stop offset="1" stop-color="#fff"/></radialGradient><radialGradient id="radial-gradient-4" cx="202.99" cy="185.88" r="112.84" gradientTransform="translate(-14.5 14.1)" gradientUnits="userSpaceOnUse"><stop offset="0.01" stop-color="#e59a55"/><stop offset="0.14" stop-color="#e49e5e"/><stop offset="0.35" stop-color="#e1a975"/><stop offset="0.61" stop-color="#ddba9b"/><stop offset="0.72" stop-color="#dbc2ad"/><stop offset="0.78" stop-color="#d8c0ac"/><stop offset="0.83" stop-color="#cdbaa9"/><stop offset="0.88" stop-color="#bbb0a4"/><stop offset="0.93" stop-color="#a2a29d"/><stop offset="0.98" stop-color="#829095"/><stop offset="1" stop-color="#718690"/></radialGradient><filter id="luminosity-noclip-5" x="77.14" y="88.64" width="222.68" height="222.68" filterUnits="userSpaceOnUse" color-interpolation-filters="sRGB"><feFlood flood-color="#fff" result="bg"/><feBlend in="SourceGraphic" in2="bg"/></filter><mask id="mask-5" x="77.14" y="88.64" width="222.68" height="222.68" maskUnits="userSpaceOnUse"><g class="cls-1"><circle class="cls-2" cx="188.48" cy="199.98" r="111.33" transform="translate(-80.02 141.49) rotate(-34.41)"/></g></mask><radialGradient id="radial-gradient-5" cx="202.99" cy="185.88" r="111.33" gradientTransform="translate(-14.5 14.1)" gradientUnits="userSpaceOnUse"><stop offset="0.32" stop-color="#9591e2"/><stop offset="0.9" stop-color="#9591e2"/><stop offset="1" stop-color="#9591e2"/></radialGradient><filter id="luminosity-noclip-6" x="77.14" y="88.64" width="222.68" height="222.68" filterUnits="userSpaceOnUse" color-interpolation-filters="sRGB"><feFlood flood-color="#fff" result="bg"/><feBlend in="SourceGraphic" in2="bg"/></filter><mask id="mask-6" x="77.14" y="88.64" width="222.68" height="222.68" maskUnits="userSpaceOnUse"><g class="cls-3"><circle class="cls-4" cx="188.48" cy="199.98" r="111.33" transform="translate(-80.02 141.49) rotate(-34.41)"/></g></mask><radialGradient id="radial-gradient-6" cx="182.39" cy="167.09" r="182.96" gradientTransform="translate(-14.5 14.1)" gradientUnits="userSpaceOnUse"><stop offset="0" stop-color="#dbc2ad"/><stop offset="0.05" stop-color="#d2bba8"/><stop offset="0.13" stop-color="#baa899"/><stop offset="0.24" stop-color="#938982"/><stop offset="0.36" stop-color="#5d5e61"/><stop offset="0.5" stop-color="#182738"/><stop offset="0.53" stop-color="#05182d"/><stop offset="0.59" stop-color="#05182d"/><stop offset="1" stop-color="#05182d"/></radialGradient><linearGradient id="linear-gradient-2" x1="68.7" y1="179.05" x2="808.02" y2="290.98" gradientTransform="translate(-84.02 161.31) rotate(-34.41)" gradientUnits="userSpaceOnUse"><stop offset="0" stop-color="#435164"/><stop offset="1" stop-color="#7d8386"/></linearGradient><radialGradient id="radial-gradient-7" cx="-182.67" cy="205.19" r="778.52" gradientTransform="translate(-84.02 161.31) rotate(-34.41)" gradientUnits="userSpaceOnUse"><stop offset="0" stop-color="#050a28"/><stop offset="1"/></radialGradient><radialGradient id="radial-gradient-8" cx="-182.68" cy="205.19" r="778.53" xlink:href="#radial-gradient-7"/><radialGradient id="radial-gradient-9" cx="-182.7" cy="205.19" r="778.57" xlink:href="#radial-gradient-7"/><radialGradient id="radial-gradient-10" cx="-182.71" cy="205.19" r="778.57" xlink:href="#radial-gradient-7"/><filter id="luminosity-noclip-7" x="85.86" y="100.6" width="152.95" height="199.11" filterUnits="userSpaceOnUse" color-interpolation-filters="sRGB"><feFlood flood-color="#fff" result="bg"/><feBlend in="SourceGraphic" in2="bg"/></filter><mask id="mask-7" x="85.86" y="100.6" width="152.95" height="199.11" maskUnits="userSpaceOnUse"><g class="cls-5"><path class="cls-6" d="M226.9,137.53a133,133,0,0,0-23.33-35.24,99.55,99.55,0,1,0-18.84,197.43A133.29,133.29,0,0,0,226.9,137.53Z"/></g></mask><linearGradient id="linear-gradient-3" x1="154.59" y1="214.38" x2="154.59" y2="-8.54" gradientTransform="translate(-8.45 190.36) rotate(-24.39)" gradientUnits="userSpaceOnUse"><stop offset="0.32" stop-color="#fff"/><stop offset="1" stop-color="#fff"/></linearGradient><filter id="luminosity-noclip-8" x="77.08" y="88.68" width="222.68" height="222.68" filterUnits="userSpaceOnUse" color-interpolation-filters="sRGB"><feFlood flood-color="#fff" result="bg"/><feBlend in="SourceGraphic" in2="bg"/></filter><mask id="mask-8" x="77.08" y="88.68" width="222.68" height="222.68" maskUnits="userSpaceOnUse"><g class="cls-7"><circle class="cls-8" cx="188.42" cy="200.03" r="111.33" transform="translate(-80.06 141.46) rotate(-34.41)"/></g></mask><radialGradient id="radial-gradient-11" cx="155.96" cy="146.42" r="169.43" gradientTransform="translate(-14.49 14.14)" xlink:href="#radial-gradient-5"/></defs><title>planet</title><g id="saturn"><circle class="cls-9" cx="188.48" cy="199.98" r="111.33" transform="translate(-80.02 141.49) rotate(-34.41)"/><circle class="cls-10" cx="188.48" cy="199.98" r="111.33" transform="translate(-80.02 141.49) rotate(-34.41)"/><path class="cls-11" d="M239.66,280.25c-24.57,17.47-52,25.68-69.83,29.45q5.34.91,10.75,1.3a160.36,160.36,0,0,0,62.77-25.36,172.37,172.37,0,0,0,52.07-54.7c.48-1.65.91-3.32,1.32-5C285,241.2,266.66,261.06,239.66,280.25Z"/><path class="cls-11" d="M232.62,263.06c-30.1,22.24-61.77,34.19-84.94,40.51,2.37.93,4.77,1.75,7.2,2.52,14-1.6,44.55-7.84,80.43-32.19,37.64-25.54,57.15-55.27,64.33-68q.22-4.07.14-8.16C284.78,216.52,262.13,241.25,232.62,263.06Z"/><path class="cls-11" d="M111.41,280.34a110.44,110.44,0,0,0,9.21,7.9c23.82-4.88,62.35-15.34,99.44-43.52,36.77-27.93,61.19-57.35,75.48-75.3a109.76,109.76,0,0,0-3.83-11.14,432.21,432.21,0,0,1-78.38,76.61A245.8,245.8,0,0,1,111.41,280.34Z"/><path class="cls-12" d="M201.69,217.9c-42.81,31.73-80.54,44.33-101.95,49.29q1.79,2.36,3.67,4.61A245.71,245.71,0,0,0,207.23,226c39.73-30.18,66.07-60.63,79.59-78.17q-2-3.71-4.26-7.32C272.51,154.43,248.54,183.17,201.69,217.9Z"/><path class="cls-11" d="M183.13,190.94C143.38,218,105.61,227.7,81.6,231.12a110.64,110.64,0,0,0,5,13.74c21.94-3.54,58.9-14,101.87-44.89,47.1-33.81,69.13-63.43,78.44-79a110.72,110.72,0,0,0-10.28-9C245.28,132.54,223.1,163.72,183.13,190.94Z"/><path class="cls-12" d="M78.64,218.12a110.86,110.86,0,0,0,3,13c24-3.42,61.78-13.12,101.53-40.18,40-27.22,62.15-58.4,73.51-79A110.32,110.32,0,0,0,245,104c-11.12,21.83-31.77,51.86-68.64,77A221.5,221.5,0,0,1,78.64,218.12Z"/><path class="cls-11" d="M165.07,164.57c-33.09,22.66-64.14,31.66-87.9,34.81,0,2.4,0,4.81.17,7.21,24.26-2.59,57.13-11.25,92.31-35.34,34.9-23.9,54.27-51.14,65-72.61-2.18-1-4.39-1.89-6.61-2.73C216.94,116.72,197.86,142.12,165.07,164.57Z"/><path class="cls-11" d="M205.16,89.93C198.1,108.85,179.7,130.69,154,148.3c-26.16,17.92-53.66,27.2-74,26.6a112.57,112.57,0,0,0-2.13,12.46c24.77-3.47,98.53-20,138.77-95.05A112.29,112.29,0,0,0,205.16,89.93Z"/><path class="cls-12" d="M147.66,139.06c-22.56,15.45-46.26,23.53-63.9,23.19A112,112,0,0,0,80,174.9c20.3.59,47.8-8.69,74-26.6,25.71-17.61,44.11-39.44,51.17-58.37A111.5,111.5,0,0,0,192,88.72C185.75,105.09,169.83,123.87,147.66,139.06Z"/><path class="cls-11" d="M133.43,118.27c-11.4,7.81-23.28,12.5-33.1,13.71a110,110,0,0,0-6.58,9.53c12.46-.73,28.26-6.55,43.36-16.89s26.13-22.84,31.34-34.15q-5.34,1-10.6,2.48C153.1,101.5,144.57,110.64,133.43,118.27Z"/><path class="cls-13" d="M243.35,285.65A160.36,160.36,0,0,1,180.59,311a111.18,111.18,0,0,0,30-1.89,185.43,185.43,0,0,0,72.82-51,111.4,111.4,0,0,0,12-27.17A172.37,172.37,0,0,1,243.35,285.65Z"/><path class="cls-14" d="M93.57,258.16q1.47,2.39,3.07,4.73c1,1.47,2,2.9,3.11,4.3,21.41-5,59.13-17.56,101.95-49.29,46.86-34.72,70.82-63.47,80.87-77.4-.73-1.15-1.45-2.3-2.22-3.43-1.24-1.81-2.53-3.55-3.85-5.26-10.24,14.08-34.19,42.6-80.56,77C152.84,240.71,114.9,253.27,93.57,258.16Z"/><path class="cls-14" d="M77.34,206.6a111.32,111.32,0,0,0,1.29,11.52A221.5,221.5,0,0,0,176.32,181c36.87-25.1,57.53-55.13,68.64-77a110,110,0,0,0-10.35-5.39c-10.69,21.47-30.07,48.71-65,72.61C134.47,195.35,101.6,204,77.34,206.6Z"/><path class="cls-14" d="M133.64,296.87a110.38,110.38,0,0,0,14,6.69c23.17-6.32,54.84-18.26,84.94-40.51,29.52-21.81,52.16-46.54,67.16-65.32A110.88,110.88,0,0,0,298.5,183c-14.75,19.27-39.08,47.11-71.87,71.34C192.87,279.25,157.15,291.24,133.64,296.87Z"/><path class="cls-13" d="M192,88.72a111.07,111.07,0,0,0-12.64.31c-5.29,13.7-18.62,29.41-37.17,42.12-18.9,12.94-38.75,19.71-53.53,19.44a111.42,111.42,0,0,0-5,11.66c17.64.34,41.34-7.74,63.9-23.19C169.83,123.87,185.75,105.09,192,88.72Z"/><g class="cls-15"><circle class="cls-16" cx="188.48" cy="199.98" r="111.33" transform="translate(-80.02 141.49) rotate(-34.41)"/></g><g class="cls-17"><circle class="cls-18" cx="188.48" cy="199.98" r="111.33" transform="translate(-80.02 141.49) rotate(-34.41)"/></g><path class="cls-14" d="M49.84,310.2c4.81,7.06,30.75,21,162.32-69l2-1.35,2-1.34c131.52-90.13,127.86-119.36,123-126.4-2-2.86-11.87-16.71-70.3,10.91q3.58,3.75,6.85,7.89c15.86-5.1,26.9-5.71,30.34-.69,6.85,10-13.51,43.91-97.19,101.87-84.29,57.07-123.28,63.8-130.11,53.8-3.62-5.29,1.64-16.2,13.37-30.16q-2.56-4.42-4.67-9C38.28,292.7,47.85,307.29,49.84,310.2Z"/><path class="cls-9" d="M259.94,114.71q1.51,1.26,3,2.58C326.39,85.2,359,83.53,370,92.72c4.69,3.91,20.46,36-149.79,156C46.73,364.11,22.55,337.83,20.6,332,16,318.27,29.7,287.88,84.22,239.25c-.46-1.22-.88-2.44-1.3-3.66C0,306.42,7.85,335.14,10.47,339c5.55,8.1,35.06,35.31,212.71-85.9C400.4,131.24,385.7,93.89,380.15,85.79,377.55,82,354,64.55,259.94,114.71Z"/><path class="cls-19" d="M351.22,102.32c8.21,8.84,1.93,51.12-134.16,141.81C83.31,338.24,41.62,328.81,36.34,318c-5.36-11,8.34-37.31,49.08-75.65-.42-1-.81-2-1.2-3.06C29.7,287.88,16,318.27,20.6,332c2,5.79,26.13,32.08,199.63-83.27C390.49,128.68,374.72,96.64,370,92.72c-11-9.19-43.63-7.53-107.11,24.57.83.75,1.67,1.5,2.48,2.28C314.37,96.5,343,93.47,351.22,102.32Z"/><path class="cls-20" d="M36.34,318c5.27,10.85,47,20.28,180.71-73.84,136.09-90.68,142.37-133,134.16-141.81s-36.85-5.81-85.83,17.26c.74.71,1.46,1.45,2.18,2.18,40.89-19.51,69.8-25.68,78-14.09,8.49,12-16.38,59.49-129.65,134.79-111.15,78.4-164.42,84.43-172.54,72.17-8-12.06,9-37.53,43.29-69.46-.42-.95-.84-1.89-1.24-2.85C44.69,280.65,31,306.93,36.34,318Z"/><path class="cls-21" d="M268.8,123q3.58,3.75,6.85,7.89c15.86-5.1,26.9-5.71,30.34-.69,2.57,3.74,1.31,10.84-5.66,21.3a239.07,239.07,0,0,0,29.94-44.77C321.38,104.79,303.8,106.46,268.8,123Z"/><path class="cls-22" d="M262.91,117.3c33.06-16.72,57.73-25.17,75.35-28.14q1.43-3.59,2.67-7.15c-18.18,3.79-44.19,13.07-81,32.7Q261.45,116,262.91,117.3Z"/><path class="cls-23" d="M265.39,119.58C296.88,104.74,320,98.2,334.6,97.77q2-4.31,3.66-8.61c-17.63,3-42.3,11.42-75.35,28.14C263.75,118,264.58,118.8,265.39,119.58Z"/><path class="cls-24" d="M265.39,119.58c.74.71,1.46,1.45,2.18,2.18,28.51-13.6,51.19-20.71,65.09-19.84q1-2.07,1.94-4.15C320,98.2,296.88,104.74,265.39,119.58Z"/><g class="cls-25"><path class="cls-26" d="M226.9,137.53a133,133,0,0,0-23.33-35.24,99.55,99.55,0,1,0-18.84,197.43A133.29,133.29,0,0,0,226.9,137.53Z"/></g><g class="cls-27"><circle class="cls-28" cx="188.42" cy="200.03" r="111.33" transform="translate(-80.06 141.46) rotate(-34.41)"/></g></g></svg>