<svg xmlns="http://www.w3.org/2000/svg" xmlns:xlink="http://www.w3.org/1999/xlink" viewBox="0 0 400 400"><defs><style>.cls-1{mask:url(#mask);filter:url(#luminosity-noclip-5);}.cls-2,.cls-4,.cls-6,.cls-8{mix-blend-mode:multiply;}.cls-2{fill:url(#radial-gradient);}.cls-3{mask:url(#mask-2);filter:url(#luminosity-noclip-6);}.cls-4{fill:url(#radial-gradient-2);}.cls-5{mask:url(#mask-3);filter:url(#luminosity-noclip-7);}.cls-6{fill:url(#radial-gradient-3);}.cls-7{mask:url(#mask-4);filter:url(#luminosity-noclip-8);}.cls-8{fill:url(#linear-gradient);}.cls-9{fill:url(#radial-gradient-4);}.cls-10{mask:url(#mask-5);}.cls-11{fill:url(#radial-gradient-5);}.cls-12{fill:#0febf9;}.cls-13{fill:#2affff;}.cls-14{fill:#0ed8dd;}.cls-15{fill:#4cced8;}.cls-16{fill:#1165aa;}.cls-17{fill:#038eba;}.cls-18{mask:url(#mask-6);}.cls-19{fill:url(#radial-gradient-6);}.cls-20{mask:url(#mask-7);}.cls-21{fill:url(#radial-gradient-7);}.cls-22{fill:#151514;opacity:0.22;}.cls-23{mask:url(#mask-8);}.cls-24{fill:url(#linear-gradient-2);}.cls-25{filter:url(#luminosity-noclip-4);}.cls-26{filter:url(#luminosity-noclip-3);}.cls-27{filter:url(#luminosity-noclip-2);}.cls-28{filter:url(#luminosity-noclip);}</style><filter id="luminosity-noclip" x="68.58" y="-8601.75" width="248.64" height="32766" filterUnits="userSpaceOnUse" color-interpolation-filters="sRGB"><feFlood flood-color="#fff" result="bg"/><feBlend in="SourceGraphic" in2="bg"/></filter><mask id="mask" x="68.58" y="-8601.75" width="248.64" height="32766" maskUnits="userSpaceOnUse"><g class="cls-28"/></mask><radialGradient id="radial-gradient" cx="194.63" cy="187.32" r="124.31" gradientTransform="translate(-1.73 3.86)" gradientUnits="userSpaceOnUse"><stop offset="0.32"/><stop offset="0.61" stop-color="#020202"/><stop offset="0.72" stop-color="#090909"/><stop offset="0.8" stop-color="#141414"/><stop offset="0.86" stop-color="#252525"/><stop offset="0.91" stop-color="#3b3b3b"/><stop offset="0.95" stop-color="#565656"/><stop offset="1" stop-color="#767676"/><stop offset="1" stop-color="#7a7a7a"/></radialGradient><filter id="luminosity-noclip-2" x="68.58" y="-8601.75" width="248.65" height="32766" filterUnits="userSpaceOnUse" color-interpolation-filters="sRGB"><feFlood flood-color="#fff" result="bg"/><feBlend in="SourceGraphic" in2="bg"/></filter><mask id="mask-2" x="68.58" y="-8601.75" width="248.65" height="32766" maskUnits="userSpaceOnUse"><g class="cls-27"/></mask><radialGradient id="radial-gradient-2" cx="171.63" cy="166.33" r="204.3" gradientTransform="translate(-1.73 3.87)" gradientUnits="userSpaceOnUse"><stop offset="0"/><stop offset="0.07" stop-color="#090909"/><stop offset="0.19" stop-color="#212121"/><stop offset="0.34" stop-color="#484848"/><stop offset="0.51" stop-color="#7e7e7e"/><stop offset="0.53" stop-color="#848484"/><stop offset="0.55" stop-color="#929292"/><stop offset="0.61" stop-color="#b3b3b3"/><stop offset="0.67" stop-color="#cfcfcf"/><stop offset="0.73" stop-color="#e4e4e4"/><stop offset="0.8" stop-color="#f3f3f3"/><stop offset="0.88" stop-color="#fcfcfc"/><stop offset="1" stop-color="#fff"/></radialGradient><filter id="luminosity-noclip-3" x="68.58" y="-8601.75" width="248.64" height="32766" filterUnits="userSpaceOnUse" color-interpolation-filters="sRGB"><feFlood flood-color="#fff" result="bg"/><feBlend in="SourceGraphic" in2="bg"/></filter><mask id="mask-3" x="68.58" y="-8601.75" width="248.64" height="32766" maskUnits="userSpaceOnUse"><g class="cls-26"/></mask><radialGradient id="radial-gradient-3" cx="142.24" cy="143.23" r="189.19" gradientTransform="translate(-1.75 3.86)" gradientUnits="userSpaceOnUse"><stop offset="0.32"/><stop offset="0.57" stop-color="#020202"/><stop offset="0.67" stop-color="#090909"/><stop offset="0.73" stop-color="#141414"/><stop offset="0.78" stop-color="#252525"/><stop offset="0.83" stop-color="#3b3b3b"/><stop offset="0.87" stop-color="#575757"/><stop offset="0.9" stop-color="#777"/><stop offset="0.94" stop-color="#9d9d9d"/><stop offset="0.97" stop-color="#c8c8c8"/><stop offset="0.99" stop-color="#f6f6f6"/><stop offset="1" stop-color="#fff"/></radialGradient><filter id="luminosity-noclip-4" x="78.33" y="-8601.75" width="170.46" height="32766" filterUnits="userSpaceOnUse" color-interpolation-filters="sRGB"><feFlood flood-color="#fff" result="bg"/><feBlend in="SourceGraphic" in2="bg"/></filter><mask id="mask-4" x="78.33" y="-8601.75" width="170.46" height="32766" maskUnits="userSpaceOnUse"><g class="cls-25"/></mask><linearGradient id="linear-gradient" x1="131.39" y1="85.49" x2="131.39" y2="-153.31" gradientTransform="translate(79.8 309.33) rotate(-27.23)" gradientUnits="userSpaceOnUse"><stop offset="0.32"/><stop offset="1" stop-color="#595959"/></linearGradient><radialGradient id="radial-gradient-4" cx="194.63" cy="187.32" r="126" gradientTransform="translate(-1.73 3.86)" gradientUnits="userSpaceOnUse"><stop offset="0" stop-color="#2cb7cb"/><stop offset="0.78" stop-color="#0eb5be"/><stop offset="1" stop-color="#2cb7cb"/></radialGradient><filter id="luminosity-noclip-5" x="68.58" y="66.86" width="248.64" height="248.64" filterUnits="userSpaceOnUse" color-interpolation-filters="sRGB"><feFlood flood-color="#fff" result="bg"/><feBlend in="SourceGraphic" in2="bg"/></filter><mask id="mask-5" x="68.58" y="66.86" width="248.64" height="248.64" maskUnits="userSpaceOnUse"><g class="cls-1"><circle class="cls-2" cx="192.9" cy="191.18" r="124.32" transform="translate(-76.37 155.75) rotate(-37.25)"/></g></mask><radialGradient id="radial-gradient-5" cx="194.63" cy="187.32" r="124.31" gradientTransform="translate(-1.73 3.86)" gradientUnits="userSpaceOnUse"><stop offset="0.32" stop-color="#2affff"/><stop offset="0.9" stop-color="#2affff"/><stop offset="1" stop-color="#2affff"/></radialGradient><filter id="luminosity-noclip-6" x="68.58" y="66.86" width="248.65" height="248.64" filterUnits="userSpaceOnUse" color-interpolation-filters="sRGB"><feFlood flood-color="#fff" result="bg"/><feBlend in="SourceGraphic" in2="bg"/></filter><mask id="mask-6" x="68.58" y="66.86" width="248.65" height="248.64" maskUnits="userSpaceOnUse"><g class="cls-3"><circle class="cls-4" cx="192.9" cy="191.18" r="124.32" transform="translate(-76.37 155.75) rotate(-37.25)"/></g></mask><radialGradient id="radial-gradient-6" cx="171.63" cy="166.33" r="204.3" gradientTransform="translate(-1.73 3.87)" gradientUnits="userSpaceOnUse"><stop offset="0" stop-color="#2affff"/><stop offset="0.05" stop-color="#2bf7f6"/><stop offset="0.12" stop-color="#2ee2de"/><stop offset="0.21" stop-color="#34c0b7"/><stop offset="0.32" stop-color="#3b9081"/><stop offset="0.44" stop-color="#44543c"/><stop offset="0.53" stop-color="#4c1f00"/><stop offset="0.6" stop-color="#3e1a02"/><stop offset="0.7" stop-color="#2f1604"/><stop offset="0.82" stop-color="#261306"/><stop offset="1" stop-color="#231206"/></radialGradient><filter id="luminosity-noclip-7" x="68.58" y="66.83" width="248.64" height="248.64" filterUnits="userSpaceOnUse" color-interpolation-filters="sRGB"><feFlood flood-color="#fff" result="bg"/><feBlend in="SourceGraphic" in2="bg"/></filter><mask id="mask-7" x="68.58" y="66.83" width="248.64" height="248.64" maskUnits="userSpaceOnUse"><g class="cls-5"><circle class="cls-6" cx="192.91" cy="191.15" r="124.32" transform="translate(-76.35 155.75) rotate(-37.25)"/></g></mask><radialGradient id="radial-gradient-7" cx="142.24" cy="143.23" r="189.19" gradientTransform="translate(-1.75 3.86)" gradientUnits="userSpaceOnUse"><stop offset="0.32" stop-color="#2cb7cb"/><stop offset="0.9" stop-color="#2cb7cb"/><stop offset="1" stop-color="#2cb7cb"/></radialGradient><filter id="luminosity-noclip-8" x="78.33" y="80.39" width="170.46" height="222.33" filterUnits="userSpaceOnUse" color-interpolation-filters="sRGB"><feFlood flood-color="#fff" result="bg"/><feBlend in="SourceGraphic" in2="bg"/></filter><mask id="mask-8" x="78.33" y="80.39" width="170.46" height="222.33" maskUnits="userSpaceOnUse"><g class="cls-7"><path class="cls-8" d="M232.29,119.41a148.67,148.67,0,0,0-28-38,111.16,111.16,0,1,0-10.08,221.23A148.84,148.84,0,0,0,232.29,119.41Z"/></g></mask><linearGradient id="linear-gradient-2" x1="131.39" y1="85.49" x2="131.39" y2="-153.31" gradientTransform="translate(79.8 309.33) rotate(-27.23)" gradientUnits="userSpaceOnUse"><stop offset="0.32" stop-color="#fff"/><stop offset="1" stop-color="#fff"/></linearGradient></defs><title>planet</title><g id="uranus"><circle class="cls-9" cx="192.9" cy="191.19" r="124.32" transform="translate(-76.37 155.75) rotate(-37.25)"/><g class="cls-10"><circle class="cls-11" cx="192.9" cy="191.18" r="124.32" transform="translate(-76.37 155.75) rotate(-37.25)"/></g><path class="cls-12" d="M69.53,176.13c3.28.21,6.09.32,7.85-.58,4.12-2.12,17.37-8,25.54-13.71s24.62-14.21,36.19-20.94,23.55-23,32-30.43,24.61-25.68,25.2-30.32c.4-3.14,8.59-7.2,10.52-12.46a124.62,124.62,0,0,0-27.33-.09c-4.11,9.6-10.28,16-13.75,20.67-6,8.18-26.32,34.54-47.67,46.23s-28.13,20.3-42.59,26.86c0,0-1.29.12-3.3.38A126,126,0,0,0,69.53,176.13Z"/><path class="cls-13" d="M116.23,172.84C123.17,167.56,150,151,150,151s21-8.63,32.63-24.81S217,80.82,219,72.51a9,9,0,0,1,1.19-2.58,125.46,125.46,0,0,0-13.44-2.25c-1.93,5.26-4.76,10.25-5.16,13.39-.58,4.64-21.39,24.05-29.79,31.51s-21.16,21.57-32.72,28.31-26.87,17.35-35.05,23-22.56,9.48-26.68,11.6c-1.76.9-4.56.8-7.85.58a124.17,124.17,0,0,0-.84,19.56,106.45,106.45,0,0,0,12.84-5.08C91,186,109.29,178.11,116.23,172.84Z"/><path class="cls-12" d="M219,72.51c-2,8.31-25.81,36.5-37.49,52.68S149,147.66,149,147.66s-28.7,15-35.64,20.32S91,186,81.54,190.61a106.45,106.45,0,0,1-12.84,5.08,124,124,0,0,0,2,18.51c2.37-1,4.92-2.15,7.44-3.31,6.95-3.2,14.4-5.74,21.59-10.68s16.83-14.89,23.79-18.09,27.63-13.71,33-20.39,23.16-9.65,27.78-16.29,13.69-14.19,21.41-25.28,15.25-16.29,18.95-21.7,9.3,1.27,11.68-16.18a30.56,30.56,0,0,1,1.75-6.89,124.86,124.86,0,0,0-17.89-5.44A9,9,0,0,0,219,72.51Z"/><path class="cls-14" d="M94.75,159.06A250.6,250.6,0,0,0,131,134.25c11.1-9,23.14-20.19,33.41-29.31,8.4-7.46,16.25-18.19,18.76-22.14,3.43-5.39,8.69-15.91,8.69-15.91a122.63,122.63,0,0,0-12.4.7c-4.11,9.6-10.28,16-13.75,20.67-6,8.18-26.32,34.54-47.67,46.23s-28.13,20.3-42.59,26.86c0,0-1.29.12-3.3.38q-.82,3.36-1.44,6.76S86,163.89,94.75,159.06Z"/><path class="cls-14" d="M187.95,129.85c-27.24,25.19-66.19,43.54-73.15,48.78-23.54,17.7-45.85,22.07-45.61,24.57q.53,5.51,1.55,11c2.37-1,4.92-2.15,7.44-3.31,6.95-3.2,14.4-5.74,21.59-10.68s16.83-14.89,23.79-18.09,27.63-13.71,33-20.39,23.16-9.65,27.78-16.29,13.69-14.19,21.41-25.28,15.25-16.29,18.95-21.7,9.3,1.27,11.68-16.18a30.56,30.56,0,0,1,1.75-6.89q-4.62-1.8-9.36-3.21C225.93,71.32,223.43,97,187.95,129.85Z"/><path class="cls-15" d="M235.59,103.19c-5.93,6.6-13.94,13.2-20.37,19.14S195.09,148,191.8,150.52s-22.52,17.68-38,24.75S135.23,189.92,131,192.6s-28.19,17.78-37.12,22.49c-5.57,2.94-14.71,6.76-20.81,9.23.78,2.84,1.65,5.66,2.65,8.46,7.2-4.05,17.92-10.15,24.16-13.91,10-6,35.27-22.18,42.47-27.11S191.51,159.69,196.3,155s23.28-31.73,31.88-39.63,27.61-19.23,28.22-28c.07-.92.17-1.88.32-2.86q-2.59-1.55-5.23-3c-.51.9-1,1.84-1.49,2.88C247,90.83,241.52,96.59,235.59,103.19Z"/><path class="cls-16" d="M316.2,206.94a212.5,212.5,0,0,1-16,15.11c-12.63,10.85-18.52,24.06-26.82,34S251.69,275.11,236.31,289c-13.09,11.78-43.89,18.79-56.73,25.78a125.07,125.07,0,0,0,19.92.58c7-3,19.8-3.37,28.84-8.52,15.08-8.59,20.66-15,30.66-23.37s18.81-20.77,33.41-31.87c9-6.83,13.84-14.08,18.48-21.22A124.87,124.87,0,0,0,316.2,206.94Z"/><path class="cls-17" d="M295.27,220.54c-5.29,6.75-25.65,23.49-27.84,29.84s-21.38,15.82-32.65,26.48-26.94,12.67-39.49,22.21c-9.22,7-17,10.7-23.9,14.52,2.71.48,5.44.85,8.18,1.15,12.85-7,42.13-12.73,55.22-24.51,15.39-13.86,28.37-22.12,36.68-32,11.06-13.21,21.47-21.64,31.76-30.47,5.52-4.74,8.1-15.61,13-20.79a124.8,124.8,0,0,0,.95-19.17c-3.28,5.06-7.9,9.57-10.72,14.07C302.43,208.24,300.57,213.79,295.27,220.54Z"/><path class="cls-16" d="M287.28,210.26c-6.81,8.19-11,22-23.73,27.94s-19.37,13.69-30.25,26.13-25.16,16-30.11,19.77S177.76,295.21,166.76,302c-4.9,3-9.18,5.38-12.87,7.21a124.85,124.85,0,0,0,17.5,4.39c6.87-3.82,14.68-7.51,23.9-14.52,12.56-9.55,27.23-12.87,38.49-23.53s31.46-18.82,33.65-25.17,21-21.89,26.26-28.64,8.73-13.5,12.73-19.9c2.82-4.51,7.43-9,10.72-14.07a124.35,124.35,0,0,0-1.27-14.87c-2.93,2.37-5.72,4.66-8.07,6.75C299.72,186.84,294.09,202.07,287.28,210.26Z"/><path class="cls-14" d="M260.14,152.29C249.69,164.93,234,178,218.71,193.8s-30.47,25.07-39.87,35.35-38.42,18.34-46.6,24c-6.39,4.46-19.54,13.41-31,21.95a124.28,124.28,0,0,0,13.26,12.52l2.13-1.11c2.23-1.18,14.82-11.08,22.45-12.7s12.23-3.58,19.83-9.36c8.84-6.72,22.41-16.46,31-23.59,7.68-6.36,14.66-9.84,24.73-18.54s22.06-22.75,28.33-27.52c7.6-5.78,17.54-24.7,24.61-32.71,4.2-4.76,12-21.53,18.65-26.56,2.9-2.2,7.45-6.07,12.09-10.18-2-3.21-4.15-6.36-6.49-9.44-.57-.75-1.18-1.47-1.77-2.21a70.36,70.36,0,0,0-4.62,7.06C281.65,128.11,270.59,139.65,260.14,152.29Z"/><g class="cls-18"><circle class="cls-19" cx="192.9" cy="191.18" r="124.32" transform="translate(-76.37 155.75) rotate(-37.25)"/></g><g class="cls-20"><circle class="cls-21" cx="192.91" cy="191.15" r="124.32" transform="translate(-76.35 155.75) rotate(-37.25)"/></g><path class="cls-22" d="M384.08,60c9.65,9.4,15.07,50.94-155.92,180.26C57.59,369.28,19.45,354.18,13,342.37c-6.59-12,12.88-49.64,65.92-101.57,0,0-.25-.59-.74-1.72C20,296.34,2.56,332.36,11.85,346.45c3.76,5.7,30.92,34.33,218-103.91C413.12,99.19,393.12,68.05,386.29,59.09,375.88,45.4,339.12,54.36,270.1,93.67c1,.79,1.41,1.14,1.41,1.14C344.81,53.49,374.44,50.6,384.08,60Z"/><g class="cls-23"><path class="cls-24" d="M232.29,119.41a148.67,148.67,0,0,0-28-38,111.16,111.16,0,1,0-10.08,221.23A148.84,148.84,0,0,0,232.29,119.41Z"/></g><path class="cls-12" d="M195.5,280.26c-2.68-2.83-16.4,7.6-20.42,10.66C175.08,290.92,188.74,290.13,195.5,280.26Z"/><path class="cls-12" d="M201,281.39s3.4-7.92,11-8.83a9.21,9.21,0,0,1-5.53,5.24C202,279.48,201,281.39,201,281.39Z"/><path class="cls-12" d="M281.4,210.08s-1.57-4.69,4.81-8.55A12.89,12.89,0,0,1,281.4,210.08Z"/><path class="cls-12" d="M198.07,274.38s3.26-4.37,5.14-4.85Z"/><path class="cls-12" d="M208.1,268.9a12.08,12.08,0,0,1,6.13-2.88Z"/><path class="cls-12" d="M144.53,289.21a12.05,12.05,0,0,1,6.12-2.88Z"/><path class="cls-12" d="M215.56,271.41l3.53-3.78A6.48,6.48,0,0,1,215.56,271.41Z"/><path class="cls-12" d="M257.77,228.2l2.71-4.41A6.48,6.48,0,0,1,257.77,228.2Z"/><path class="cls-12" d="M258.75,233.9l3.53-3.78A6.48,6.48,0,0,1,258.75,233.9Z"/><path class="cls-12" d="M221.3,268.49l3.62-2.76A4.34,4.34,0,0,1,221.3,268.49Z"/><path class="cls-12" d="M157.27,285.41l3.62-2.75A4.33,4.33,0,0,1,157.27,285.41Z"/><path class="cls-12" d="M289.36,201.52s.79-4.43,2.8-5.44Z"/><path class="cls-12" d="M244.64,236.55a2.43,2.43,0,0,0-1.81,2.86Z"/><path class="cls-12" d="M169.08,288.18a2.43,2.43,0,0,0-1.81,2.86Z"/><path class="cls-12" d="M251.65,235.74s2.19-3.28,4.19-3.14Z"/><path class="cls-22" d="M270.1,93.67c.49.38.92.76,1.41,1.14C311.88,72.06,339,61,356.85,57.17c.27-.84.55-1.69.81-2.52C338.16,58.77,309.36,71.31,270.1,93.67Z"/></g></svg>