<svg xmlns="http://www.w3.org/2000/svg" xmlns:xlink="http://www.w3.org/1999/xlink" viewBox="0 0 400 400"><defs><style>.cls-1,.cls-3{mask:url(#mask);}.cls-1{filter:url(#luminosity-noclip-5);}.cls-2,.cls-4,.cls-6,.cls-8{mix-blend-mode:multiply;}.cls-2{fill:url(#radial-gradient);}.cls-3{filter:url(#luminosity-noclip-6);}.cls-4{fill:url(#radial-gradient-2);}.cls-5{mask:url(#mask-3);filter:url(#luminosity-noclip-7);}.cls-6{fill:url(#linear-gradient);}.cls-7{mask:url(#mask-4);filter:url(#luminosity-noclip-8);}.cls-8{fill:url(#radial-gradient-3);}.cls-9{fill:url(#radial-gradient-4);}.cls-10{mask:url(#mask-5);}.cls-11{fill:url(#radial-gradient-5);}.cls-12{fill:#bcb5a4;}.cls-13{fill:#e59a55;}.cls-14{fill:#f0efec;}.cls-15{fill:#ffe086;}.cls-16{fill:#ebcf8b;}.cls-17{mask:url(#mask-6);}.cls-18{fill:url(#radial-gradient-6);}.cls-19{mask:url(#mask-7);}.cls-20{fill:url(#linear-gradient-2);}.cls-21{mask:url(#mask-8);}.cls-22{fill:url(#radial-gradient-7);}.cls-23{filter:url(#luminosity-noclip-4);}.cls-24{filter:url(#luminosity-noclip-3);}.cls-25{filter:url(#luminosity-noclip);}</style><filter id="luminosity-noclip" x="34.59" y="-8601.75" width="335.16" height="32766" filterUnits="userSpaceOnUse" color-interpolation-filters="sRGB"><feFlood flood-color="#fff" result="bg"/><feBlend in="SourceGraphic" in2="bg"/></filter><mask id="mask" x="34.59" y="-8601.75" width="335.16" height="32766" maskUnits="userSpaceOnUse"><g class="cls-25"/></mask><radialGradient id="radial-gradient" cx="202.17" cy="199.07" r="167.58" gradientUnits="userSpaceOnUse"><stop offset="0.32"/><stop offset="0.61" stop-color="#020202"/><stop offset="0.72" stop-color="#090909"/><stop offset="0.8" stop-color="#141414"/><stop offset="0.86" stop-color="#252525"/><stop offset="0.91" stop-color="#3b3b3b"/><stop offset="0.95" stop-color="#565656"/><stop offset="1" stop-color="#767676"/><stop offset="1" stop-color="#7a7a7a"/></radialGradient><radialGradient id="radial-gradient-2" cx="171.17" cy="170.79" r="275.41" gradientUnits="userSpaceOnUse"><stop offset="0"/><stop offset="0.07" stop-color="#090909"/><stop offset="0.19" stop-color="#212121"/><stop offset="0.34" stop-color="#484848"/><stop offset="0.51" stop-color="#7e7e7e"/><stop offset="0.53" stop-color="#848484"/><stop offset="0.55" stop-color="#929292"/><stop offset="0.61" stop-color="#b3b3b3"/><stop offset="0.67" stop-color="#cfcfcf"/><stop offset="0.73" stop-color="#e4e4e4"/><stop offset="0.8" stop-color="#f3f3f3"/><stop offset="0.88" stop-color="#fcfcfc"/><stop offset="1" stop-color="#fff"/></radialGradient><filter id="luminosity-noclip-3" x="48.35" y="-8601.75" width="257.7" height="32766" filterUnits="userSpaceOnUse" color-interpolation-filters="sRGB"><feFlood flood-color="#fff" result="bg"/><feBlend in="SourceGraphic" in2="bg"/></filter><mask id="mask-3" x="48.35" y="-8601.75" width="257.7" height="32766" maskUnits="userSpaceOnUse"><g class="cls-24"/></mask><linearGradient id="linear-gradient" x1="139.17" y1="217.19" x2="139.17" y2="-104.5" gradientTransform="translate(39.51 139.79) rotate(10.02)" gradientUnits="userSpaceOnUse"><stop offset="0.32"/><stop offset="1" stop-color="#595959"/></linearGradient><filter id="luminosity-noclip-4" x="34.46" y="-8601.75" width="335.16" height="32766" filterUnits="userSpaceOnUse" color-interpolation-filters="sRGB"><feFlood flood-color="#fff" result="bg"/><feBlend in="SourceGraphic" in2="bg"/></filter><mask id="mask-4" x="34.46" y="-8601.75" width="335.16" height="32766" maskUnits="userSpaceOnUse"><g class="cls-23"/></mask><radialGradient id="radial-gradient-3" cx="131.39" cy="139.68" r="255.03" gradientUnits="userSpaceOnUse"><stop offset="0.32"/><stop offset="0.57" stop-color="#020202"/><stop offset="0.67" stop-color="#090909"/><stop offset="0.73" stop-color="#141414"/><stop offset="0.78" stop-color="#252525"/><stop offset="0.83" stop-color="#3b3b3b"/><stop offset="0.87" stop-color="#575757"/><stop offset="0.9" stop-color="#777"/><stop offset="0.94" stop-color="#9d9d9d"/><stop offset="0.97" stop-color="#c8c8c8"/><stop offset="0.99" stop-color="#f6f6f6"/><stop offset="1" stop-color="#fff"/></radialGradient><radialGradient id="radial-gradient-4" cx="202.17" cy="199.07" r="169.85" gradientUnits="userSpaceOnUse"><stop offset="0" stop-color="#7a380b"/><stop offset="0.78" stop-color="#e59a55"/><stop offset="1" stop-color="#f0efec"/></radialGradient><filter id="luminosity-noclip-5" x="34.59" y="31.49" width="335.16" height="335.16" filterUnits="userSpaceOnUse" color-interpolation-filters="sRGB"><feFlood flood-color="#fff" result="bg"/><feBlend in="SourceGraphic" in2="bg"/></filter><mask id="mask-5" x="34.59" y="31.49" width="335.16" height="335.16" maskUnits="userSpaceOnUse"><g class="cls-1"><path class="cls-2" d="M369.75,199.08A167.58,167.58,0,1,1,202.17,31.49,167.58,167.58,0,0,1,369.75,199.08Z"/></g></mask><radialGradient id="radial-gradient-5" cx="202.17" cy="199.07" r="167.58" gradientUnits="userSpaceOnUse"><stop offset="0.32" stop-color="#9e721a"/><stop offset="0.58" stop-color="#9f731c"/><stop offset="0.67" stop-color="#a27723"/><stop offset="0.74" stop-color="#a77f2f"/><stop offset="0.79" stop-color="#ae893f"/><stop offset="0.84" stop-color="#b79755"/><stop offset="0.88" stop-color="#c3a771"/><stop offset="0.92" stop-color="#d0bb91"/><stop offset="0.95" stop-color="#e0d3b7"/><stop offset="0.98" stop-color="#f2ece0"/><stop offset="1" stop-color="#fff"/></radialGradient><filter id="luminosity-noclip-6" x="34.59" y="31.49" width="335.16" height="335.16" filterUnits="userSpaceOnUse" color-interpolation-filters="sRGB"><feFlood flood-color="#fff" result="bg"/><feBlend in="SourceGraphic" in2="bg"/></filter><mask id="mask-6" x="34.59" y="31.49" width="335.16" height="335.16" maskUnits="userSpaceOnUse"><g class="cls-3"><path class="cls-4" d="M369.75,199.08A167.58,167.58,0,1,1,202.17,31.49,167.58,167.58,0,0,1,369.75,199.08Z"/></g></mask><radialGradient id="radial-gradient-6" cx="171.17" cy="170.79" r="275.41" gradientUnits="userSpaceOnUse"><stop offset="0" stop-color="#ffc248"/><stop offset="0.06" stop-color="#f6ba44"/><stop offset="0.15" stop-color="#dea43b"/><stop offset="0.27" stop-color="#b7802b"/><stop offset="0.41" stop-color="#815015"/><stop offset="0.53" stop-color="#4c1f00"/><stop offset="0.6" stop-color="#3e1a02"/><stop offset="0.7" stop-color="#2f1604"/><stop offset="0.82" stop-color="#261306"/><stop offset="1" stop-color="#231206"/></radialGradient><filter id="luminosity-noclip-7" x="48.35" y="46.84" width="257.7" height="272.91" filterUnits="userSpaceOnUse" color-interpolation-filters="sRGB"><feFlood flood-color="#fff" result="bg"/><feBlend in="SourceGraphic" in2="bg"/></filter><mask id="mask-7" x="48.35" y="46.84" width="257.7" height="272.91" maskUnits="userSpaceOnUse"><g class="cls-5"><path class="cls-6" d="M303,154.19a200.23,200.23,0,0,0,1-63.61A149.84,149.84,0,1,0,112.67,319.75C205.27,316.51,286.22,249.1,303,154.19Z"/></g></mask><linearGradient id="linear-gradient-2" x1="139.17" y1="217.19" x2="139.17" y2="-104.5" gradientTransform="translate(39.51 139.79) rotate(10.02)" gradientUnits="userSpaceOnUse"><stop offset="0.32" stop-color="#fff"/><stop offset="1" stop-color="#fff"/></linearGradient><filter id="luminosity-noclip-8" x="34.46" y="31.49" width="335.16" height="335.16" filterUnits="userSpaceOnUse" color-interpolation-filters="sRGB"><feFlood flood-color="#fff" result="bg"/><feBlend in="SourceGraphic" in2="bg"/></filter><mask id="mask-8" x="34.46" y="31.49" width="335.16" height="335.16" maskUnits="userSpaceOnUse"><g class="cls-7"><circle class="cls-8" cx="202.04" cy="199.08" r="167.58"/></g></mask><radialGradient id="radial-gradient-7" cx="131.39" cy="139.68" r="255.03" gradientUnits="userSpaceOnUse"><stop offset="0.32" stop-color="#e59a55"/><stop offset="0.9" stop-color="#e59a55"/><stop offset="1" stop-color="#e59a55"/></radialGradient></defs><title>planet</title><g id="venus"><path class="cls-9" d="M369.75,199.08A167.58,167.58,0,1,1,202.17,31.49,167.58,167.58,0,0,1,369.75,199.08Z"/><g class="cls-10"><path class="cls-11" d="M369.75,199.08A167.58,167.58,0,1,1,202.17,31.49,167.58,167.58,0,0,1,369.75,199.08Z"/></g><path class="cls-12" d="M107.12,70.24c21.25-4,28.51,2,61,6.91S243.83,70.31,257,66.44c7.56-2.22,19.38-4,31.62-11-3.89-2.34-7.89-4.51-12-6.54-14.1,6.56-29.6,12-39.35,13.26-18.55,2.32-64.14.77-85-4.77-9.68-2.57-16.5-4.39-23.11-9.21A167.74,167.74,0,0,0,96.61,68.94C99,70.3,107.12,70.24,107.12,70.24Z"/><path class="cls-13" d="M82.07,82.26c3.35,2.91,6.28,5.32,8.9,5.78,6.15,1.09,25.18,5.56,38.6,6.12s38,4.84,55.91,7.06,44-5.42,59.12-6.57,47.36-7.47,51.78-12c3-3.05,15.09-.72,21.46-4.79a168.08,168.08,0,0,0-29.25-22.4c-12.24,6.95-24.06,8.74-31.62,11C243.83,70.31,200.55,82,168.09,77.16S121.34,76,100.47,71.23c0,0-1.48-.93-3.86-2.28A168.88,168.88,0,0,0,82.07,82.26Z"/><path class="cls-14" d="M134.86,116.83c11.75,0,54.1,4.09,54.1,4.09s29.52,7.83,55.26,0S318.09,100.32,327,93a12,12,0,0,1,3.38-1.79,168.63,168.63,0,0,0-12.59-13.37C311.47,82,304.36,85,301.37,88c-4.41,4.51-42.58,8.36-57.68,9.51s-40.31,5.88-58.21,3.67-43-3.3-56.42-3.86S97.12,89.13,91,88c-2.62-.46-5.54-2.87-8.9-5.78a168.32,168.32,0,0,0-16.86,20.3,143.33,143.33,0,0,0,17.92,5C97.12,110.39,123.11,116.83,134.86,116.83Z"/><path class="cls-15" d="M327,93c-8.95,7.27-57.48,18.12-83.21,25.95s-53.28-2.46-53.28-2.46-43.08-7.27-54.82-7.27-38.6,1.12-52.58-1.68a143.33,143.33,0,0,1-17.92-5,167.55,167.55,0,0,0-12.91,21.53c3.39.83,7,1.71,10.69,2.52,10.07,2.24,20.14,5.59,31.89,6.15s30.21-2.24,40.28,0,40.84,7.83,52,5,32.73,8.54,43.1,5.19,26.27-4.07,43.61-9.66,29.65-5,38-7.83,9,9,25.73-7.83a41.41,41.41,0,0,1,7.5-6,168.54,168.54,0,0,0-14.75-20.44A12,12,0,0,0,327,93Z"/><path class="cls-14" d="M319.77,139.48c-11.75,2.24-25.73,2.8-37.48,3.93s-42.53,11.11-48.12,11.15-38.59.59-61-4.44-31.89.56-38.6,0S89.85,146.19,76.42,144c-8.37-1.4-21.31-4.75-29.86-7.07-1.48,3.69-2.85,7.43-4.06,11.24,11,1.52,27.51,3.74,37.28,4.78,15.66,1.68,55.94,5,67.69,5.57s78.91,5.67,87.86,4.57S286.2,148,301.87,146.53s45.31,1.9,53.14-7.05c.82-.94,1.73-1.88,2.68-2.81q-1.51-3.77-3.2-7.45c-1.29.55-2.59,1.15-3.95,1.87C342.15,135.56,331.52,137.24,319.77,139.48Z"/><path class="cls-12" d="M65.21,167.87c22,5.5,44.83,14.19,52.64,13.82,10.63-.5,63.83,5.27,68.4,6.05,31.11,5.33,56.4-7.26,82.69-6.05S302.43,163,329.84,163c20.55,0,26.64-3.22,35-4.21a166,166,0,0,0-7.14-22.1c-1,.94-1.85,1.88-2.68,2.81-7.83,9-33.29,13.23-49,14.68s-58.3,12.53-67.25,13.62-78.68.59-90.42,0-52.94-13.2-68.61-14.88c-9.77-1-26.24-3.26-37.28-4.78-1.23,3.84-2.3,7.75-3.25,11.71C48.81,158.64,59.36,166.41,65.21,167.87Z"/><path class="cls-16" d="M142.74,199.08c-17.66-3.27-60.18-6.95-77.52-6.76-7.76.08-18.55-11.46-29.49-12.5a168.92,168.92,0,0,0-1.14,19.27c0,5.16.27,10.24.72,15.28,19.28.2,40.69,1.32,51.18,1.76,13.43.56,51.16,15.59,69.62,12.23s42.26,8,71.62,3.52,64.58-9.19,86.11-14.22,35-13.84,45.09-18.57a95.3,95.3,0,0,1,10.72-3.81,169.12,169.12,0,0,0-2.16-23.53,323.9,323.9,0,0,1-45.88,10C300.36,184.68,214.29,212.31,142.74,199.08Z"/><path class="cls-14" d="M321.62,316.58a285.07,285.07,0,0,1-29.48,3.17c-22.41,1.34-39.51,10.71-56.51,14.57s-38.84,2.78-66.66,5.09c-23.65,2-62.43-15.64-81.92-18.62A168.67,168.67,0,0,0,108,337.67c9.9,2.5,24,12.55,37.9,14.4,23.18,3.08,34.44.7,52-.07s37.12-6.94,61.85-6.94c15.22,0,26.34-3.81,37.14-7.7A168,168,0,0,0,321.62,316.58Z"/><path class="cls-12" d="M288.07,314.11c-11.19,2.92-46.69,4.27-54.22,9.31S198,323,177.2,325.2s-39.24-8.38-60.5-8.38c-15.62,0-27-2.41-37.5-3.92,2.52,2.72,5.15,5.35,7.84,7.9,19.49,3,55.6,20.72,79.25,18.75,27.82-2.32,48.5-.59,65.49-4.45,22.65-5.15,40.69-5.7,58.94-6.79,9.79-.59,21.43-10.14,30.89-11.72a168.86,168.86,0,0,0,16.66-19.8c-7.65,2.75-16.29,3.81-23,6.35C305.78,306.74,299.25,311.18,288.07,314.11Z"/><path class="cls-14" d="M287.88,296.55c-14,3.24-29.8,14.67-48.26,10.63s-32-1.12-53.77,3.35-40.05-3.35-48.44-3.35S101,298.35,83.7,296.67C76,295.92,69.46,295,64,293.91a168.38,168.38,0,0,0,15.2,19c10.49,1.5,21.88,3.92,37.5,3.92,21.26,0,39.72,8.4,60.5,6.16s49.11,5.48,56.64.44,40.36-6.38,51.56-9.31,20.38-7.37,29.9-11c6.7-2.54,15.34-3.61,23-6.35a167.38,167.38,0,0,0,10.77-17c-5.08.15-9.94.33-14.17.66C320.33,281.57,301.87,293.32,287.88,296.55Z"/><path class="cls-16" d="M315.85,265.91c-3.92,2.24-29.78,22.52-46,22s-50.52,1.11-61.1,3.35-36.22.65-53.56.65-60.86-8.06-75.4-6.94c-6.85.53-15.39-1.84-24.32-4.85q3.95,7.14,8.55,13.83c5.44,1,11.95,2,19.68,2.76,17.34,1.68,45.32,10.5,53.71,10.5s26.18,4.47,48,0,37.09-6,55.55-2,32.94-5.41,46.93-8.65,32.45-15,47-16.1c4.23-.33,9.09-.51,14.17-.66a167,167,0,0,0,11.82-26.87c-6.2,0-11.35.35-13.12,1.24C342.15,257,319.77,263.67,315.85,265.91Z"/><path class="cls-14" d="M306.06,237.26c-8.39,1.68-40.35,15.66-51,15.66s-44.58-1.12-62.48,0-20.74-3.49-34.16-2.93c-15.07.63-38.5-3-53.47-3-12.86,0-24.26-5.25-33.78-9.72s-25.32,2.47-28.68,1.91l-3.18-.55a167.17,167.17,0,0,0,5.92,19.33c9.74,3.71,20.25,7.11,28.95,5.95,16.78-2.24,34.66,12.14,50.32,8.79s43.28,2.39,48.87.71,34,5.6,43.53,1.41c14.38-6.35,37.7-.85,47.58-4.27,14.55-5,29-12.46,37.36-13.58s21.26-6.15,31.89-12.27c9.33-5.38,20.82-3.93,31.57-7.43A167.26,167.26,0,0,0,369,214.5c-8.32.63-15.06,8.27-20,8.27C337.86,222.77,314.45,235.58,306.06,237.26Z"/><path class="cls-13" d="M306.06,212.2c-21.53,5-49,6.27-78.33,10.74s-53.16,2-71.62,5.4-56.19-11.67-69.62-12.23c-10.49-.44-31.91-1.55-51.18-1.76a167.26,167.26,0,0,0,4,24.26l3.18.55c3.36.56,24.95.2,34.46,4.68S93,250,105.88,250c15,0,37.48.63,52.55,0,13.43-.56,23.76,1.4,41.66.28s42.23-6.42,52.86-6.42c12.87,0,39-12.19,53.1-15,8.39-1.68,30.5-13.28,41.68-13.28,4.91,0,13-.43,21.27-1.06.46-5.08.74-10.22.74-15.42,0-1.28-.07-2.54-.09-3.81a95.3,95.3,0,0,0-10.72,3.81C348.86,203.81,327.58,207.17,306.06,212.2Z"/><g class="cls-17"><path class="cls-18" d="M369.75,199.08A167.58,167.58,0,1,1,202.17,31.49,167.58,167.58,0,0,1,369.75,199.08Z"/></g><g class="cls-19"><path class="cls-20" d="M303,154.19a200.23,200.23,0,0,0,1-63.61A149.84,149.84,0,1,0,112.67,319.75C205.27,316.51,286.22,249.1,303,154.19Z"/></g><g class="cls-21"><circle class="cls-22" cx="202.04" cy="199.08" r="167.58"/></g></g></svg>