<?xml version="1.0" encoding="utf-8"?>
<!-- Generator: Adobe Illustrator 21.1.0, SVG Export Plug-In . SVG Version: 6.00 Build 0)  -->
<svg version="1.1" id="Layer_1" xmlns="http://www.w3.org/2000/svg" xmlns:xlink="http://www.w3.org/1999/xlink" x="0px" y="0px"
	 viewBox="0 0 800 800" style="enable-background:new 0 0 800 800;" xml:space="preserve">
<style type="text/css">
	.st0{fill:#76C9B4;}
</style>
<g>
	<g>
		<g>
			<g>
				<g>
					<path class="st0" d="M753.6,115.8c-0.7-0.1-1.7,0.1-2.5,0.4c-0.4,0.1-0.7,0.5-0.8,0.9c0,0.1-0.1,0.2-0.1,0.3c0,0.1,0,0.2,0,0.3
						c0,0.2,0,0.4,0.1,0.6c1.7,0.3,3.3,0.7,5,1l-0.8-1.5l-0.4-0.8L753.6,115.8z"/>
					<path class="st0" d="M744.5,126.5c1.1,0.9,2.6,2,4.4,2.9c1.8,0.9,3.9,1.5,6.2,1.3c-2.2-1.3-2.8-1.9-3.5-2.6
						c-0.7-0.6-1.5-1.3-4.2-2.5c-0.4-1.4,1.8-2.3,3.5-2c-0.6-0.3-0.3-0.9-0.2-1.5c0.1-0.6-0.1-1.3-1.7-1.7c-0.9,0.5-1.7,1-2.2,1.5
						c-0.5,0.5-0.8,1-0.9,1.5c-0.1,0.5,0,1.1,0.3,1.7c0.3,0.6,0.8,1.2,1.5,1.9C746.6,127.4,745.4,126.7,744.5,126.5z"/>
					<path class="st0" d="M675.5,230.1l1-0.2C676.1,229.8,675.8,229.9,675.5,230.1z"/>
					<path class="st0" d="M620,284.4c0.3-0.5,0.2-1-0.1-1.4C619.8,283.7,619.7,284.2,620,284.4z"/>
					<path class="st0" d="M606.8,289.7c0.3-0.1,0.5-0.2,0.8-0.3C607.1,289.3,606.7,289.3,606.8,289.7z"/>
					<path class="st0" d="M675.5,230.1l-2.5,0.6C674.1,231.8,674.6,230.6,675.5,230.1z"/>
					<path class="st0" d="M751.4,147.4c-0.1-0.5-0.4-1.1-0.8-1.6c0.1,0.4,0.1,0.9,0.1,1.3C750.9,147.2,751.1,147.3,751.4,147.4z"/>
					<path class="st0" d="M693.7,201.1l0.4-0.5c-0.3-0.5-0.8-1-1.3-1.6L693.7,201.1z"/>
					<path class="st0" d="M707.9,179.6c-0.5,0.4,2.9,2.8,4.3,4c-1.3-1.2-1.7-2-1.7-2.6C709.8,180.6,709,180.1,707.9,179.6z"/>
					<path class="st0" d="M733.4,147.3l-0.2-0.9C733.3,146.6,733.3,147,733.4,147.3z"/>
					<path class="st0" d="M681.6,215.2c-0.5-0.4-1-0.6-1.3-0.8C680.7,214.8,681.1,215,681.6,215.2z"/>
					<path class="st0" d="M109.6,682.8c-0.1-0.3-0.3-0.4-0.4-0.6C109.3,682.6,109.4,682.9,109.6,682.8z"/>
					<path class="st0" d="M72.7,680.8l0.3-0.4c-0.4-0.7-0.7-1.4-1.1-2.1L72.7,680.8z"/>
					<path class="st0" d="M585.4,302.1c0.1,0,0.1,0,0.1,0C585.7,301.3,585.4,301.6,585.4,302.1z"/>
					<path class="st0" d="M412.9,443c4.2,1.5-0.6,6.3,4.9,7.4C416.6,449.3,416.9,443.1,412.9,443z"/>
					<path class="st0" d="M750.6,148c-0.1,0.4-0.2,0.8-0.4,1.1C750.5,148.6,750.7,148.3,750.6,148z"/>
					<path class="st0" d="M417.9,450.4L417.9,450.4l0.6,0.1C418.2,450.4,418.1,450.4,417.9,450.4z"/>
					<path class="st0" d="M544.9,340.5c0.6,0.5,1.1,0.8,1.6,1C546.2,341.2,545.8,340.9,544.9,340.5z"/>
					<path class="st0" d="M580.4,317.9l-1.1,0.3C579.8,318.1,580.1,318,580.4,317.9z"/>
					<path class="st0" d="M532.1,358.9c-0.6,0.1-1.2-0.2-1.4,0.7c0.2,0.1,0.3,0.2,0.5,0.2C531,359.2,531.1,358.8,532.1,358.9z"/>
					<path class="st0" d="M514.4,373c0.3,0.2,0.6,0.3,0.8,0.4c0.1-0.2,0.3-0.4,0.4-0.6L514.4,373z"/>
					<path class="st0" d="M167.9,645.4c-1-0.7-2-1.7-2.8-2.6C166.9,645,164.6,647.7,167.9,645.4z"/>
					<path class="st0" d="M749.1,146.7c0.9,0.5,1.4,0.9,1.4,1.3c0.1-0.3,0.1-0.6,0.1-0.9C750.1,146.8,749.5,146.6,749.1,146.7z"/>
					<path class="st0" d="M552.1,384.9l-3.2,1.8C549.9,386.4,551.1,385.7,552.1,384.9z"/>
					<path class="st0" d="M306,557.6l-0.4,0.9C305.9,558.3,306.1,558.1,306,557.6z"/>
					<path class="st0" d="M540.8,394c-1.4-0.7-2.5-1-3.4-1c0.1,0.4,0.1,0.7,0.3,1.1L540.8,394z"/>
					<path class="st0" d="M165.1,642.7C165.1,642.7,165.1,642.7,165.1,642.7C165.1,642.7,165.1,642.7,165.1,642.7z"/>
					<path class="st0" d="M149.8,663.6c3-1.7-1.4-5.4-2.4-8.5c2.7-3.5,3.7,2.4,6.4,4.1c1.4-2.6,0.5-7.9,2.3-8.7
						c0.6,0.7,1.1,0.8,1.3,2c0.1-5.1,6.8-4.4,6.6-10.7c0.5,0.3,0.8,0.6,1.1,0.9c-1.9-2.1-3.4-4.4-4.3-6.2c1.3-0.9,0.6-4.4,3-1.7
						c-0.9,0.4-0.2,1.7,0,2.9l0.6-2.2c3.9,3.6-1,2.7,1,5.9c1.8-3.1,2.7-8.6,5.6-8.6c3.1,4-3.9,4.4,1.1,6.5l-4.2,0.3
						c6.6,5.3-2.2,0.7,4.4,6.6c5-1.3,3.4-5.1,8.3-6.4c-0.5-3-2.5-3.3-3-6.3c3.3-7.9,11.3,7.9,12.2-0.5c-0.6-3.5-3.5-9.2,1.4-8.3
						l1.9,5.5c4.4-2-2-8.4,4.3-7.7c0.4,2.4-2.2,3.6-1.2,3.8c5.1,2.1,0.3-3.9,2.4-5.2l3.1,4c3.9-3.3,6.7-9.4,11-13.2
						c0.5,1.4,0.5,3.3,2.5,3.9c4.7-5.9,13.2-7.6,20.6-8.7l-0.1-5.1c0.5-0.3,2,1.1,1.9,2.1c3.1,0-1.4-2.4-1.2-4.5
						c1.1-1.1,3,1,2.9,2.7c2-5.6,7.1-13.9,13.8-12.6l-0.1,1.6c4.2-0.6-1.1-9.8,4.1-8.3l-0.2,1c8.1-2.9,13.7-11.3,22.6-9.3
						c-2.4-5.9,8.5-2.2,4.2-9.8c6.4,1,6.1,3.1,13.3,1.8c1.7-0.6-0.7-6,0.6-8l2.5,3.8l-0.1-5.7l4.3,3.7l1.1-2.1
						c-0.8,0.2-2.6-0.8-3.2-1.9c1.6-3.5,8.4-1.7,9.8,0.2c1.5-2.5,2.9-5,4.3-7.5c0.9,1.6,0.1,2.9-0.1,4.4c0.9-6.2,3.3,3.6,4.1-2.1
						c-1-0.6-1.3-2.4-1.7-3.2c3.1,1.3,6.7-1.1,8.7-3.8l1.2,3c5.2-2.5,9.2-8,14.6-11.5c-2.7,0.1-5.3-4.8-4.1-6.2l3.3,3.6
						c-0.7-3.2-2.7-0.4-2.6-4.8c2.3-0.9,4.4,3.7,4.1,5.7l1.5-3c0.9,1.1,0.8,2.1,1.7,3.7c-0.7-3.2,6.9,1.2,5.4-4.1l0.9,1.1
						c5.4-3.6,6.9-6.5,11.1-9.7c-2.3-3.5,0-3.9-0.7-7.6c3.9-1.1,9.3-0.8,12.9-3.7c1.5-3.6-1.2-3.4-1.4-6.3c2.3,3,6,0.1,5.5,3.7
						c4.2-3.7,5.4-4.7,9.5-11.2c-1.5-0.8-2.6-0.9-3-2.2c0.7-1.2,3.3-0.3,4.2,1.3l-0.1,0.5c1.6-4.6,7-4.9,12-5.3
						c5-0.4,9.7-1.1,10-6.2l-0.1,0.5l2.9-7.2c2.8-1.2,0.2,3.4,3.4,4c2.1-9.3,9.6-5.7,11.9-12.5c5.1,3.2,8.2,0.8,11.2-2.2
						c1.5-1.5,3-3.1,4.6-4.2c1.7-1.1,3.5-1.8,5.8-1.2l-1.8-1.9c-0.3-3,2.4,0.1,3.7-0.1c-1.3-1.6-2.8-0.9-2.8-2.6
						c8.8-10.5,24.4-13.2,36.8-19.5c4.4-2.5-6-12.6,2.8-11.4l1.5,5c4.4-10.8,16.5-12.4,21.2-22.4c0.2,1.2,1.1,2.4,0.3,3
						c3.8,1.5,6.2-4.6,4.4-6.9c1.4-0.7,1.9,1.8,3.5,2.4c2.9,0.3,1.3-6.8,4.4-4.8c0.5,0.3,0.3,1.3,0.1,1.7c0-2.2,5.2-3.6,1.7-6
						c4.1-0.8,4.4-5.8,8.2-5.8c-1.4-4.8,6.3-2.2,2.7-7.7c4,5.4,8.5,0.1,8.3-3.8c0.7,2.1,2.9,0.4,4,3.1c2-1.8,3.1-4.3,0.6-6.7
						c8.9,3,3.5-11.3,12.2-5.2c3.8-7.9,7.9-14.4,12.3-20.2c4.2,5.3-5.6,5.6-0.8,10.7c3.5-6.4,2.6-13.4,8.7-16.6
						c1.9-0.5,1.2,2.8,1.5,4.1c3.3-6.5,10.3-8.2,12.4-14.9c0.4,0.5,0.4,1.4,0.2,2.2c0.8-0.9,2.7-1.1,0.6-3.3l-0.3,1.4
						c-4.3-2.1-2.6-10-4-11.8c4.3,7.8,5.8-2.4,10.8,8c0.2-1,0-2.7-1.5-4.1c1.2-0.3,2.3,0.3,3,2.8c2-4.1-1.2-5.5,1.6-8
						c1,1.1,0.8,2,1.7,3.6c-0.5-3.4-1-6.9,2.3-8.2c0.5,0.8,1.5,1.4,0.8,2c3.8-4.1,1.8-12,8.2-14.2c3.1,5.9,2.9,0.1,7,3.9l1.3-3.5
						l-2.8-1c2.2-1.9,1.2-6.6,4.2-7l0,3.1l3.2-4.5l-3.7,0.6c0.1-4.1-5.1-4.8-1.3-6.4c-0.2,0.9,2.1-1.9,5.5-0.7c0,0,0,0,0,0
						c-0.2-2.2-0.5-4.6,2-5.1c1.6,0.9,4,4.7,5.1,5.2c-1.1-2.1-0.1-3.5,0.9-5c1-1.5,1.9-3.1,0.8-5.4c0.4,1.2,2.4,3.3,3,3.6l-1.8-3.5
						c1.8-0.1,2.3,0.2,3.8,1.9c3.3-2.4-5.9-4-0.4-5.3c0,0.5,0.5,0.7,0.3,1.7c4.5-2.3,4.8-8.3,9.2-10.1c4.9,2.9-1.7,3.7,2.7,5.9
						c0.9-1.3,1.7-2.9,2.4-4.5c0.6-1.7,1.2-3.4,1.8-5.1c1.2-3.4,2.6-6.5,5.2-8.3l-1.2,0.4c-5.2-5.9,6-0.7,5.4-5.5
						c-0.1,0.9,2.6,3.7,2,2.9c1-0.6,1.7-1.3,2.3-2.3c0.6-0.9,1.1-2.1,1.6-3.3c0.9-2.5,1.6-5.5,2.8-8.7l1,1.9c3-0.7,5.1-4.3,7.6-5.7
						c-1-1.9,0.2-2.9-2.6-4c7,0.5,8.4-3.7,9.4-7.8c1-4.1,1.8-8.2,7.8-8.3c-0.5,0.7,0.1,2.8,0.6,2.2l2.3-6.2c-3-1.7-2.2-0.6-5.1-1.1
						c-1.1-1.9-1.4-4.2-0.4-5.4c0.1,3.6,4.4,3.3,6.7,3.4c-1-0.5-1.6-1.5-2.6-2c6.9,1-5.2-4.5,0.7-5.6l1.3,1.2
						c0.3-1.9-0.9-4.5,0.6-5.7c3.7,1.7,0.5,2.5,3.1,4.5c1.3-2.3-3.3-8.4,1.2-8c0.3,1.5-0.6,2.8-0.3,4.3c5.2,0.6,4.4-0.4,6.1-1.5
						l-0.2,0.1l4.2-2.4l-1.7,0.2c-1.7-2.1-2.4-3.5-2.6-4.6c-0.2-1.1,0.1-1.9,0.6-2.7c0.9-1.5,2.3-2.9,0.5-6.5
						c3.3,6.9,2.8,2.5,6.4,5.1c1.6-0.3,3.7-1,4.6,0.1c-2-3.6,4.3-1.5,1.2-6.8c1.3,0.6,1.2-1.9,4.1,0.3c0.3-3-2.5-0.7-4-1.8
						c-1.1-3,1.3-4.4,3.8-6.2c1.2-0.9,2.4-1.9,3-3.2c0.6-1.3,0.8-2.9-0.1-5c-0.1-2.9-1.2-5.1-2.3-7.2c-1.1-2.1-2.3-4.1-2.5-6.7
						c1.4-0.3,2.5,0.5,3.2,1.4c0.7,0.9,1.1,1.8,1.1,1.8c1.5-0.8,2.3-1.7,2.7-2.7c0.3-1.1,0.2-2.3-0.1-3.7c1,0.9,2.2,0.8,4,0.6
						c0.3-2-4.5-3-1.6-4.8c1.4,0.9,3.6,2.3,4.8,3.7c-0.1-0.7-0.3-1.4-0.5-2.1c-0.3-0.7-0.6-1.5-0.9-2.2c-0.6-1.5-1.2-2.9-1.5-4.2
						c2.6,0,3.3,2.4,4.6,3.8c-0.2-1.6-0.1-3.5-0.7-5.3c-0.5-1.8-1.5-3.4-3.4-4.2l-1.8,1.4c0-1,3.5,0.2,4,1.1
						c1.3,1.5,0.7,2.4-0.3,2.7c-1,0.3-2.6,0.2-3.3,0.1c-0.1-0.6-0.3-1.3-0.4-1.9c-4.3-0.2-4.5,1.4-3.7,3.6c0.4,1.1,1,2.3,1.4,3.5
						c0.4,1.1,0.5,2.2,0.1,3c-1.8-1.1-3.6-2.2-5.4-3.3c1.2,1.6,2.5,3.3,3.7,4.9c-1.8,0.2-5.1-0.6-5.5-2.5c-1.8,0.6-1.5,1.2-1.2,1.9
						c0.3,0.6,0.6,1.2-1.4,1.5c-0.6,0-0.8-0.2-1-0.5l0.8,2.8c-1-0.9-4.2-1.3-2.8-2.3c-2.4,1.2-2,3.1-1.6,4.7
						c0.4,1.6,0.8,2.9-1.7,2.6l-0.2-0.5c-0.3,3,0.7,3.6,2.1,4.2c1.4,0.6,3.2,1.3,4.7,4.4c-3.8-0.8-7.5-1.6-11.2-2.5l3.8,2.6
						c-0.4,0.5-1.3,1.3-2.8,0.3c1.7,3.4,1.9,0.6,3.9,3.1c-2.5,0.3-3,2.2-3.8,3.7c-0.7,1.5-1.7,2.6-4.9,1.1c2.5,2.6,3.6-1,4.2,2.8
						c-7.1-3.1-0.7,3.7-5.1,4.1c-3-2.8,0.1-3.7-4.3-3.4c4.9,4.9-3.9,3.5-3.9,5.9c2.2,1.5,2.1,2.8,1.3,4.2c-0.8,1.4-2.3,2.9-2.6,4.9
						c-0.7-0.6-2.3,0.4-4.1,1.8c-1.9,1.3-3.9,3.1-5.7,3.8l-0.7-0.6c4,3.7,1.1,5.9,0.5,8.6c-2.5-2-3.3-3.2-3.7-5.1l-1.4,1.9
						c1.1,1.5,1.3,2.6,0.9,4.3l-2.9-2.9c-0.9,1.3-0.9,3.3-1.2,5.2c-0.4,1.9-1.2,3.6-3.5,4.3c2.8,2.5,10.4,4,9.6,9
						c-1.7-1.1-4.6-3.2-4.5-4.6c0,0.5,0.5,2.1-0.7,2.2l-1.6-3.5c-2.4,0.5,1.6,2.6,0.4,3.5c-2.3-1.8-2.3-0.4-4-2.1
						c0-0.5,1.8-0.3,1.2-1.4c-1.5,1-4.1,1.5-6.2,0.6c1.4,0.9,3.1,2.5,2.6,3.7c-1.8,2.6-3.4-1.4-5.7-0.9c1.1,1.9-1.8,2.1,1.5,5
						c-0.6,0.7-2.3-0.5-3.4-1c0.4,2.5-4.6,6.2,0.1,7.8l0.5-0.1c0,0.1,0,0.2,0,0.3c0,0,0,0,0,0l0,0c-0.1,3.5-2.5,5.2-5,6.8
						c-1.3,0.8-2.6,1.5-3.8,2.3c-1.1,0.9-2.1,1.8-2.7,3.1l-1.1-1c-1,3.5-4.1,5.9-3.4,9.8c-0.7,0.7-3.5-0.1-4.5-1.6
						c-0.9,2.6,0.1,3.9-4,4.9c-0.2-3.6-2.2-0.9,0.4-3.1c-3.1,1.5-5.3,0.4-4.7,5.7c-1.9-3.4-5.1-1.5-5.3,0.3l3.5,0.3
						c-0.8,1.6-2.1,2.4-3.4,3.3l-3-4c-4.4,0.2-4.7,4.1-5.1,7.5c-0.5,3.4-1.2,6.3-6.5,4.5c1.2,3.7,4.2-0.8,6,3.1
						c-1.3,0.8-3.7,0.6-5.9,0.2c-2.2-0.4-4.2-1-4.5-0.7c-4.9,0.9,2.3,7.8-2.1,9.5c1.6,0.9,5.3,3.9,4.1,7.3c-2.6,1.6-7.8-2.7-7.4-5.1
						c0.4-0.6,1.1-0.4,1.4,0c0.3-1.1,0.7-2.6-1.5-3.1l0.9,1.5c-2.3-0.2-5.2,2.8-6.5,0c-0.5,2.8,1.3,2.8,3.1,2.2
						c-4.5,0.8-4.4,4.1-8.4,5.7c1.1,0.3,3,1.4,2.5,1.8c-5.7,2.4,0.4,4.2-2,7.5c-3.5-0.4-3.8-5.2-5.2-0.9c-3,0.3-3.5-3.1-3.8-4.8
						c-0.4,4.9-6.5,2.9-8.4,3.9l0.4-2.3c-0.3,1.4-1,2-1.7,2.6l3.2,1.9c-1.2,0.3-1.9,0.9-2.9-0.2c0.7,2.5,4.6,3.7,5,7.6
						c-2.3-0.3-2.1,4.5-5.6,1.4c4.5-2-3.5-3.1-1.1-6.4c-0.2,0.9-0.9,1.5-2.1,1.8c-0.5-0.3-0.5-0.8-0.5-1.2c-6.1-0.1,2,5.3-1.5,8.4
						c-1.3-2.4-4.1-3-4.3-2.1c1.4-1.2,3.6,2.7,3.6,5.3c-3.6,0.4-1.4,3.3-2.8,4.1l2-0.5c1.3,2.4-0.1,3.1-1.1,5.1
						c-1.5-1.4,0.5-2.3-0.7-2.5c1.3,5-7.1-0.1-7.5,4.3c-2.3-0.4-3.4-3.6-5.1-3.7c-0.5,5-5.3-0.1-6.3,4.5c3.1,2,2.7,1.2,2.9,5.5
						l3.1-6l0.3,6.5c1.5-1.2,1.6-4.3,2.8-4.6c0.4,3.4,0,2.6,2.6,4.3c-5.4-2.3-1.9,5.7-6.5,5l-5.6-6.7c-5.9,0-3.2,8.6-9.1,10.7l2.4,0
						c1.6,3.2-2.5,2.7-3,5c-1.7-2.4-3.3-2.4-5.1-3.3c1.5,1.6-3.4,2.6-0.1,7.4l-4.5-1.3c-4.6,1.8,1.2,9.9-3,12c-1-3.3-3.9-3.6-3-7.3
						c-1.2,0.9-2.6,1.4-1.3,3c-1.8-0.9-0.7,5.8-3.6,4.5c0.3,1.4,2.1,3.9,0.6,4.8c-0.5-0.3-0.9-1.1-0.9-1.1c0.9,1.1-0.9,3.2,2.4,4.8
						c-9.4-4.2-9.8,8.7-17.9,5.2c-2,2.8-4.5,6.1-6.7,8.1c-0.4-0.8-0.9-1.1-0.3-1.3c-4.9,0.5,3.2,8.2-2.4,8.8c-4.8-2.2,0.4-3.6-1.9-4
						c-6.4-7.1-3.7,4.5-9.7,2.1l0.3-0.9c-3.9-1.1-2.5,6.5-6,8.4c0,0-0.4-0.8-0.9-1.2c0.8,5.5-2.3,10-4.5,13.4
						c-1.3-3.7,0.2-2.6-2.7-5.2c-1,1.5,4.1,4.6,2.1,7.5c-2.1-1-5.2-0.9-7.9-3.9l2.4-2.1c-4.5-3.2-3.2,2.7-5.1,3l-1.2-2
						c-3.5,3.6,0,8.3-4.5,11.2l1.5,1.1c1.1,6.3-3.9-1.1-3.7,4l-4.2-4.2c-0.7,2.3-2,8.5-4.1,11.5c-1-4.6,0.9-8.8,1.4-12.4
						c-1.6,1.1-4.9,4.2-4,7.1c0.3-0.9,0.2-2.6,1.3-2.4c0.9,5.1-0.3,8.7-3.4,10.9c-6.2-9.5-9.6,3.6-17.1-1.9
						c-1.5,3.7-4.4,5.3-7.7,6.6c-3.3,1.3-7,2.3-10,4.8c7.4,5.5-1.7,1.5,4,8.6c-1.1,1.5-1.8,1.8-2.3,1.4l-7.6-1.2
						c-2.6-1.4,0.2-2.6-1.1-4.2c-3.6,1.7-3.6-2.2-7.1-2.6c2.3,2.3,1.6,4.6-1,4.9l5,1.5c-1.7,7.2-8.3-3.4-10.1,3.7l-0.2-3.4
						c-1.4,3-8.6,6.1-6.8,13.7c-1-0.6-3-2.2-2.3-3.5c-6.2,3.1-8.2,15.1-15.1,14.4l-0.8-2.1c-0.7,1.3,0.5,4.7-2.1,3.8
						c-0.5-0.8-0.8-2.1-1.4-1.9c-0.1,1-0.6,5.1-2.7,5l-0.2-2.9c-7.2,1.4-5,10.8-8.8,15.3c-3.7-5.4-9.2-4.1-12-3.5l-0.4-0.8
						c-3.4,1.9-5.4,4.9-7.1,8.1c-1.7,3.3-3.1,6.9-5.4,9.9c-7.7-3.4-14.3,6-22.5,6.7c1.6,0.4,2.7,4.3,2,5.6c-2.1-0.2-1.4,6.4-4.5,1.2
						l0.6-0.2c-4.3-4.2-6.3-0.9-8.7,0.4l3.9,6.8c-3-1.4-5.4-1.2-7.3-0.3c-2,0.9-3.5,2.6-5,4.2c-2.9,3.3-5.4,6.5-9.8,3.3
						c-0.4,2.6-2.2,3.7-2.5,6.3l-2.2-3.6c-4.6,1.7-6.8,2.5-11.2,6.6l-0.6-3.2c-2.9,1.6,3.1,12.4,0.6,14.3l-4.2-4.8
						c-4.8,3.2-12.7,1.8-14.4,9.7c-0.4-0.8-1.2-2.4-0.6-3.2c-2.4,1.4-11.2,2.1-5.7,8.8c-3.1-4.7-5.3,2.7-6.7,6.5l-1.8-3.7
						c0.6,5.9,1.3,7.1-1.1,10.3c-1,0-2.4-2.4-0.9-2.1c-3.6-0.3,0.2,4.5-4,4.5l-0.3-2.9c-2.7,1.3-1.7,2.4-1.5,5.9
						c-0.7,2.4-5.4,2.2-7.7-0.8c0.9,2.1,1.1,5.6-1,5.6c-1-1.1-0.9-2.2-0.8-2.7c-5.7,0.3-3.8,8-8.8,6.4c-0.8-1.1-1.3-1.6-1.8-1.8
						c3.4-2,6.3-3.6,6.2-3.1c-2-3.2-5.1-2.1-5.7-7.9c-0.7,3.8-1.1,11.4-4.7,11.6c-0.3-0.2-0.6-0.5-1-0.9l0-0.5
						c-0.8,0.1-1.2,0.7-1.4,1.6c-1.2,0-2-0.1-2.8,0.4c-2-2.5-4,0.5-5.4,1.2c2.3,3.5,0.2,4,3.7,5.9c-0.4-0.1,0-0.6,0.8-1.3
						c0.1-0.2,0.3-0.4,0.4-0.7c0,0.1,0.1,0.2,0.1,0.4c0.8-0.7,1.9-1.5,3.2-2.4c0,2.5-0.1,4.7-2.9,3.7c0.7,2.7,1.4,5.5,1.6,6.9
						c-4.9-3.8-10.2-4.2-12.6-7c-2.9,4.5-9,7.3-7.6,15.6c-0.7,1.6-2.5-1.1-3.6-1.8c0.3-1.1,1.2-1.5,0.9-2.7c-1.3,3.2-6.6,5-4.3,10
						c-4.3-0.3-0.9-5.3-4.6-2l-0.3-1.8c-12.6-2.5-5.9,20-20.7,15.9c1,0.2,1.5,0.3,2.1,1c-12.8,2.1-18.8,16.7-33,16.1
						c-3.7,0.4-2.2,3.5-2.6,6.9l-2.9-3.5l-0.4,6.2c-2.3,5.8-13-5-14.8,4.4l2.2,2.2c-2.2,0.7-5.3,5.2-6.7,2c0.1,0.6,1,3.1-0.6,2.2
						l-1.3-2l-2.7,6.3c-4.6,0.7-4.1-8.3-9.8-5.5c-1.5,2-2.3,9.3-0.7,10.2c0.9-0.4,2.8,0,4.1,2l-1.2,2.1c3.2,6.1,5.3,13.1,12.3,14.5
						l1-5.5l2.7,2.3l-2.5,1.8c3.1,1.8,2.6-1.2,2.7-3.4c1.2,1.4,2.2,2.2,3.2,2.4l-0.3-7.5c1.7,2.1,1.3,5.4,4.2,5.5
						c-0.1-3.5-4.5-4.4-3.1-7.5c3.1,1.8,4,4.3,4.4,0.9c1.2,1.4,1.4,2.6,1.1,3.7c0.5-2.8,3.7-3.3,2.7-6.9c3.5,2.4,4.8-4,8,1.7
						c-0.3-1.6,0.2-6.1,1.5-7.2c1.4,8.3,5.7-2.8,9.2,4.8c-1.6-7.2,5.5-6.9,6.9-12.3c0.1,0.6,0.3,1.8-0.2,1.7
						c2.3-0.7,3.9,0.8,5.8,1.2c-2.7-5.1-0.4-8.1-0.6-12.1c5.3,3.4,2.1,6.7,5.6,10.9c-2.5-4,1.7-6.5-1.1-9.4c3.6,1.9,2.4,0.5,5.9,4.1
						c-3.4-6.4,1.1-2.1,0.3-6.8c4.5,1.5,4.2,5.4,6,1.8C151.1,659.8,149.8,663.6,149.8,663.6z M211.9,610.7
						C212,610.7,212,610.7,211.9,610.7c-0.5,0.5-0.9,0.9-1.2,1.2C211,611.6,211.3,611.3,211.9,610.7z M217.6,607
						c-0.8,0.3-1.7,0.8-2.6,1.4c-1-1.1-1.5-2.5-0.9-2.8C214.4,606.7,216.1,606.5,217.6,607z M190.3,590.2c0.6-1.1,1.3-0.6,1.9,0.1
						c-0.4,0.3-0.8,0.8-1.3,1.4c0.1,0.1,0.1,0.3,0.2,0.5C190.7,591.4,190.4,590.7,190.3,590.2z"/>
					<path class="st0" d="M191.6,595.8c-0.1,0.2-0.1,0.4-0.2,0.5c0.4,0.2,0.7,0.4,1,0.5c-0.1-0.4-0.3-0.9-0.4-1.3
						C191.9,595.6,191.7,595.7,191.6,595.8z"/>
					<path class="st0" d="M676.6,229.8l-0.2,0c0.2,0,0.4,0,0.6,0.2C676.9,229.9,676.8,229.9,676.6,229.8z"/>
					<polygon class="st0" points="300.8,563.4 300.2,562.5 300.2,563.6 					"/>
					<path class="st0" d="M711.1,209.5c0.3,0.2,0.7,0.3,1.2,0.2C712,209.6,711.6,209.6,711.1,209.5z"/>
					<path class="st0" d="M721.3,196.7l2.5-1.1C722.6,195.9,721.8,196.3,721.3,196.7z"/>
					<path class="st0" d="M730,187.1c-0.5-0.5-1-0.8-1.4-1.2c0,0,0,0,0,0L730,187.1z"/>
					<path class="st0" d="M599.5,338.1c-0.1,0.1-0.2,0.3-0.2,0.5C598.9,339.9,599.3,339.2,599.5,338.1z"/>
					<path class="st0" d="M636.1,290.9c0.1,1,0.2,1.9,0,2.7C637.1,293.1,637.7,292.6,636.1,290.9z"/>
					<path class="st0" d="M552.5,384.7C552.4,384.7,552.4,384.7,552.5,384.7c-0.1,0-0.2,0.1-0.4,0.2L552.5,384.7z"/>
					<path class="st0" d="M634.1,295.5c1.3-0.1,1.8-0.9,2-1.8C635.3,294,634.3,294.4,634.1,295.5z"/>
					<path class="st0" d="M755.2,135.6l0.3-0.6c-0.3,0-0.5-0.1-0.6-0.2L755.2,135.6z"/>
					<path class="st0" d="M754.9,134.8l-0.3-0.9C754.5,134.2,754.5,134.6,754.9,134.8z"/>
					<path class="st0" d="M753.9,132.1l0.7,1.8C754.7,133.4,755,132.7,753.9,132.1z"/>
					<path class="st0" d="M747.9,152.4l1.3,0.7C749,152.9,748.6,152.6,747.9,152.4z"/>
					<path class="st0" d="M746.2,157.4c0.8-1,4.2-1.7,4.1-3.7l-1.1-0.6C751,154.7,744.4,155.3,746.2,157.4z"/>
					<path class="st0" d="M720.1,167.9l3-3c-1.8-0.1-4.1-0.4-3.6-2.1C712.9,164.9,723.3,163.6,720.1,167.9z"/>
					<path class="st0" d="M711.7,177.4c0.5-2.2-2-1.2-2.7-1.8C709.5,177.6,709.7,178.1,711.7,177.4z"/>
					<path class="st0" d="M655,249.1l-2.6-2.7C651.6,247.9,653.4,247.3,655,249.1z"/>
					<polygon class="st0" points="656.9,275.5 659.8,275.9 657.8,272.9 					"/>
					<polygon class="st0" points="630.3,264.1 630.4,263.2 629.4,266.1 					"/>
					<path class="st0" d="M515.3,367.6l3.3,3.3C519,369.6,515.9,365.3,515.3,367.6z"/>
					<path class="st0" d="M465.1,412.7c-2-1.4-4.4-1.5-4,1C462.5,413,464.8,413.6,465.1,412.7z"/>
					<polygon class="st0" points="295.3,522.3 295.6,520.3 294.2,522.8 					"/>
				</g>
			</g>
		</g>
	</g>
</g>
</svg>
