<?xml version="1.0" encoding="utf-8"?>
<!-- Generator: Adobe Illustrator 21.1.0, SVG Export Plug-In . SVG Version: 6.00 Build 0)  -->
<svg version="1.1" id="Layer_1" xmlns="http://www.w3.org/2000/svg" xmlns:xlink="http://www.w3.org/1999/xlink" x="0px" y="0px"
	 viewBox="0 0 800 800" style="enable-background:new 0 0 800 800;" xml:space="preserve">
<style type="text/css">
	.st0{fill:#76C9B4;}
	.st1{fill:#FFFFFF;}
</style>
<g>
	<g>
		<g>
			<g>
				<g>
					<path class="st0" d="M1517.6,152.8c-0.7-0.1-1.7,0.1-2.5,0.4c-0.4,0.1-0.7,0.5-0.8,0.9c0,0.1-0.1,0.2-0.1,0.3
						c0,0.1,0,0.2,0,0.3c0,0.2,0,0.4,0.1,0.6c1.7,0.3,3.3,0.7,5,1l-0.8-1.5l-0.4-0.8L1517.6,152.8z"/>
					<path class="st0" d="M1508.5,163.5c1.1,0.9,2.6,2,4.4,2.9c1.8,0.9,3.9,1.5,6.2,1.3c-2.2-1.3-2.8-1.9-3.5-2.6
						c-0.7-0.6-1.5-1.3-4.2-2.5c-0.4-1.4,1.8-2.3,3.5-2c-0.6-0.3-0.3-0.9-0.2-1.5c0.1-0.6-0.1-1.3-1.7-1.7c-0.9,0.5-1.7,1-2.2,1.5
						c-0.5,0.5-0.8,1-0.9,1.5c-0.1,0.5,0,1.1,0.3,1.7c0.3,0.6,0.8,1.2,1.5,1.9C1510.6,164.4,1509.4,163.7,1508.5,163.5z"/>
					<path class="st0" d="M1439.5,267.1l1-0.2C1440.1,266.8,1439.8,266.9,1439.5,267.1z"/>
					<path class="st0" d="M1384,321.4c0.3-0.5,0.2-1-0.1-1.4C1383.8,320.7,1383.7,321.2,1384,321.4z"/>
					<path class="st0" d="M1370.8,326.7c0.3-0.1,0.5-0.2,0.8-0.3C1371.1,326.3,1370.7,326.3,1370.8,326.7z"/>
					<path class="st0" d="M1439.5,267.1l-2.5,0.6C1438.1,268.8,1438.6,267.6,1439.5,267.1z"/>
					<path class="st0" d="M1515.4,184.4c-0.1-0.5-0.4-1.1-0.8-1.6c0.1,0.4,0.1,0.9,0.1,1.3C1514.9,184.2,1515.1,184.3,1515.4,184.4z
						"/>
					<path class="st0" d="M1457.7,238.1l0.4-0.5c-0.3-0.5-0.8-1-1.3-1.6L1457.7,238.1z"/>
					<path class="st0" d="M1471.9,216.6c-0.5,0.4,2.9,2.8,4.3,4c-1.3-1.2-1.7-2-1.7-2.6C1473.8,217.6,1473,217.1,1471.9,216.6z"/>
					<path class="st0" d="M1497.4,184.3l-0.2-0.9C1497.3,183.6,1497.3,184,1497.4,184.3z"/>
					<path class="st0" d="M1445.6,252.2c-0.5-0.4-1-0.6-1.3-0.8C1444.7,251.8,1445.1,252,1445.6,252.2z"/>
					<path class="st0" d="M873.6,719.8c-0.1-0.3-0.3-0.4-0.4-0.6C873.3,719.6,873.4,719.9,873.6,719.8z"/>
					<path class="st0" d="M836.7,717.8l0.3-0.4c-0.4-0.7-0.7-1.4-1.1-2.1L836.7,717.8z"/>
					<path class="st0" d="M1349.4,339.1c0.1,0,0.1,0,0.1,0C1349.7,338.3,1349.4,338.6,1349.4,339.1z"/>
					<path class="st0" d="M1176.9,480c4.2,1.5-0.6,6.3,4.9,7.4C1180.6,486.3,1180.9,480.1,1176.9,480z"/>
					<path class="st0" d="M1514.6,185c-0.1,0.4-0.2,0.8-0.4,1.1C1514.5,185.6,1514.7,185.3,1514.6,185z"/>
					<path class="st0" d="M1181.9,487.4L1181.9,487.4l0.6,0.1C1182.2,487.4,1182.1,487.4,1181.9,487.4z"/>
					<path class="st0" d="M1308.9,377.5c0.6,0.5,1.1,0.8,1.6,1C1310.2,378.2,1309.8,377.9,1308.9,377.5z"/>
					<path class="st0" d="M1344.4,354.9l-1.1,0.3C1343.8,355.1,1344.1,355,1344.4,354.9z"/>
					<path class="st0" d="M1296.1,395.9c-0.6,0.1-1.2-0.2-1.4,0.7c0.2,0.1,0.3,0.2,0.5,0.2C1295,396.2,1295.1,395.8,1296.1,395.9z"
						/>
					<path class="st0" d="M1278.4,410c0.3,0.2,0.6,0.3,0.8,0.4c0.1-0.2,0.3-0.4,0.4-0.6L1278.4,410z"/>
					<path class="st0" d="M931.9,682.4c-1-0.7-2-1.7-2.8-2.6C930.9,682,928.6,684.7,931.9,682.4z"/>
					<path class="st0" d="M1513.1,183.7c0.9,0.5,1.4,0.9,1.4,1.3c0.1-0.3,0.1-0.6,0.1-0.9C1514.1,183.8,1513.5,183.6,1513.1,183.7z"
						/>
					<path class="st0" d="M1316.1,421.9l-3.2,1.8C1313.9,423.4,1315.1,422.7,1316.1,421.9z"/>
					<path class="st0" d="M1070,594.6l-0.4,0.9C1069.9,595.3,1070.1,595.1,1070,594.6z"/>
					<path class="st0" d="M1304.8,431c-1.4-0.7-2.5-1-3.4-1c0.1,0.4,0.1,0.7,0.3,1.1L1304.8,431z"/>
					<path class="st0" d="M929.1,679.7C929.1,679.7,929.1,679.7,929.1,679.7C929.1,679.7,929.1,679.7,929.1,679.7z"/>
					<path class="st0" d="M913.8,700.6c3-1.7-1.4-5.4-2.4-8.5c2.7-3.5,3.7,2.4,6.4,4.1c1.4-2.6,0.5-7.9,2.3-8.7
						c0.6,0.7,1.1,0.8,1.3,2c0.1-5.1,6.8-4.4,6.6-10.7c0.5,0.3,0.8,0.6,1.1,0.9c-1.9-2.1-3.4-4.4-4.3-6.2c1.3-0.9,0.6-4.4,3-1.7
						c-0.9,0.4-0.2,1.7,0,2.9l0.6-2.2c3.9,3.6-1,2.7,1,5.9c1.8-3.1,2.7-8.6,5.6-8.6c3.1,4-3.9,4.4,1.1,6.5l-4.2,0.3
						c6.6,5.3-2.2,0.7,4.4,6.6c5-1.3,3.4-5.1,8.3-6.4c-0.5-3-2.5-3.3-3-6.3c3.3-7.9,11.3,7.9,12.2-0.5c-0.6-3.5-3.5-9.2,1.4-8.3
						l1.9,5.5c4.4-2-2-8.4,4.3-7.7c0.4,2.4-2.2,3.6-1.2,3.8c5.1,2.1,0.3-3.9,2.4-5.2l3.1,4c3.9-3.3,6.7-9.4,11-13.2
						c0.5,1.4,0.5,3.3,2.5,3.9c4.7-5.9,13.2-7.6,20.6-8.7l-0.1-5.1c0.5-0.3,2,1.1,1.9,2.1c3.1,0-1.4-2.4-1.2-4.5
						c1.1-1.1,3,1,2.9,2.7c2-5.6,7.1-13.9,13.8-12.6l-0.1,1.6c4.2-0.6-1.1-9.8,4.1-8.3l-0.2,1c8.1-2.9,13.7-11.3,22.6-9.3
						c-2.4-5.9,8.5-2.2,4.2-9.8c6.4,1,6.1,3.1,13.3,1.8c1.7-0.6-0.7-6,0.6-8l2.5,3.8l-0.1-5.7l4.3,3.7l1.1-2.1
						c-0.8,0.2-2.6-0.8-3.2-1.9c1.6-3.5,8.4-1.7,9.8,0.2c1.5-2.5,2.9-5,4.3-7.5c0.9,1.6,0.1,2.9-0.1,4.4c0.9-6.2,3.3,3.6,4.1-2.1
						c-1-0.6-1.3-2.4-1.7-3.2c3.1,1.3,6.7-1.1,8.7-3.8l1.2,3c5.2-2.5,9.2-8,14.6-11.5c-2.7,0.1-5.3-4.8-4.1-6.2l3.3,3.6
						c-0.7-3.2-2.7-0.4-2.6-4.8c2.3-0.9,4.4,3.7,4.1,5.7l1.5-3c0.9,1.1,0.8,2.1,1.7,3.7c-0.7-3.2,6.9,1.2,5.4-4.1l0.9,1.1
						c5.4-3.6,6.9-6.5,11.1-9.7c-2.3-3.5,0-3.9-0.7-7.6c3.9-1.1,9.3-0.8,12.9-3.7c1.5-3.6-1.2-3.4-1.4-6.3c2.3,3,6,0.1,5.5,3.7
						c4.2-3.7,5.4-4.7,9.5-11.2c-1.5-0.8-2.6-0.9-3-2.2c0.7-1.2,3.3-0.3,4.2,1.3l-0.1,0.5c1.6-4.6,7-4.9,12-5.3
						c5-0.4,9.7-1.1,10-6.2l-0.1,0.5l2.9-7.2c2.8-1.2,0.2,3.4,3.4,4c2.1-9.3,9.6-5.7,11.9-12.5c5.1,3.2,8.2,0.8,11.2-2.2
						c1.5-1.5,3-3.1,4.6-4.2c1.7-1.1,3.5-1.8,5.8-1.2l-1.8-1.9c-0.3-3,2.4,0.1,3.7-0.1c-1.3-1.6-2.8-0.9-2.8-2.6
						c8.8-10.5,24.4-13.2,36.8-19.5c4.4-2.5-6-12.6,2.8-11.4l1.5,5c4.4-10.8,16.5-12.4,21.2-22.4c0.2,1.2,1.1,2.4,0.3,3
						c3.8,1.5,6.2-4.6,4.4-6.9c1.4-0.7,1.9,1.8,3.5,2.4c2.9,0.3,1.3-6.8,4.4-4.8c0.5,0.3,0.3,1.3,0.1,1.7c0-2.2,5.2-3.6,1.7-6
						c4.1-0.8,4.4-5.8,8.2-5.8c-1.4-4.8,6.3-2.2,2.7-7.7c4,5.4,8.5,0.1,8.3-3.8c0.7,2.1,2.9,0.4,4,3.1c2-1.8,3.1-4.3,0.6-6.7
						c8.9,3,3.5-11.3,12.2-5.2c3.8-7.9,7.9-14.4,12.3-20.2c4.2,5.3-5.6,5.6-0.8,10.7c3.5-6.4,2.6-13.4,8.7-16.6
						c1.9-0.5,1.2,2.8,1.5,4.1c3.3-6.5,10.3-8.2,12.4-14.9c0.4,0.5,0.4,1.4,0.2,2.2c0.8-0.9,2.7-1.1,0.6-3.3l-0.3,1.4
						c-4.3-2.1-2.6-10-4-11.8c4.3,7.8,5.8-2.4,10.8,8c0.2-1,0-2.7-1.5-4.1c1.2-0.3,2.3,0.3,3,2.8c2-4.1-1.2-5.5,1.6-8
						c1,1.1,0.8,2,1.7,3.6c-0.5-3.4-1-6.9,2.3-8.2c0.5,0.8,1.5,1.4,0.8,2c3.8-4.1,1.8-12,8.2-14.2c3.1,5.9,2.9,0.1,7,3.9l1.3-3.5
						l-2.8-1c2.2-1.9,1.2-6.6,4.2-7l0,3.1l3.2-4.5l-3.7,0.6c0.1-4.1-5.1-4.8-1.3-6.4c-0.2,0.9,2.1-1.9,5.5-0.7c0,0,0,0,0,0
						c-0.2-2.2-0.5-4.6,2-5.1c1.6,0.9,4,4.7,5.1,5.2c-1.1-2.1-0.1-3.5,0.9-5c1-1.5,1.9-3.1,0.8-5.4c0.4,1.2,2.4,3.3,3,3.6l-1.8-3.5
						c1.8-0.1,2.3,0.2,3.8,1.9c3.3-2.4-5.9-4-0.4-5.3c0,0.5,0.5,0.7,0.3,1.7c4.5-2.3,4.8-8.3,9.2-10.1c4.9,2.9-1.7,3.7,2.7,5.9
						c0.9-1.3,1.7-2.9,2.4-4.5c0.6-1.7,1.2-3.4,1.8-5.1c1.2-3.4,2.6-6.5,5.2-8.3l-1.2,0.4c-5.2-5.9,6-0.7,5.4-5.5
						c-0.1,0.9,2.6,3.7,2,2.9c1-0.6,1.7-1.3,2.3-2.3c0.6-0.9,1.1-2.1,1.6-3.3c0.9-2.5,1.6-5.5,2.8-8.7l1,1.9c3-0.7,5.1-4.3,7.6-5.7
						c-1-1.9,0.2-2.9-2.6-4c7,0.5,8.4-3.7,9.4-7.8c1-4.1,1.8-8.2,7.8-8.3c-0.5,0.7,0.1,2.8,0.6,2.2l2.3-6.2c-3-1.7-2.2-0.6-5.1-1.1
						c-1.1-1.9-1.4-4.2-0.4-5.4c0.1,3.6,4.4,3.3,6.7,3.4c-1-0.5-1.6-1.5-2.6-2c6.9,1-5.2-4.5,0.7-5.6l1.3,1.2
						c0.3-1.9-0.9-4.5,0.6-5.7c3.7,1.7,0.5,2.5,3.1,4.5c1.3-2.3-3.3-8.4,1.2-8c0.3,1.5-0.6,2.8-0.3,4.3c5.2,0.6,4.4-0.4,6.1-1.5
						l-0.2,0.1l4.2-2.4l-1.7,0.2c-1.7-2.1-2.4-3.5-2.6-4.6c-0.2-1.1,0.1-1.9,0.6-2.7c0.9-1.5,2.3-2.9,0.5-6.5
						c3.3,6.9,2.8,2.5,6.4,5.1c1.6-0.3,3.7-1,4.6,0.1c-2-3.6,4.3-1.5,1.2-6.8c1.3,0.6,1.2-1.9,4.1,0.3c0.3-3-2.5-0.7-4-1.8
						c-1.1-3,1.3-4.4,3.8-6.2c1.2-0.9,2.4-1.9,3-3.2c0.6-1.3,0.8-2.9-0.1-5c-0.1-2.9-1.2-5.1-2.3-7.2c-1.1-2.1-2.3-4.1-2.5-6.7
						c1.4-0.3,2.5,0.5,3.2,1.4c0.7,0.9,1.1,1.8,1.1,1.8c1.5-0.8,2.3-1.7,2.7-2.7c0.3-1.1,0.2-2.3-0.1-3.7c1,0.9,2.2,0.8,4,0.6
						c0.3-2-4.5-3-1.6-4.8c1.4,0.9,3.6,2.3,4.8,3.7c-0.1-0.7-0.3-1.4-0.5-2.1c-0.3-0.7-0.6-1.5-0.9-2.2c-0.6-1.5-1.2-2.9-1.5-4.2
						c2.6,0,3.3,2.4,4.6,3.8c-0.2-1.6-0.1-3.5-0.7-5.3c-0.5-1.8-1.5-3.4-3.4-4.2l-1.8,1.4c0-1,3.5,0.2,4,1.1
						c1.3,1.5,0.7,2.4-0.3,2.7c-1,0.3-2.6,0.2-3.3,0.1c-0.1-0.6-0.3-1.3-0.4-1.9c-4.3-0.2-4.5,1.4-3.7,3.6c0.4,1.1,1,2.3,1.4,3.5
						c0.4,1.1,0.5,2.2,0.1,3c-1.8-1.1-3.6-2.2-5.4-3.3c1.2,1.6,2.5,3.3,3.7,4.9c-1.8,0.2-5.1-0.6-5.5-2.5c-1.8,0.6-1.5,1.2-1.2,1.9
						c0.3,0.6,0.6,1.2-1.4,1.5c-0.6,0-0.8-0.2-1-0.5l0.8,2.8c-1-0.9-4.2-1.3-2.8-2.3c-2.4,1.2-2,3.1-1.6,4.7
						c0.4,1.6,0.8,2.9-1.7,2.6l-0.2-0.5c-0.3,3,0.7,3.6,2.1,4.2c1.4,0.6,3.2,1.3,4.7,4.4c-3.8-0.8-7.5-1.6-11.2-2.5l3.8,2.6
						c-0.4,0.5-1.3,1.3-2.8,0.3c1.7,3.4,1.9,0.6,3.9,3.1c-2.5,0.3-3,2.2-3.8,3.7c-0.7,1.5-1.7,2.6-4.9,1.1c2.5,2.6,3.6-1,4.2,2.8
						c-7.1-3.1-0.7,3.7-5.1,4.1c-3-2.8,0.1-3.7-4.3-3.4c4.9,4.9-3.9,3.5-3.9,5.9c2.2,1.5,2.1,2.8,1.3,4.2c-0.8,1.4-2.3,2.9-2.6,4.9
						c-0.7-0.6-2.3,0.4-4.1,1.8c-1.9,1.3-3.9,3.1-5.7,3.8l-0.7-0.6c4,3.7,1.1,5.9,0.5,8.6c-2.5-2-3.3-3.2-3.7-5.1l-1.4,1.9
						c1.1,1.5,1.3,2.6,0.9,4.3l-2.9-2.9c-0.9,1.3-0.9,3.3-1.2,5.2c-0.4,1.9-1.2,3.6-3.5,4.3c2.8,2.5,10.4,4,9.6,9
						c-1.7-1.1-4.6-3.2-4.5-4.6c0,0.5,0.5,2.1-0.7,2.2l-1.6-3.5c-2.4,0.5,1.6,2.6,0.4,3.5c-2.3-1.8-2.3-0.4-4-2.1
						c0-0.5,1.8-0.3,1.2-1.4c-1.5,1-4.1,1.5-6.2,0.6c1.4,0.9,3.1,2.5,2.6,3.7c-1.8,2.6-3.4-1.4-5.7-0.9c1.1,1.9-1.8,2.1,1.5,5
						c-0.6,0.7-2.3-0.5-3.4-1c0.4,2.5-4.6,6.2,0.1,7.8l0.5-0.1c0,0.1,0,0.2,0,0.3c0,0,0,0,0,0l0,0c-0.1,3.5-2.5,5.2-5,6.8
						c-1.3,0.8-2.6,1.5-3.8,2.3c-1.1,0.9-2.1,1.8-2.7,3.1l-1.1-1c-1,3.5-4.1,5.9-3.4,9.8c-0.7,0.7-3.5-0.1-4.5-1.6
						c-0.9,2.6,0.1,3.9-4,4.9c-0.2-3.6-2.2-0.9,0.4-3.1c-3.1,1.5-5.3,0.4-4.7,5.7c-1.9-3.4-5.1-1.5-5.3,0.3l3.5,0.3
						c-0.8,1.6-2.1,2.4-3.4,3.3l-3-4c-4.4,0.2-4.7,4.1-5.1,7.5c-0.5,3.4-1.2,6.3-6.5,4.5c1.2,3.7,4.2-0.8,6,3.1
						c-1.3,0.8-3.7,0.6-5.9,0.2c-2.2-0.4-4.2-1-4.5-0.7c-4.9,0.9,2.3,7.8-2.1,9.5c1.6,0.9,5.3,3.9,4.1,7.3c-2.6,1.6-7.8-2.7-7.4-5.1
						c0.4-0.6,1.1-0.4,1.4,0c0.3-1.1,0.7-2.6-1.5-3.1l0.9,1.5c-2.3-0.2-5.2,2.8-6.5,0c-0.5,2.8,1.3,2.8,3.1,2.2
						c-4.5,0.8-4.4,4.1-8.4,5.7c1.1,0.3,3,1.4,2.5,1.8c-5.7,2.4,0.4,4.2-2,7.5c-3.5-0.4-3.8-5.2-5.2-0.9c-3,0.3-3.5-3.1-3.8-4.8
						c-0.4,4.9-6.5,2.9-8.4,3.9l0.4-2.3c-0.3,1.4-1,2-1.7,2.6l3.2,1.9c-1.2,0.3-1.9,0.9-2.9-0.2c0.7,2.5,4.6,3.7,5,7.6
						c-2.3-0.3-2.1,4.5-5.6,1.4c4.5-2-3.5-3.1-1.1-6.4c-0.2,0.9-0.9,1.5-2.1,1.8c-0.5-0.3-0.5-0.8-0.5-1.2c-6.1-0.1,2,5.3-1.5,8.4
						c-1.3-2.4-4.1-3-4.3-2.1c1.4-1.2,3.6,2.7,3.6,5.3c-3.6,0.4-1.4,3.3-2.8,4.1l2-0.5c1.3,2.4-0.1,3.1-1.1,5.1
						c-1.5-1.4,0.5-2.3-0.7-2.5c1.3,5-7.1-0.1-7.5,4.3c-2.3-0.4-3.4-3.6-5.1-3.7c-0.5,5-5.3-0.1-6.3,4.5c3.1,2,2.7,1.2,2.9,5.5
						l3.1-6l0.3,6.5c1.5-1.2,1.6-4.3,2.8-4.6c0.4,3.4,0,2.6,2.6,4.3c-5.4-2.3-1.9,5.7-6.5,5l-5.6-6.7c-5.9,0-3.2,8.6-9.1,10.7l2.4,0
						c1.6,3.2-2.5,2.7-3,5c-1.7-2.4-3.3-2.4-5.1-3.3c1.5,1.6-3.4,2.6-0.1,7.4l-4.5-1.3c-4.6,1.8,1.2,9.9-3,12c-1-3.3-3.9-3.6-3-7.3
						c-1.2,0.9-2.6,1.4-1.3,3c-1.8-0.9-0.7,5.8-3.6,4.5c0.3,1.4,2.1,3.9,0.6,4.8c-0.5-0.3-0.9-1.1-0.9-1.1c0.9,1.1-0.9,3.2,2.4,4.8
						c-9.4-4.2-9.8,8.7-17.9,5.2c-2,2.8-4.5,6.1-6.7,8.1c-0.4-0.8-0.9-1.1-0.3-1.3c-4.9,0.5,3.2,8.2-2.4,8.8c-4.8-2.2,0.4-3.6-1.9-4
						c-6.4-7.1-3.7,4.5-9.7,2.1l0.3-0.9c-3.9-1.1-2.5,6.5-6,8.4c0,0-0.4-0.8-0.9-1.2c0.8,5.5-2.3,10-4.5,13.4
						c-1.3-3.7,0.2-2.6-2.7-5.2c-1,1.5,4.1,4.6,2.1,7.5c-2.1-1-5.2-0.9-7.9-3.9l2.4-2.1c-4.5-3.2-3.2,2.7-5.1,3l-1.2-2
						c-3.5,3.6,0,8.3-4.5,11.2l1.5,1.1c1.1,6.3-3.9-1.1-3.7,4l-4.2-4.2c-0.7,2.3-2,8.5-4.1,11.5c-1-4.6,0.9-8.8,1.4-12.4
						c-1.6,1.1-4.9,4.2-4,7.1c0.3-0.9,0.2-2.6,1.3-2.4c0.9,5.1-0.3,8.7-3.4,10.9c-6.2-9.5-9.6,3.6-17.1-1.9
						c-1.5,3.7-4.4,5.3-7.7,6.6c-3.3,1.3-7,2.3-10,4.8c7.4,5.5-1.7,1.5,4,8.6c-1.1,1.5-1.8,1.8-2.3,1.4l-7.6-1.2
						c-2.6-1.4,0.2-2.6-1.1-4.2c-3.6,1.7-3.6-2.2-7.1-2.6c2.3,2.3,1.6,4.6-1,4.9l5,1.5c-1.7,7.2-8.3-3.4-10.1,3.7l-0.2-3.4
						c-1.4,3-8.6,6.1-6.8,13.7c-1-0.6-3-2.2-2.3-3.5c-6.2,3.1-8.2,15.1-15.1,14.4l-0.8-2.1c-0.7,1.3,0.5,4.7-2.1,3.8
						c-0.5-0.8-0.8-2.1-1.4-1.9c-0.1,1-0.6,5.1-2.7,5l-0.2-2.9c-7.2,1.4-5,10.8-8.8,15.3c-3.7-5.4-9.2-4.1-12-3.5l-0.4-0.8
						c-3.4,1.9-5.4,4.9-7.1,8.1c-1.7,3.3-3.1,6.9-5.4,9.9c-7.7-3.4-14.3,6-22.5,6.7c1.6,0.4,2.7,4.3,2,5.6c-2.1-0.2-1.4,6.4-4.5,1.2
						l0.6-0.2c-4.3-4.2-6.3-0.9-8.7,0.4l3.9,6.8c-3-1.4-5.4-1.2-7.3-0.3c-2,0.9-3.5,2.6-5,4.2c-2.9,3.3-5.4,6.5-9.8,3.3
						c-0.4,2.6-2.2,3.7-2.5,6.3l-2.2-3.6c-4.6,1.7-6.9,2.5-11.2,6.6l-0.6-3.2c-2.9,1.6,3.1,12.4,0.6,14.3l-4.2-4.8
						c-4.8,3.2-12.7,1.8-14.4,9.7c-0.4-0.8-1.2-2.4-0.6-3.2c-2.4,1.4-11.2,2.1-5.7,8.8c-3.1-4.7-5.3,2.7-6.7,6.5l-1.8-3.7
						c0.6,5.9,1.3,7.1-1.1,10.3c-1,0-2.4-2.4-0.9-2.1c-3.6-0.3,0.2,4.5-4,4.5l-0.3-2.9c-2.7,1.3-1.7,2.4-1.5,5.9
						c-0.7,2.4-5.4,2.2-7.7-0.8c0.9,2.1,1.1,5.6-1,5.6c-1-1.1-0.9-2.2-0.8-2.7c-5.7,0.3-3.8,8-8.8,6.4c-0.8-1.1-1.3-1.6-1.8-1.8
						c3.4-2,6.3-3.6,6.2-3.1c-2-3.2-5.1-2.1-5.7-7.9c-0.7,3.8-1.1,11.4-4.7,11.6c-0.3-0.2-0.6-0.5-1-0.9l0-0.5
						c-0.8,0.1-1.2,0.7-1.4,1.6c-1.2,0-2-0.1-2.8,0.4c-2-2.5-4,0.5-5.4,1.2c2.3,3.5,0.2,4,3.7,5.9c-0.4-0.1,0-0.6,0.8-1.3
						c0.1-0.2,0.3-0.4,0.4-0.7c0,0.1,0.1,0.2,0.1,0.4c0.8-0.7,1.9-1.5,3.2-2.4c0,2.5-0.1,4.7-2.9,3.7c0.7,2.7,1.4,5.5,1.6,6.9
						c-4.9-3.8-10.2-4.2-12.6-7c-2.9,4.5-9,7.3-7.6,15.6c-0.7,1.6-2.5-1.1-3.6-1.8c0.3-1.1,1.2-1.5,0.9-2.7c-1.3,3.2-6.6,5-4.3,10
						c-4.3-0.3-0.9-5.3-4.6-2l-0.3-1.8c-12.6-2.5-5.9,20-20.7,15.9c1,0.2,1.5,0.3,2.1,1c-12.8,2.1-18.8,16.7-33,16.1
						c-3.7,0.4-2.2,3.5-2.6,6.9l-2.9-3.5l-0.4,6.2c-2.3,5.8-13-5-14.8,4.4l2.2,2.2c-2.2,0.7-5.3,5.2-6.7,2c0.1,0.6,1,3.1-0.6,2.2
						l-1.3-2l-2.7,6.3c-4.6,0.7-4.1-8.3-9.8-5.5c-1.5,2-2.3,9.3-0.7,10.2c0.9-0.4,2.8,0,4.1,2l-1.2,2.1c3.2,6.1,5.3,13.1,12.3,14.5
						l1-5.5l2.7,2.3l-2.5,1.8c3.1,1.8,2.6-1.2,2.7-3.4c1.2,1.4,2.2,2.2,3.2,2.4l-0.3-7.5c1.7,2.1,1.3,5.4,4.2,5.5
						c-0.1-3.5-4.5-4.4-3.1-7.5c3.1,1.8,4,4.3,4.4,0.9c1.2,1.4,1.4,2.6,1.1,3.7c0.5-2.8,3.7-3.3,2.7-6.9c3.5,2.4,4.8-4,8,1.7
						c-0.3-1.6,0.2-6.1,1.5-7.2c1.4,8.3,5.7-2.8,9.2,4.8c-1.6-7.2,5.5-6.9,6.9-12.3c0.1,0.6,0.3,1.8-0.2,1.7
						c2.3-0.7,3.9,0.8,5.8,1.2c-2.7-5.1-0.4-8.1-0.6-12.1c5.3,3.4,2.1,6.7,5.6,10.9c-2.5-4,1.7-6.5-1.1-9.4c3.6,1.9,2.4,0.5,5.9,4.1
						c-3.4-6.4,1.1-2.1,0.3-6.8c4.5,1.5,4.2,5.4,6,1.8C915.1,696.8,913.8,700.6,913.8,700.6z M975.9,647.7
						C976,647.7,976,647.7,975.9,647.7c-0.5,0.5-0.9,0.9-1.2,1.2C975,648.6,975.3,648.3,975.9,647.7z M981.6,644
						c-0.8,0.3-1.7,0.8-2.6,1.4c-1-1.1-1.5-2.5-0.9-2.8C978.4,643.7,980.1,643.5,981.6,644z M954.3,627.2c0.6-1.1,1.3-0.6,1.9,0.1
						c-0.4,0.3-0.8,0.8-1.3,1.4c0.1,0.1,0.1,0.3,0.2,0.5C954.7,628.4,954.4,627.7,954.3,627.2z"/>
					<path class="st0" d="M955.6,632.8c-0.1,0.2-0.1,0.4-0.2,0.5c0.4,0.2,0.7,0.4,1,0.5c-0.1-0.4-0.3-0.9-0.4-1.3
						C955.9,632.6,955.7,632.7,955.6,632.8z"/>
					<path class="st0" d="M1440.6,266.8l-0.2,0c0.2,0,0.4,0,0.6,0.2C1440.9,266.9,1440.8,266.9,1440.6,266.8z"/>
					<polygon class="st0" points="1064.8,600.4 1064.2,599.5 1064.2,600.6 					"/>
					<path class="st0" d="M1475.1,246.5c0.3,0.2,0.7,0.3,1.2,0.2C1476,246.6,1475.6,246.6,1475.1,246.5z"/>
					<path class="st0" d="M1485.3,233.7l2.6-1.1C1486.6,232.9,1485.8,233.3,1485.3,233.7z"/>
					<path class="st0" d="M1494,224.1c-0.5-0.5-1-0.8-1.4-1.2c0,0,0,0,0,0L1494,224.1z"/>
					<path class="st0" d="M1363.5,375.1c-0.1,0.1-0.2,0.3-0.2,0.5C1362.9,376.9,1363.3,376.2,1363.5,375.1z"/>
					<path class="st0" d="M1400.1,327.9c0.1,1,0.2,1.9,0,2.7C1401.1,330.1,1401.7,329.6,1400.1,327.9z"/>
					<path class="st0" d="M1316.5,421.7C1316.4,421.7,1316.4,421.7,1316.5,421.7c-0.1,0-0.2,0.1-0.4,0.2L1316.5,421.7z"/>
					<path class="st0" d="M1398.1,332.5c1.3-0.1,1.8-0.9,2-1.8C1399.3,331,1398.3,331.4,1398.1,332.5z"/>
					<path class="st0" d="M1519.2,172.6l0.3-0.6c-0.3,0-0.5-0.1-0.6-0.2L1519.2,172.6z"/>
					<path class="st0" d="M1518.9,171.8l-0.3-0.9C1518.5,171.2,1518.5,171.6,1518.9,171.8z"/>
					<path class="st0" d="M1517.9,169.1l0.7,1.8C1518.7,170.4,1519,169.7,1517.9,169.1z"/>
					<path class="st0" d="M1511.9,189.4l1.3,0.7C1513,189.9,1512.6,189.6,1511.9,189.4z"/>
					<path class="st0" d="M1510.2,194.4c0.8-1,4.2-1.7,4.1-3.7l-1.1-0.6C1515,191.7,1508.4,192.3,1510.2,194.4z"/>
					<path class="st0" d="M1484.1,204.9l3-3c-1.8-0.1-4.1-0.4-3.6-2.1C1476.9,201.9,1487.3,200.6,1484.1,204.9z"/>
					<path class="st0" d="M1475.7,214.4c0.5-2.2-2-1.2-2.7-1.8C1473.5,214.6,1473.7,215.1,1475.7,214.4z"/>
					<path class="st0" d="M1419,286.1l-2.6-2.7C1415.6,284.9,1417.4,284.3,1419,286.1z"/>
					<polygon class="st0" points="1420.9,312.5 1423.8,312.9 1421.8,309.9 					"/>
					<polygon class="st0" points="1394.3,301.1 1394.4,300.2 1393.4,303.1 					"/>
					<path class="st0" d="M1279.3,404.6l3.3,3.3C1283,406.6,1279.9,402.3,1279.3,404.6z"/>
					<path class="st0" d="M1229.1,449.7c-2-1.4-4.4-1.5-4,1C1226.5,450,1228.8,450.6,1229.1,449.7z"/>
					<polygon class="st0" points="1059.3,559.3 1059.6,557.3 1058.2,559.8 					"/>
				</g>
			</g>
		</g>
	</g>
</g>
<polygon class="st1" points="295.1,265.6 417.1,37.8 543.1,263.4 771,385.4 545.3,511.5 423.4,739.3 297.3,513.7 69.5,391.7 "/>
</svg>
